TiroBangla-Regular.ufo
<glyph name="Danda" format="2">
  <advance width="246"/>
  <unicode hex="0964"/>
  <outline>
    <contour>
      <point x="161" y="-43" type="line"/>
      <point x="161" y="567" type="line"/>
      <point x="93" y="620" type="line"/>
      <point x="85" y="620" type="line"/>
      <point x="85" y="10" type="line"/>
      <point x="153" y="-43" type="line"/>
    </contour>
  </outline>
</glyph>
<glyph name="DoubleDanda" format="2">
  <advance width="432"/>
  <unicode hex="0965"/>
  <outline>
    <contour>
      <point x="352" y="-43" type="line"/>
      <point x="352" y="567" type="line"/>
      <point x="284" y="620" type="line"/>
      <point x="276" y="620" type="line"/>
      <point x="276" y="10" type="line"/>
      <point x="344" y="-43" type="line"/>
    </contour>
    <contour>
      <point x="156" y="-43" type="line"/>
      <point x="156" y="567" type="line"/>
      <point x="88" y="620" type="line"/>
      <point x="80" y="620" type="line"/>
      <point x="80" y="10" type="line"/>
      <point x="148" y="-43" type="line"/>
    </contour>
  </outline>
</glyph>
<glyph name="bAa" format="2">
  <advance width="1018"/>
  <unicode hex="0986"/>
  <outline>
    <contour>
      <point x="896" y="510" type="line"/>
      <point x="878" y="504" type="line"/>
      <point x="842" y="604"/>
      <point x="799" y="620"/>
      <point x="723" y="620" type="curve" smooth="yes"/>
      <point x="-50" y="620" type="line"/>
      <point x="-50" y="612" type="line"/>
      <point x="10" y="552" type="line"/>
      <point x="760" y="552" type="line" smooth="yes"/>
      <point x="852" y="552"/>
      <point x="869" y="460"/>
      <point x="869" y="355" type="curve"/>
    </contour>
    <contour>
      <point x="354" y="95" type="curve" smooth="yes"/>
      <point x="463" y="95"/>
      <point x="543" y="179"/>
      <point x="543" y="283" type="curve" smooth="yes"/>
      <point x="543" y="383"/>
      <point x="467" y="506"/>
      <point x="323" y="506" type="curve" smooth="yes"/>
      <point x="254" y="506"/>
      <point x="201" y="470"/>
      <point x="201" y="408" type="curve" smooth="yes"/>
      <point x="201" y="362"/>
      <point x="240" y="315"/>
      <point x="297" y="315" type="curve" smooth="yes"/>
      <point x="339" y="315"/>
      <point x="379" y="340"/>
      <point x="379" y="396" type="curve" smooth="yes"/>
      <point x="379" y="409"/>
      <point x="376" y="425"/>
      <point x="369" y="439" type="curve"/>
      <point x="450" y="438"/>
      <point x="481" y="376"/>
      <point x="481" y="326" type="curve" smooth="yes"/>
      <point x="481" y="263"/>
      <point x="437" y="190"/>
      <point x="337" y="190" type="curve" smooth="yes"/>
      <point x="237" y="190"/>
      <point x="128" y="264"/>
      <point x="39" y="500" type="curve"/>
      <point x="9" y="509" type="line"/>
      <point x="-1" y="509" type="line"/>
      <point x="87" y="212"/>
      <point x="224" y="95"/>
    </contour>
    <contour>
      <point x="643" y="161" type="line"/>
      <point x="627" y="150" type="line"/>
      <point x="599" y="193"/>
      <point x="569" y="225"/>
      <point x="526" y="263" type="curve"/>
      <point x="507" y="201" type="line"/>
      <point x="587" y="148"/>
      <point x="646" y="55"/>
      <point x="666" y="-16" type="curve"/>
    </contour>
    <contour>
      <point x="349" y="486" type="line"/>
      <point x="327" y="528"/>
      <point x="318" y="544"/>
      <point x="296" y="572" type="curve"/>
      <point x="200" y="572" type="line"/>
      <point x="200" y="554" type="line"/>
      <point x="246" y="543"/>
      <point x="279" y="515"/>
      <point x="293" y="492" type="curve"/>
    </contour>
    <contour>
      <point x="704" y="-33" type="line"/>
      <point x="699" y="68"/>
      <point x="698" y="132"/>
      <point x="698" y="208" type="curve" smooth="yes"/>
      <point x="698" y="568" type="line"/>
      <point x="620" y="568" type="line"/>
      <point x="620" y="419" type="line" smooth="yes"/>
      <point x="620" y="264"/>
      <point x="621" y="193"/>
      <point x="632" y="143" type="curve"/>
      <point x="666" y="-16" type="line"/>
      <point x="693" y="-33" type="line"/>
    </contour>
    <contour>
      <point x="949" y="-43" type="line"/>
      <point x="931" y="592" type="line"/>
      <point x="925" y="704" type="line"/>
      <point x="882" y="735" type="line"/>
      <point x="875" y="735" type="line"/>
      <point x="875" y="602" type="line" smooth="yes"/>
      <point x="875" y="561"/>
      <point x="875" y="533"/>
      <point x="884" y="486" type="curve"/>
      <point x="869" y="355" type="line"/>
      <point x="869" y="10" type="line"/>
      <point x="938" y="-43" type="line"/>
    </contour>
    <contour>
      <point x="1028" y="552" type="line"/>
      <point x="1028" y="560" type="line"/>
      <point x="968" y="620" type="line"/>
      <point x="931" y="620"/>
      <point x="928" y="639"/>
      <point x="925" y="704" type="curve"/>
      <point x="917" y="569" type="line"/>
      <point x="935" y="578" type="line"/>
      <point x="945" y="564"/>
      <point x="959" y="552"/>
      <point x="986" y="552" type="curve" smooth="yes"/>
    </contour>
  </outline>
</glyph>
<glyph name="bVocalicR" format="2">
  <advance width="741"/>
  <unicode hex="098B"/>
  <outline>
    <contour>
      <point x="440" y="132" type="line"/>
      <point x="424" y="121" type="line"/>
      <point x="359" y="213"/>
      <point x="291" y="261"/>
      <point x="226" y="293" type="curve"/>
      <point x="225" y="296" type="line"/>
      <point x="293" y="336"/>
      <point x="363" y="371"/>
      <point x="431" y="400" type="curve"/>
      <point x="431" y="494" type="line"/>
      <point x="318" y="445"/>
      <point x="202" y="385"/>
      <point x="83" y="313" type="curve"/>
      <point x="149" y="231" type="line"/>
      <point x="316" y="209"/>
      <point x="430" y="82"/>
      <point x="460" y="-16" type="curve"/>
    </contour>
    <contour>
      <point x="610" y="169" type="line"/>
      <point x="594" y="158" type="line"/>
      <point x="562" y="205"/>
      <point x="526" y="246"/>
      <point x="477" y="268" type="curve"/>
      <point x="477" y="196" type="line"/>
      <point x="573" y="169"/>
      <point x="613" y="73"/>
      <point x="633" y="12" type="curve"/>
    </contour>
    <contour>
      <point x="125" y="443" type="curve" smooth="yes"/>
      <point x="188" y="443"/>
      <point x="251" y="477"/>
      <point x="289" y="503" type="curve" smooth="yes"/>
      <point x="310" y="517"/>
      <point x="314" y="519"/>
      <point x="322" y="519" type="curve" smooth="yes"/>
      <point x="335" y="519"/>
      <point x="347" y="506"/>
      <point x="384" y="459" type="curve"/>
      <point x="418" y="475" type="line"/>
      <point x="381" y="525"/>
      <point x="346" y="568"/>
      <point x="302" y="614" type="curve"/>
      <point x="297" y="614" type="line"/>
      <point x="240" y="558"/>
      <point x="169" y="527"/>
      <point x="152" y="527" type="curve"/>
      <point x="151" y="556"/>
      <point x="127" y="591"/>
      <point x="84" y="591" type="curve" smooth="yes"/>
      <point x="48" y="591"/>
      <point x="20" y="564"/>
      <point x="20" y="528" type="curve" smooth="yes"/>
      <point x="20" y="489"/>
      <point x="53" y="443"/>
    </contour>
    <contour>
      <point x="499" y="-33" type="line"/>
      <point x="495" y="69"/>
      <point x="495" y="127"/>
      <point x="495" y="206" type="curve" smooth="yes"/>
      <point x="495" y="579" type="line"/>
      <point x="426" y="633" type="line"/>
      <point x="417" y="633" type="line"/>
      <point x="417" y="420" type="line" smooth="yes"/>
      <point x="417" y="252"/>
      <point x="417" y="156"/>
      <point x="429" y="117" type="curve"/>
      <point x="460" y="-16" type="line"/>
      <point x="488" y="-33" type="line"/>
    </contour>
    <contour>
      <point x="671" y="-4" type="line"/>
      <point x="667" y="92"/>
      <point x="666" y="153"/>
      <point x="666" y="225" type="curve" smooth="yes"/>
      <point x="666" y="552" type="line"/>
      <point x="751" y="552" type="line"/>
      <point x="751" y="560" type="line"/>
      <point x="691" y="620" type="line"/>
      <point x="589" y="620" type="line"/>
      <point x="589" y="411" type="line" smooth="yes"/>
      <point x="589" y="264"/>
      <point x="589" y="199"/>
      <point x="599" y="151" type="curve"/>
      <point x="633" y="12" type="line"/>
      <point x="660" y="-4" type="line"/>
    </contour>
  </outline>
</glyph>
<glyph name="bO" format="2">
  <advance width="703"/>
  <unicode hex="0993"/>
  <outline>
    <contour>
      <point x="449" y="42" type="curve" smooth="yes"/>
      <point x="569" y="42"/>
      <point x="633" y="116"/>
      <point x="633" y="200" type="curve" smooth="yes"/>
      <point x="633" y="254"/>
      <point x="605" y="308"/>
      <point x="561" y="341" type="curve"/>
      <point x="527" y="307" type="line"/>
      <point x="560" y="294"/>
      <point x="578" y="266"/>
      <point x="578" y="237" type="curve" smooth="yes"/>
      <point x="578" y="184"/>
      <point x="520" y="139"/>
      <point x="430" y="139" type="curve" smooth="yes"/>
      <point x="302" y="139"/>
      <point x="150" y="230"/>
      <point x="60" y="515" type="curve"/>
      <point x="30" y="524" type="line"/>
      <point x="20" y="524" type="line"/>
      <point x="106" y="179"/>
      <point x="285" y="42"/>
    </contour>
    <contour>
      <point x="477" y="275" type="curve" smooth="yes"/>
      <point x="507" y="275"/>
      <point x="535" y="289"/>
      <point x="551" y="313" type="curve"/>
      <point x="587" y="335"/>
      <point x="614" y="409"/>
      <point x="614" y="460" type="curve" smooth="yes"/>
      <point x="614" y="549"/>
      <point x="542" y="608"/>
      <point x="430" y="608" type="curve" smooth="yes"/>
      <point x="292" y="608"/>
      <point x="178" y="521"/>
      <point x="178" y="426" type="curve" smooth="yes"/>
      <point x="178" y="366"/>
      <point x="221" y="332"/>
      <point x="269" y="332" type="curve" smooth="yes"/>
      <point x="314" y="332"/>
      <point x="345" y="365"/>
      <point x="345" y="403" type="curve" smooth="yes"/>
      <point x="345" y="428"/>
      <point x="333" y="454"/>
      <point x="307" y="468" type="curve"/>
      <point x="359" y="527"/>
      <point x="434" y="554"/>
      <point x="483" y="554" type="curve" smooth="yes"/>
      <point x="524" y="554"/>
      <point x="552" y="533"/>
      <point x="552" y="496" type="curve" smooth="yes"/>
      <point x="552" y="469"/>
      <point x="539" y="434"/>
      <point x="518" y="412" type="curve"/>
      <point x="504" y="420"/>
      <point x="489" y="424"/>
      <point x="474" y="424" type="curve" smooth="yes"/>
      <point x="430" y="424"/>
      <point x="396" y="392"/>
      <point x="396" y="348" type="curve" smooth="yes"/>
      <point x="396" y="300"/>
      <point x="436" y="275"/>
    </contour>
  </outline>
</glyph>
<glyph name="bNga" format="2">
  <advance width="640"/>
  <unicode hex="0999"/>
  <outline>
    <contour>
      <point x="384" y="-10" type="curve" smooth="yes"/>
      <point x="517" y="-10"/>
      <point x="590" y="76"/>
      <point x="590" y="190" type="curve" smooth="yes"/>
      <point x="590" y="273"/>
      <point x="552" y="347"/>
      <point x="477" y="391" type="curve"/>
      <point x="472" y="390" type="line"/>
      <point x="425" y="323"/>
      <point x="357" y="264"/>
      <point x="322" y="264" type="curve" smooth="yes"/>
      <point x="309" y="264"/>
      <point x="300" y="273"/>
      <point x="300" y="294" type="curve" smooth="yes"/>
      <point x="300" y="411" type="line" smooth="yes"/>
      <point x="300" y="417"/>
      <point x="300" y="431"/>
      <point x="302" y="448" type="curve" smooth="yes"/>
      <point x="305" y="476"/>
      <point x="316" y="559"/>
      <point x="399" y="559" type="curve" smooth="yes"/>
      <point x="437" y="559"/>
      <point x="455" y="540"/>
      <point x="455" y="521" type="curve" smooth="yes"/>
      <point x="455" y="496"/>
      <point x="428" y="469"/>
      <point x="368" y="469" type="curve" smooth="yes"/>
      <point x="309" y="469"/>
      <point x="216" y="489"/>
      <point x="63" y="615" type="curve"/>
      <point x="51" y="615" type="line"/>
      <point x="64" y="555" type="line"/>
      <point x="221" y="426"/>
      <point x="326" y="412"/>
      <point x="379" y="412" type="curve" smooth="yes"/>
      <point x="465" y="412"/>
      <point x="504" y="464"/>
      <point x="504" y="513" type="curve" smooth="yes"/>
      <point x="504" y="566"/>
      <point x="455" y="620"/>
      <point x="375" y="620" type="curve" smooth="yes"/>
      <point x="289" y="620"/>
      <point x="223" y="556"/>
      <point x="223" y="434" type="curve" smooth="yes"/>
      <point x="223" y="320" type="line" smooth="yes"/>
      <point x="223" y="257"/>
      <point x="305" y="183"/>
      <point x="351" y="183" type="curve" smooth="yes"/>
      <point x="389" y="183"/>
      <point x="453" y="228"/>
      <point x="504" y="292" type="curve"/>
      <point x="529" y="274"/>
      <point x="541" y="244"/>
      <point x="541" y="216" type="curve" smooth="yes"/>
      <point x="541" y="156"/>
      <point x="480" y="85"/>
      <point x="370" y="85" type="curve" smooth="yes"/>
      <point x="234" y="85"/>
      <point x="135" y="195"/>
      <point x="80" y="459" type="curve"/>
      <point x="50" y="468" type="line"/>
      <point x="40" y="468" type="line"/>
      <point x="95" y="99"/>
      <point x="236" y="-10"/>
    </contour>
  </outline>
  <guideline angle="90" x="40" y="0"/>
</glyph>
<glyph name="bCha" format="2">
  <advance width="593"/>
  <unicode hex="099B"/>
  <outline>
    <contour>
      <point x="336" y="103" type="line"/>
      <point x="431" y="119"/>
      <point x="538" y="191"/>
      <point x="538" y="304" type="curve" smooth="yes"/>
      <point x="538" y="426"/>
      <point x="408" y="474"/>
      <point x="356" y="474" type="curve" smooth="yes"/>
      <point x="339" y="474"/>
      <point x="307" y="469"/>
      <point x="286" y="469" type="curve" smooth="yes"/>
      <point x="248" y="469"/>
      <point x="158" y="487"/>
      <point x="140" y="562" type="curve"/>
      <point x="122" y="480" type="line"/>
      <point x="146" y="488" type="line"/>
      <point x="176" y="423"/>
      <point x="236" y="402"/>
      <point x="283" y="400" type="curve"/>
      <point x="345" y="391" type="line"/>
      <point x="359" y="402"/>
      <point x="385" y="407"/>
      <point x="404" y="407" type="curve" smooth="yes"/>
      <point x="443" y="407"/>
      <point x="477" y="381"/>
      <point x="477" y="338" type="curve" smooth="yes"/>
      <point x="477" y="253"/>
      <point x="345" y="163"/>
      <point x="190" y="163" type="curve" smooth="yes"/>
      <point x="158" y="163"/>
      <point x="130" y="167"/>
      <point x="99" y="174" type="curve"/>
      <point x="94" y="169" type="line"/>
      <point x="149" y="66" type="line"/>
    </contour>
    <contour>
      <point x="648" y="-130" type="line"/>
      <point x="634" y="-82" type="line"/>
      <point x="586" y="-28"/>
      <point x="466" y="61"/>
      <point x="351" y="103" type="curve"/>
      <point x="351" y="122" type="line"/>
      <point x="149" y="66" type="line"/>
      <point x="330" y="63"/>
      <point x="473" y="-3"/>
      <point x="641" y="-130" type="curve"/>
    </contour>
    <contour>
      <point x="191" y="219" type="curve" smooth="yes"/>
      <point x="265" y="219"/>
      <point x="369" y="310"/>
      <point x="357" y="416" type="curve"/>
      <point x="261" y="412" type="line"/>
      <point x="270" y="407"/>
      <point x="274" y="395"/>
      <point x="274" y="384" type="curve" smooth="yes"/>
      <point x="274" y="332"/>
      <point x="192" y="279"/>
      <point x="161" y="279" type="curve" smooth="yes"/>
      <point x="148" y="279"/>
      <point x="143" y="287"/>
      <point x="143" y="306" type="curve" smooth="yes"/>
      <point x="143" y="569" type="line"/>
      <point x="65" y="569" type="line"/>
      <point x="65" y="325" type="line" smooth="yes"/>
      <point x="65" y="277"/>
      <point x="132" y="219"/>
    </contour>
    <contour>
      <point x="603" y="552" type="line"/>
      <point x="603" y="560" type="line"/>
      <point x="543" y="620" type="line"/>
      <point x="-50" y="620" type="line"/>
      <point x="-50" y="612" type="line"/>
      <point x="10" y="552" type="line"/>
    </contour>
  </outline>
  <guideline angle="0" x="0" y="219"/>
</glyph>
<glyph name="bDa" format="2">
  <advance width="549"/>
  <unicode hex="09A6"/>
  <outline>
    <contour>
      <point x="426" y="-35" type="line"/>
      <point x="416" y="23"/>
      <point x="410" y="85"/>
      <point x="410" y="138" type="curve" smooth="yes"/>
      <point x="410" y="241"/>
      <point x="431" y="332"/>
      <point x="507" y="402" type="curve"/>
      <point x="507" y="408" type="line"/>
      <point x="390" y="494" type="line"/>
      <point x="306" y="438"/>
      <point x="216" y="355"/>
      <point x="163" y="294" type="curve"/>
      <point x="161" y="295" type="line"/>
      <point x="161" y="568" type="line"/>
      <point x="81" y="568" type="line"/>
      <point x="81" y="235" type="line"/>
      <point x="164" y="154" type="line"/>
      <point x="170" y="154" type="line"/>
      <point x="218" y="221"/>
      <point x="278" y="307"/>
      <point x="373" y="374" type="curve"/>
      <point x="376" y="371" type="line"/>
      <point x="352" y="319"/>
      <point x="347" y="263"/>
      <point x="347" y="211" type="curve" smooth="yes"/>
      <point x="347" y="124"/>
      <point x="362" y="50"/>
      <point x="386" y="-17" type="curve"/>
      <point x="415" y="-35" type="line"/>
    </contour>
    <contour>
      <point x="559" y="552" type="line"/>
      <point x="559" y="560" type="line"/>
      <point x="499" y="620" type="line"/>
      <point x="-50" y="620" type="line"/>
      <point x="-50" y="612" type="line"/>
      <point x="10" y="552" type="line"/>
    </contour>
  </outline>
</glyph>
<glyph name="bSsa" format="2">
  <advance width="568"/>
  <unicode hex="09B7"/>
  <outline>
    <contour>
      <point x="437" y="127" type="line"/>
      <point x="421" y="116" type="line"/>
      <point x="344" y="205"/>
      <point x="255" y="250"/>
      <point x="176" y="273" type="curve"/>
      <point x="175" y="276" type="line"/>
      <point x="226" y="316"/>
      <point x="284" y="355"/>
      <point x="343" y="393" type="curve"/>
      <point x="255" y="445" type="line"/>
      <point x="190" y="402"/>
      <point x="119" y="354"/>
      <point x="49" y="299" type="curve"/>
      <point x="122" y="206" type="line"/>
      <point x="303" y="188"/>
      <point x="424" y="84"/>
      <point x="460" y="-16" type="curve"/>
    </contour>
    <contour>
      <point x="427" y="352" type="line"/>
      <point x="344" y="427"/>
      <point x="264" y="492"/>
      <point x="185" y="550" type="curve"/>
      <point x="196" y="572" type="line"/>
      <point x="37" y="525" type="line"/>
      <point x="149" y="523"/>
      <point x="218" y="483"/>
      <point x="428" y="292" type="curve"/>
    </contour>
    <contour>
      <point x="499" y="-33" type="line"/>
      <point x="494" y="68"/>
      <point x="493" y="132"/>
      <point x="493" y="208" type="curve" smooth="yes"/>
      <point x="493" y="568" type="line"/>
      <point x="414" y="568" type="line"/>
      <point x="414" y="422" type="line" smooth="yes"/>
      <point x="414" y="268"/>
      <point x="415" y="156"/>
      <point x="425" y="111" type="curve"/>
      <point x="460" y="-16" type="line"/>
      <point x="488" y="-33" type="line"/>
    </contour>
    <contour>
      <point x="170" y="552" type="line"/>
      <point x="578" y="552" type="line"/>
      <point x="578" y="560" type="line"/>
      <point x="518" y="620" type="line"/>
      <point x="-50" y="620" type="line"/>
      <point x="-50" y="612" type="line"/>
      <point x="37" y="525" type="line"/>
    </contour>
  </outline>
</glyph>
<glyph name="bSignU" format="2">
  <unicode hex="09C1"/>
  <outline>
    <contour>
      <point x="117" y="-255" type="line"/>
      <point x="103" y="-199" type="line"/>
      <point x="-74" y="-46"/>
      <point x="-148" y="-21"/>
      <point x="-201" y="-21" type="curve" smooth="yes"/>
      <point x="-260" y="-21"/>
      <point x="-309" y="-52"/>
      <point x="-309" y="-105" type="curve" smooth="yes"/>
      <point x="-309" y="-164"/>
      <point x="-249" y="-199"/>
      <point x="-192" y="-199" type="curve" smooth="yes"/>
      <point x="-129" y="-199"/>
      <point x="-65" y="-155"/>
      <point x="-65" y="-78" type="curve" smooth="yes"/>
      <point x="-65" y="-58"/>
      <point x="-72" y="3"/>
      <point x="-80" y="19" type="curve" smooth="yes"/>
      <point x="-86" y="32"/>
      <point x="-102" y="40"/>
      <point x="-120" y="47" type="curve"/>
      <point x="-124" y="44" type="line"/>
      <point x="-114" y="17"/>
      <point x="-111" y="-15"/>
      <point x="-111" y="-33" type="curve" smooth="yes"/>
      <point x="-111" y="-105"/>
      <point x="-162" y="-145"/>
      <point x="-219" y="-145" type="curve" smooth="yes"/>
      <point x="-251" y="-145"/>
      <point x="-271" y="-133"/>
      <point x="-271" y="-113" type="curve" smooth="yes"/>
      <point x="-271" y="-87"/>
      <point x="-237" y="-71"/>
      <point x="-199" y="-71" type="curve" smooth="yes"/>
      <point x="-141" y="-71"/>
      <point x="-51" y="-110"/>
      <point x="107" y="-255" type="curve"/>
    </contour>
  </outline>
</glyph>
<glyph name="bSignAu" format="2">
  <advance width="1376"/>
  <unicode hex="09CC"/>
  <outline>
    <component base="bSignE"/>
    <component base="bAuMark" xOffset="1129"/>
    <contour>
      <point x="445" y="309" type="curve" smooth="yes"/>
      <point x="445" y="281"/>
      <point x="460" y="266"/>
      <point x="489" y="266" type="curve" smooth="yes"/>
      <point x="517" y="266"/>
      <point x="531" y="281"/>
      <point x="531" y="309" type="curve" smooth="yes"/>
      <point x="531" y="337"/>
      <point x="517" y="352"/>
      <point x="489" y="352" type="curve" smooth="yes"/>
      <point x="460" y="352"/>
      <point x="445" y="337"/>
    </contour>
    <contour>
      <point x="1004" y="309" type="curve" smooth="yes"/>
      <point x="1004" y="281"/>
      <point x="1017" y="266"/>
      <point x="1045" y="266" type="curve" smooth="yes"/>
      <point x="1075" y="266"/>
      <point x="1089" y="281"/>
      <point x="1089" y="309" type="curve" smooth="yes"/>
      <point x="1089" y="337"/>
      <point x="1075" y="352"/>
      <point x="1045" y="352" type="curve" smooth="yes"/>
      <point x="1017" y="352"/>
      <point x="1004" y="337"/>
    </contour>
    <contour>
      <point x="724" y="587" type="curve" smooth="yes"/>
      <point x="724" y="560"/>
      <point x="739" y="547"/>
      <point x="767" y="547" type="curve" smooth="yes"/>
      <point x="795" y="547"/>
      <point x="810" y="560"/>
      <point x="810" y="587" type="curve" smooth="yes"/>
      <point x="810" y="616"/>
      <point x="795" y="630"/>
      <point x="767" y="630" type="curve" smooth="yes"/>
      <point x="739" y="630"/>
      <point x="724" y="616"/>
    </contour>
    <contour>
      <point x="724" y="30" type="curve" smooth="yes"/>
      <point x="724" y="2"/>
      <point x="739" y="-12"/>
      <point x="767" y="-12" type="curve" smooth="yes"/>
      <point x="795" y="-12"/>
      <point x="810" y="2"/>
      <point x="810" y="30" type="curve" smooth="yes"/>
      <point x="810" y="59"/>
      <point x="795" y="73"/>
      <point x="767" y="73" type="curve" smooth="yes"/>
      <point x="739" y="73"/>
      <point x="724" y="59"/>
    </contour>
    <contour>
      <point x="968" y="448" type="curve" smooth="yes"/>
      <point x="968" y="421"/>
      <point x="982" y="406"/>
      <point x="1010" y="406" type="curve" smooth="yes"/>
      <point x="1038" y="406"/>
      <point x="1053" y="421"/>
      <point x="1053" y="448" type="curve" smooth="yes"/>
      <point x="1053" y="477"/>
      <point x="1038" y="491"/>
      <point x="1010" y="491" type="curve" smooth="yes"/>
      <point x="982" y="491"/>
      <point x="968" y="477"/>
    </contour>
    <contour>
      <point x="968" y="169" type="curve" smooth="yes"/>
      <point x="968" y="141"/>
      <point x="982" y="127"/>
      <point x="1010" y="127" type="curve" smooth="yes"/>
      <point x="1038" y="127"/>
      <point x="1053" y="141"/>
      <point x="1053" y="169" type="curve" smooth="yes"/>
      <point x="1053" y="198"/>
      <point x="1038" y="212"/>
      <point x="1010" y="212" type="curve" smooth="yes"/>
      <point x="982" y="212"/>
      <point x="968" y="198"/>
    </contour>
    <contour>
      <point x="482" y="448" type="curve" smooth="yes"/>
      <point x="482" y="421"/>
      <point x="496" y="406"/>
      <point x="524" y="406" type="curve" smooth="yes"/>
      <point x="553" y="406"/>
      <point x="567" y="421"/>
      <point x="567" y="448" type="curve" smooth="yes"/>
      <point x="567" y="477"/>
      <point x="553" y="491"/>
      <point x="524" y="491" type="curve" smooth="yes"/>
      <point x="496" y="491"/>
      <point x="482" y="477"/>
    </contour>
    <contour>
      <point x="482" y="169" type="curve" smooth="yes"/>
      <point x="482" y="141"/>
      <point x="496" y="127"/>
      <point x="524" y="127" type="curve" smooth="yes"/>
      <point x="553" y="127"/>
      <point x="567" y="141"/>
      <point x="567" y="169" type="curve" smooth="yes"/>
      <point x="567" y="198"/>
      <point x="553" y="212"/>
      <point x="524" y="212" type="curve" smooth="yes"/>
      <point x="496" y="212"/>
      <point x="482" y="198"/>
    </contour>
    <contour>
      <point x="585" y="552" type="curve" smooth="yes"/>
      <point x="585" y="523"/>
      <point x="599" y="509"/>
      <point x="628" y="509" type="curve" smooth="yes"/>
      <point x="656" y="509"/>
      <point x="671" y="523"/>
      <point x="671" y="552" type="curve" smooth="yes"/>
      <point x="671" y="580"/>
      <point x="656" y="594"/>
      <point x="628" y="594" type="curve" smooth="yes"/>
      <point x="599" y="594"/>
      <point x="585" y="580"/>
    </contour>
    <contour>
      <point x="864" y="552" type="curve" smooth="yes"/>
      <point x="864" y="523"/>
      <point x="878" y="509"/>
      <point x="906" y="509" type="curve" smooth="yes"/>
      <point x="936" y="509"/>
      <point x="950" y="523"/>
      <point x="950" y="552" type="curve" smooth="yes"/>
      <point x="950" y="580"/>
      <point x="936" y="594"/>
      <point x="906" y="594" type="curve" smooth="yes"/>
      <point x="878" y="594"/>
      <point x="864" y="580"/>
    </contour>
    <contour>
      <point x="585" y="66" type="curve" smooth="yes"/>
      <point x="585" y="38"/>
      <point x="599" y="24"/>
      <point x="628" y="24" type="curve" smooth="yes"/>
      <point x="656" y="24"/>
      <point x="671" y="38"/>
      <point x="671" y="66" type="curve" smooth="yes"/>
      <point x="671" y="95"/>
      <point x="656" y="109"/>
      <point x="628" y="109" type="curve" smooth="yes"/>
      <point x="599" y="109"/>
      <point x="585" y="95"/>
    </contour>
    <contour>
      <point x="864" y="66" type="curve" smooth="yes"/>
      <point x="864" y="38"/>
      <point x="878" y="24"/>
      <point x="906" y="24" type="curve" smooth="yes"/>
      <point x="936" y="24"/>
      <point x="950" y="38"/>
      <point x="950" y="66" type="curve" smooth="yes"/>
      <point x="950" y="95"/>
      <point x="936" y="109"/>
      <point x="906" y="109" type="curve" smooth="yes"/>
      <point x="878" y="109"/>
      <point x="864" y="95"/>
    </contour>
  </outline>
</glyph>
<glyph name="bAuMark" format="2">
  <advance width="247"/>
  <unicode hex="09D7"/>
  <outline>
    <contour>
      <point x="166" y="605" type="line"/>
      <point x="162" y="707"/>
      <point x="115" y="785"/>
      <point x="-34" y="785" type="curve" smooth="yes"/>
      <point x="-84" y="785"/>
      <point x="-226" y="776"/>
      <point x="-291" y="776" type="curve" smooth="yes"/>
      <point x="-372" y="776"/>
      <point x="-405" y="791"/>
      <point x="-405" y="830" type="curve" smooth="yes"/>
      <point x="-405" y="843"/>
      <point x="-401" y="858"/>
      <point x="-389" y="876" type="curve"/>
      <point x="-413" y="896" type="line"/>
      <point x="-421" y="896" type="line"/>
      <point x="-441" y="873"/>
      <point x="-449" y="845"/>
      <point x="-449" y="821" type="curve" smooth="yes"/>
      <point x="-449" y="748"/>
      <point x="-379" y="694"/>
      <point x="-247" y="694" type="curve" smooth="yes"/>
      <point x="-190" y="694"/>
      <point x="-43" y="704"/>
      <point x="10" y="704" type="curve" smooth="yes"/>
      <point x="89" y="704"/>
      <point x="117" y="682"/>
      <point x="117" y="655" type="curve" smooth="yes"/>
      <point x="117" y="641"/>
      <point x="109" y="623"/>
      <point x="88" y="605" type="curve"/>
    </contour>
    <contour>
      <point x="174" y="-43" type="line"/>
      <point x="166" y="568" type="line"/>
      <point x="97" y="568" type="line"/>
      <point x="95" y="10" type="line"/>
      <point x="163" y="-43" type="line"/>
    </contour>
    <contour>
      <point x="257" y="552" type="line"/>
      <point x="257" y="560" type="line"/>
      <point x="197" y="620" type="line"/>
      <point x="-50" y="620" type="line"/>
      <point x="-50" y="612" type="line"/>
      <point x="10" y="552" type="line"/>
    </contour>
  </outline>
</glyph>
<glyph name="bTwo" format="2">
  <advance width="526"/>
  <unicode hex="09E8"/>
  <outline>
    <contour>
      <point x="315" y="147" type="line"/>
      <point x="410" y="169"/>
      <point x="442" y="226"/>
      <point x="442" y="288" type="curve" smooth="yes"/>
      <point x="442" y="419"/>
      <point x="296" y="447"/>
      <point x="233" y="507" type="curve"/>
      <point x="242" y="522"/>
      <point x="246" y="536"/>
      <point x="246" y="550" type="curve" smooth="yes"/>
      <point x="246" y="583"/>
      <point x="222" y="608"/>
      <point x="184" y="608" type="curve" smooth="yes"/>
      <point x="149" y="608"/>
      <point x="119" y="585"/>
      <point x="119" y="540" type="curve" smooth="yes"/>
      <point x="119" y="461"/>
      <point x="214" y="422"/>
      <point x="283" y="394" type="curve" smooth="yes"/>
      <point x="341" y="371"/>
      <point x="392" y="347"/>
      <point x="392" y="308" type="curve" smooth="yes"/>
      <point x="392" y="264"/>
      <point x="331" y="225"/>
      <point x="234" y="225" type="curve" smooth="yes"/>
      <point x="184" y="225"/>
      <point x="128" y="235"/>
      <point x="67" y="260" type="curve"/>
      <point x="315" y="122" type="line"/>
    </contour>
    <contour>
      <point x="561" y="-81" type="line"/>
      <point x="547" y="-33" type="line"/>
      <point x="510" y="11"/>
      <point x="430" y="77"/>
      <point x="309" y="147" type="curve"/>
      <point x="67" y="260" type="line"/>
      <point x="62" y="255" type="line"/>
      <point x="128" y="133" type="line"/>
      <point x="273" y="100"/>
      <point x="399" y="41"/>
      <point x="554" y="-81" type="curve"/>
    </contour>
  </outline>
</glyph>
<glyph name="bThree" format="2">
  <advance width="685"/>
  <unicode hex="09E9"/>
  <outline>
    <contour>
      <point x="400" y="37" type="curve" smooth="yes"/>
      <point x="530" y="37"/>
      <point x="615" y="137"/>
      <point x="615" y="281" type="curve" smooth="yes"/>
      <point x="615" y="437"/>
      <point x="513" y="547"/>
      <point x="385" y="547" type="curve" smooth="yes"/>
      <point x="293" y="547"/>
      <point x="231" y="491"/>
      <point x="231" y="413" type="curve" smooth="yes"/>
      <point x="231" y="339"/>
      <point x="285" y="301"/>
      <point x="338" y="301" type="curve" smooth="yes"/>
      <point x="394" y="301"/>
      <point x="434" y="345"/>
      <point x="434" y="394" type="curve" smooth="yes"/>
      <point x="434" y="420"/>
      <point x="423" y="450"/>
      <point x="401" y="470" type="curve"/>
      <point x="410" y="472"/>
      <point x="418" y="473"/>
      <point x="427" y="473" type="curve" smooth="yes"/>
      <point x="508" y="473"/>
      <point x="560" y="389"/>
      <point x="560" y="309" type="curve" smooth="yes"/>
      <point x="560" y="220"/>
      <point x="495" y="134"/>
      <point x="385" y="134" type="curve" smooth="yes"/>
      <point x="275" y="134"/>
      <point x="151" y="219"/>
      <point x="65" y="495" type="curve"/>
      <point x="35" y="504" type="line"/>
      <point x="25" y="504" type="line"/>
      <point x="106" y="158"/>
      <point x="259" y="37"/>
    </contour>
  </outline>
</glyph>
<glyph name="bEight" format="2">
  <advance width="600"/>
  <unicode hex="09EE"/>
  <outline>
    <contour>
      <point x="257" y="-10" type="curve" smooth="yes"/>
      <point x="345" y="-10"/>
      <point x="470" y="119"/>
      <point x="470" y="209" type="curve" smooth="yes"/>
      <point x="470" y="244"/>
      <point x="451" y="265"/>
      <point x="405" y="283" type="curve"/>
      <point x="390" y="305" type="line"/>
      <point x="386" y="304" type="line"/>
      <point x="361" y="346"/>
      <point x="319" y="367"/>
      <point x="277" y="367" type="curve" smooth="yes"/>
      <point x="256" y="367"/>
      <point x="225" y="362"/>
      <point x="190" y="343" type="curve"/>
      <point x="160" y="353" type="line"/>
      <point x="186" y="264" type="line"/>
      <point x="213" y="277"/>
      <point x="258" y="293"/>
      <point x="300" y="293" type="curve" smooth="yes"/>
      <point x="344" y="293"/>
      <point x="386" y="276"/>
      <point x="386" y="229" type="curve" smooth="yes"/>
      <point x="386" y="150"/>
      <point x="272" y="63"/>
      <point x="223" y="63" type="curve" smooth="yes"/>
      <point x="200" y="63"/>
      <point x="187" y="82"/>
      <point x="187" y="111" type="curve" smooth="yes"/>
      <point x="187" y="488" type="line" smooth="yes"/>
      <point x="187" y="578"/>
      <point x="144" y="608"/>
      <point x="104" y="608" type="curve" smooth="yes"/>
      <point x="70" y="608"/>
      <point x="40" y="586"/>
      <point x="40" y="552" type="curve" smooth="yes"/>
      <point x="40" y="520"/>
      <point x="65" y="498"/>
      <point x="91" y="498" type="curve" smooth="yes"/>
      <point x="100" y="498"/>
      <point x="109" y="501"/>
      <point x="111" y="502" type="curve"/>
      <point x="114" y="500" type="line"/>
      <point x="110" y="464"/>
      <point x="110" y="432"/>
      <point x="110" y="335" type="curve" smooth="yes"/>
      <point x="110" y="139" type="line" smooth="yes"/>
      <point x="110" y="77"/>
      <point x="183" y="-10"/>
    </contour>
    <contour>
      <point x="403" y="277" type="line"/>
      <point x="408" y="290"/>
      <point x="414" y="295"/>
      <point x="438" y="295" type="curve" smooth="yes"/>
      <point x="459" y="295"/>
      <point x="485" y="291"/>
      <point x="509" y="291" type="curve" smooth="yes"/>
      <point x="571" y="291"/>
      <point x="589" y="317"/>
      <point x="595" y="400" type="curve"/>
      <point x="570" y="416" type="line"/>
      <point x="566" y="416" type="line"/>
      <point x="560" y="384"/>
      <point x="554" y="367"/>
      <point x="513" y="367" type="curve" smooth="yes"/>
      <point x="500" y="367"/>
      <point x="476" y="369"/>
      <point x="462" y="369" type="curve" smooth="yes"/>
      <point x="417" y="369"/>
      <point x="395" y="350"/>
      <point x="385" y="289" type="curve"/>
    </contour>
  </outline>
</glyph>
<glyph name="bRupeemark" format="2">
  <advance width="533"/>
  <unicode hex="09F2"/>
  <outline>
    <contour>
      <point x="479" y="-15" type="line"/>
      <point x="488" y="33" type="line"/>
      <point x="401" y="206"/>
      <point x="262" y="362"/>
      <point x="110" y="505" type="curve"/>
      <point x="105" y="503" type="line"/>
      <point x="95" y="394" type="line"/>
      <point x="253" y="280"/>
      <point x="384" y="136"/>
      <point x="472" y="-15" type="curve"/>
    </contour>
  </outline>
</glyph>
<glyph name="vArdhavisarga" format="2">
  <advance width="595"/>
  <unicode hex="1CF2"/>
  <outline>
    <contour>
      <point x="299" y="315" type="curve" smooth="yes"/>
      <point x="427" y="315"/>
      <point x="506" y="408"/>
      <point x="545" y="483" type="curve"/>
      <point x="506" y="508" type="line"/>
      <point x="450" y="413"/>
      <point x="353" y="393"/>
      <point x="293" y="393" type="curve" smooth="yes"/>
      <point x="232" y="393"/>
      <point x="149" y="413"/>
      <point x="93" y="508" type="curve"/>
      <point x="60" y="489" type="line"/>
      <point x="100" y="408"/>
      <point x="170" y="315"/>
    </contour>
    <contour>
      <point x="306" y="263" type="curve" smooth="yes"/>
      <point x="178" y="263"/>
      <point x="99" y="170"/>
      <point x="60" y="95" type="curve"/>
      <point x="99" y="70" type="line"/>
      <point x="155" y="165"/>
      <point x="252" y="185"/>
      <point x="312" y="185" type="curve" smooth="yes"/>
      <point x="373" y="185"/>
      <point x="456" y="165"/>
      <point x="512" y="70" type="curve"/>
      <point x="545" y="89" type="line"/>
      <point x="505" y="170"/>
      <point x="435" y="263"/>
    </contour>
  </outline>
  <guideline angle="90" x="96" y="0"/>
</glyph>
<glyph name="vJihvamuliya" format="2">
  <advance width="540"/>
  <unicode hex="1CF5"/>
  <outline>
    <contour>
      <point x="94" y="-10" type="line"/>
      <point x="478" y="568" type="line"/>
      <point x="426" y="620" type="line"/>
      <point x="419" y="620" type="line"/>
      <point x="35" y="42" type="line"/>
      <point x="87" y="-10" type="line"/>
    </contour>
    <contour>
      <point x="482" y="0" type="line"/>
      <point x="280" y="316" type="line"/>
      <point x="249" y="282" type="line"/>
      <point x="427" y="-12" type="line"/>
    </contour>
    <contour>
      <point x="278" y="326" type="line"/>
      <point x="100" y="620" type="line"/>
      <point x="45" y="608" type="line"/>
      <point x="247" y="292" type="line"/>
    </contour>
  </outline>
  <guideline angle="90" x="40" y="0"/>
  <guideline angle="90" x="473" y="0"/>
</glyph>
<glyph name="vAtikrama" format="2">
  <advance width="253"/>
  <unicode hex="1CF7"/>
  <outline>
    <contour>
      <point x="167" y="-244" type="line"/>
      <point x="151" y="636" type="line" smooth="yes"/>
      <point x="150" y="672"/>
      <point x="150" y="676"/>
      <point x="150" y="680" type="curve" smooth="yes"/>
      <point x="150" y="711"/>
      <point x="157" y="769"/>
      <point x="235" y="769" type="curve" smooth="yes"/>
      <point x="253" y="769"/>
      <point x="283" y="768"/>
      <point x="318" y="765" type="curve"/>
      <point x="318" y="772" type="line"/>
      <point x="270" y="843" type="line"/>
      <point x="137" y="843"/>
      <point x="94" y="741"/>
      <point x="94" y="628" type="curve" smooth="yes"/>
      <point x="92" y="-197" type="line"/>
      <point x="156" y="-244" type="line"/>
    </contour>
  </outline>
  <guideline angle="0" x="0" y="375"/>
  <guideline angle="100.819" x="200" y="0"/>
</glyph>
<glyph name="flowerpunc" format="2">
  <advance width="595"/>
  <unicode hex="2055"/>
  <outline>
    <contour>
      <point x="295" y="36" type="curve" smooth="yes"/>
      <point x="321" y="36"/>
      <point x="337" y="56"/>
      <point x="337" y="81" type="curve" smooth="yes"/>
      <point x="337" y="112"/>
      <point x="313" y="169"/>
      <point x="304" y="227" type="curve"/>
      <point x="310" y="228"/>
      <point x="315" y="230"/>
      <point x="320" y="233" type="curve"/>
      <point x="369" y="167"/>
      <point x="386" y="92"/>
      <point x="432" y="92" type="curve" smooth="yes"/>
      <point x="456" y="92"/>
      <point x="474" y="113"/>
      <point x="474" y="134" type="curve" smooth="yes"/>
      <point x="474" y="145"/>
      <point x="468" y="157"/>
      <point x="459" y="166" type="curve" smooth="yes"/>
      <point x="436" y="190"/>
      <point x="379" y="211"/>
      <point x="333" y="246" type="curve"/>
      <point x="336" y="250"/>
      <point x="338" y="256"/>
      <point x="339" y="262" type="curve"/>
      <point x="396" y="253"/>
      <point x="453" y="229"/>
      <point x="485" y="229" type="curve" smooth="yes"/>
      <point x="510" y="229"/>
      <point x="530" y="245"/>
      <point x="530" y="271" type="curve" smooth="yes"/>
      <point x="530" y="297"/>
      <point x="510" y="313"/>
      <point x="485" y="313" type="curve" smooth="yes"/>
      <point x="453" y="313"/>
      <point x="396" y="289"/>
      <point x="339" y="280" type="curve"/>
      <point x="338" y="286"/>
      <point x="335" y="291"/>
      <point x="332" y="296" type="curve"/>
      <point x="397" y="345"/>
      <point x="474" y="363"/>
      <point x="474" y="408" type="curve" smooth="yes"/>
      <point x="474" y="429"/>
      <point x="456" y="450"/>
      <point x="433" y="450" type="curve" smooth="yes"/>
      <point x="421" y="450"/>
      <point x="409" y="444"/>
      <point x="400" y="435" type="curve" smooth="yes"/>
      <point x="376" y="411"/>
      <point x="354" y="355"/>
      <point x="320" y="309" type="curve"/>
      <point x="315" y="312"/>
      <point x="310" y="314"/>
      <point x="304" y="315" type="curve"/>
      <point x="313" y="372"/>
      <point x="337" y="429"/>
      <point x="337" y="461" type="curve" smooth="yes"/>
      <point x="337" y="486"/>
      <point x="321" y="506"/>
      <point x="295" y="506" type="curve" smooth="yes"/>
      <point x="269" y="506"/>
      <point x="253" y="486"/>
      <point x="253" y="461" type="curve" smooth="yes"/>
      <point x="253" y="429"/>
      <point x="277" y="372"/>
      <point x="286" y="315" type="curve"/>
      <point x="280" y="314"/>
      <point x="274" y="312"/>
      <point x="270" y="309" type="curve"/>
      <point x="220" y="374"/>
      <point x="203" y="450"/>
      <point x="158" y="450" type="curve" smooth="yes"/>
      <point x="134" y="450"/>
      <point x="116" y="429"/>
      <point x="116" y="408" type="curve" smooth="yes"/>
      <point x="116" y="397"/>
      <point x="121" y="385"/>
      <point x="131" y="376" type="curve" smooth="yes"/>
      <point x="154" y="354"/>
      <point x="210" y="331"/>
      <point x="257" y="296" type="curve"/>
      <point x="254" y="291"/>
      <point x="252" y="286"/>
      <point x="251" y="280" type="curve"/>
      <point x="193" y="289"/>
      <point x="136" y="313"/>
      <point x="105" y="313" type="curve" smooth="yes"/>
      <point x="80" y="313"/>
      <point x="60" y="297"/>
      <point x="60" y="271" type="curve" smooth="yes"/>
      <point x="60" y="245"/>
      <point x="80" y="229"/>
      <point x="105" y="229" type="curve" smooth="yes"/>
      <point x="136" y="229"/>
      <point x="193" y="253"/>
      <point x="251" y="262" type="curve"/>
      <point x="252" y="256"/>
      <point x="254" y="251"/>
      <point x="257" y="246" type="curve"/>
      <point x="192" y="196"/>
      <point x="116" y="179"/>
      <point x="116" y="134" type="curve" smooth="yes"/>
      <point x="116" y="113"/>
      <point x="134" y="92"/>
      <point x="158" y="92" type="curve" smooth="yes"/>
      <point x="169" y="92"/>
      <point x="181" y="97"/>
      <point x="190" y="107" type="curve" smooth="yes"/>
      <point x="212" y="130"/>
      <point x="235" y="186"/>
      <point x="270" y="233" type="curve"/>
      <point x="274" y="230"/>
      <point x="280" y="228"/>
      <point x="286" y="227" type="curve"/>
      <point x="277" y="169"/>
      <point x="253" y="112"/>
      <point x="253" y="81" type="curve" smooth="yes"/>
      <point x="253" y="56"/>
      <point x="269" y="36"/>
    </contour>
  </outline>
  <guideline angle="90" x="305" y="0"/>
</glyph>
<glyph name="bAuMarkReph" format="2">
  <advance width="247"/>
  <outline>
    <contour>
      <point x="166" y="602" type="line"/>
      <point x="165" y="725"/>
      <point x="84" y="785"/>
      <point x="-25" y="785" type="curve" smooth="yes"/>
      <point x="-100" y="785"/>
      <point x="-210" y="776"/>
      <point x="-301" y="776" type="curve" smooth="yes"/>
      <point x="-367" y="776"/>
      <point x="-405" y="791"/>
      <point x="-405" y="830" type="curve" smooth="yes"/>
      <point x="-405" y="843"/>
      <point x="-401" y="858"/>
      <point x="-389" y="876" type="curve"/>
      <point x="-413" y="896" type="line"/>
      <point x="-421" y="896" type="line"/>
      <point x="-441" y="873"/>
      <point x="-449" y="845"/>
      <point x="-449" y="821" type="curve" smooth="yes"/>
      <point x="-449" y="754"/>
      <point x="-386" y="697"/>
      <point x="-268" y="697" type="curve" smooth="yes"/>
      <point x="-196" y="697"/>
      <point x="-136" y="709"/>
      <point x="15" y="709" type="curve" smooth="yes"/>
      <point x="83" y="709"/>
      <point x="117" y="682"/>
      <point x="117" y="655" type="curve" smooth="yes"/>
      <point x="117" y="641"/>
      <point x="109" y="623"/>
      <point x="88" y="602" type="curve"/>
    </contour>
    <contour>
      <point x="174" y="-43" type="line"/>
      <point x="166" y="568" type="line"/>
      <point x="97" y="568" type="line"/>
      <point x="95" y="10" type="line"/>
      <point x="163" y="-43" type="line"/>
    </contour>
    <contour>
      <point x="257" y="552" type="line"/>
      <point x="257" y="560" type="line"/>
      <point x="197" y="620" type="line"/>
      <point x="-50" y="620" type="line"/>
      <point x="-50" y="612" type="line"/>
      <point x="10" y="552" type="line"/>
    </contour>
    <contour>
      <point x="177" y="911" type="line"/>
      <point x="177" y="915" type="line"/>
      <point x="155" y="921" type="line"/>
      <point x="-114" y="748" type="line"/>
      <point x="-20" y="734" type="line"/>
    </contour>
  </outline>
</glyph>
<glyph name="bBJa" format="2">
  <advance width="927"/>
  <outline>
    <contour>
      <point x="476" y="-4" type="curve" smooth="yes"/>
      <point x="572" y="-4"/>
      <point x="662" y="51"/>
      <point x="662" y="165" type="curve" smooth="yes"/>
      <point x="662" y="238"/>
      <point x="624" y="299"/>
      <point x="558" y="335" type="curve"/>
      <point x="553" y="334" type="line"/>
      <point x="514" y="294"/>
      <point x="480" y="271"/>
      <point x="458" y="271" type="curve" smooth="yes"/>
      <point x="446" y="271"/>
      <point x="442" y="278"/>
      <point x="442" y="289" type="curve" smooth="yes"/>
      <point x="442" y="568" type="line"/>
      <point x="369" y="568" type="line"/>
      <point x="369" y="362" type="line" smooth="yes"/>
      <point x="369" y="327"/>
      <point x="374" y="307"/>
      <point x="378" y="292" type="curve"/>
      <point x="422" y="220" type="line"/>
      <point x="446" y="199"/>
      <point x="462" y="188"/>
      <point x="483" y="188" type="curve" smooth="yes"/>
      <point x="518" y="188"/>
      <point x="565" y="224"/>
      <point x="592" y="251" type="curve"/>
      <point x="606" y="232"/>
      <point x="613" y="213"/>
      <point x="613" y="193" type="curve" smooth="yes"/>
      <point x="613" y="132"/>
      <point x="539" y="89"/>
      <point x="454" y="89" type="curve" smooth="yes"/>
      <point x="284" y="89"/>
      <point x="144" y="201"/>
      <point x="63" y="477" type="curve"/>
      <point x="33" y="486" type="line"/>
      <point x="23" y="486" type="line"/>
      <point x="68" y="255"/>
      <point x="219" y="-4"/>
    </contour>
    <contour>
      <point x="392" y="300" type="line"/>
      <point x="374" y="294" type="line"/>
      <point x="336" y="338"/>
      <point x="272" y="365"/>
      <point x="233" y="378" type="curve"/>
      <point x="232" y="382" type="line"/>
      <point x="282" y="412"/>
      <point x="333" y="436"/>
      <point x="384" y="457" type="curve"/>
      <point x="384" y="537" type="line"/>
      <point x="290" y="495"/>
      <point x="206" y="452"/>
      <point x="129" y="408" type="curve"/>
      <point x="195" y="325" type="line"/>
      <point x="320" y="309"/>
      <point x="372" y="263"/>
      <point x="422" y="220" type="curve"/>
    </contour>
    <contour>
      <point x="783" y="-65" type="line"/>
      <point x="770" y="-3"/>
      <point x="761" y="61"/>
      <point x="761" y="114" type="curve" smooth="yes"/>
      <point x="761" y="212"/>
      <point x="792" y="300"/>
      <point x="886" y="374" type="curve"/>
      <point x="886" y="380" type="line"/>
      <point x="773" y="469" type="line"/>
      <point x="729" y="449"/>
      <point x="687" y="440"/>
      <point x="645" y="440" type="curve" smooth="yes"/>
      <point x="565" y="440"/>
      <point x="490" y="474"/>
      <point x="429" y="539" type="curve"/>
      <point x="429" y="496" type="line"/>
      <point x="497" y="419"/>
      <point x="574" y="368"/>
      <point x="682" y="368" type="curve" smooth="yes"/>
      <point x="703" y="368"/>
      <point x="731" y="371"/>
      <point x="757" y="377" type="curve"/>
      <point x="760" y="375" type="line"/>
      <point x="717" y="315"/>
      <point x="703" y="243"/>
      <point x="703" y="177" type="curve" smooth="yes"/>
      <point x="703" y="103"/>
      <point x="719" y="24"/>
      <point x="743" y="-47" type="curve"/>
      <point x="772" y="-65" type="line"/>
    </contour>
    <contour>
      <point x="937" y="552" type="line"/>
      <point x="937" y="560" type="line"/>
      <point x="877" y="620" type="line"/>
      <point x="-50" y="620" type="line"/>
      <point x="-50" y="612" type="line"/>
      <point x="10" y="552" type="line"/>
    </contour>
  </outline>
</glyph>
<glyph name="bBLa" format="2">
  <advance width="569"/>
  <outline>
    <contour>
      <point x="436" y="193" type="line"/>
      <point x="420" y="182" type="line"/>
      <point x="349" y="273"/>
      <point x="266" y="312"/>
      <point x="191" y="334" type="curve"/>
      <point x="191" y="336" type="line"/>
      <point x="268" y="374"/>
      <point x="347" y="407"/>
      <point x="430" y="436" type="curve"/>
      <point x="427" y="527" type="line"/>
      <point x="326" y="492"/>
      <point x="167" y="423"/>
      <point x="54" y="363" type="curve"/>
      <point x="134" y="263" type="line"/>
      <point x="323" y="251"/>
      <point x="422" y="180"/>
      <point x="454" y="22" type="curve"/>
    </contour>
    <contour>
      <point x="171" y="-77" type="curve" smooth="yes"/>
      <point x="229" y="-77"/>
      <point x="254" y="-43"/>
      <point x="254" y="-13" type="curve" smooth="yes"/>
      <point x="254" y="13"/>
      <point x="235" y="38"/>
      <point x="204" y="38" type="curve" smooth="yes"/>
      <point x="175" y="38"/>
      <point x="156" y="17"/>
      <point x="156" y="-5" type="curve" smooth="yes"/>
      <point x="156" y="-15"/>
      <point x="160" y="-26"/>
      <point x="169" y="-34" type="curve"/>
      <point x="168" y="-36" type="line"/>
      <point x="128" y="-36"/>
      <point x="108" y="-5"/>
      <point x="108" y="25" type="curve" smooth="yes"/>
      <point x="108" y="64"/>
      <point x="144" y="92"/>
      <point x="190" y="92" type="curve" smooth="yes"/>
      <point x="238" y="92"/>
      <point x="284" y="60"/>
      <point x="308" y="9" type="curve"/>
      <point x="290" y="81" type="line"/>
      <point x="257" y="122"/>
      <point x="218" y="164"/>
      <point x="158" y="164" type="curve" smooth="yes"/>
      <point x="92" y="164"/>
      <point x="38" y="115"/>
      <point x="38" y="50" type="curve" smooth="yes"/>
      <point x="38" y="-17"/>
      <point x="96" y="-77"/>
    </contour>
    <contour>
      <point x="461" y="60" type="line"/>
      <point x="443" y="54" type="line"/>
      <point x="409" y="121"/>
      <point x="377" y="152"/>
      <point x="341" y="152" type="curve" smooth="yes"/>
      <point x="306" y="152"/>
      <point x="285" y="127"/>
      <point x="276" y="75" type="curve"/>
      <point x="308" y="9" type="line"/>
      <point x="329" y="-1" type="line"/>
      <point x="335" y="1" type="line"/>
      <point x="334" y="8"/>
      <point x="334" y="13"/>
      <point x="334" y="14" type="curve"/>
      <point x="334" y="66"/>
      <point x="352" y="83"/>
      <point x="372" y="83" type="curve" smooth="yes"/>
      <point x="393" y="83"/>
      <point x="424" y="63"/>
      <point x="455" y="-65" type="curve"/>
    </contour>
    <contour>
      <point x="497" y="-83" type="line"/>
      <point x="494" y="18"/>
      <point x="494" y="82"/>
      <point x="494" y="158" type="curve" smooth="yes"/>
      <point x="494" y="568" type="line"/>
      <point x="415" y="568" type="line"/>
      <point x="415" y="460" type="line" smooth="yes"/>
      <point x="415" y="290"/>
      <point x="415" y="214"/>
      <point x="425" y="174" type="curve"/>
      <point x="442" y="121" type="line"/>
      <point x="455" y="-65" type="line"/>
      <point x="486" y="-83" type="line"/>
    </contour>
    <contour>
      <point x="579" y="552" type="line"/>
      <point x="579" y="560" type="line"/>
      <point x="519" y="620" type="line"/>
      <point x="-50" y="620" type="line"/>
      <point x="-50" y="612" type="line"/>
      <point x="10" y="552" type="line"/>
    </contour>
  </outline>
</glyph>
<glyph name="bBhBa" format="2">
  <advance width="542"/>
  <outline>
    <contour>
      <point x="413" y="37" type="line"/>
      <point x="397" y="26" type="line"/>
      <point x="352" y="79"/>
      <point x="275" y="120"/>
      <point x="227" y="136" type="curve"/>
      <point x="226" y="139" type="line"/>
      <point x="280" y="176"/>
      <point x="346" y="209"/>
      <point x="402" y="235" type="curve"/>
      <point x="402" y="322" type="line"/>
      <point x="305" y="278"/>
      <point x="214" y="230"/>
      <point x="100" y="156" type="curve"/>
      <point x="173" y="66" type="line"/>
      <point x="309" y="59"/>
      <point x="395" y="-4"/>
      <point x="433" y="-72" type="curve"/>
    </contour>
    <contour>
      <point x="472" y="-89" type="line"/>
      <point x="468" y="-9"/>
      <point x="467" y="36"/>
      <point x="467" y="88" type="curve" smooth="yes"/>
      <point x="467" y="382" type="line" smooth="yes"/>
      <point x="467" y="427"/>
      <point x="438" y="480"/>
      <point x="349" y="513" type="curve"/>
      <point x="389" y="419" type="line"/>
      <point x="389" y="252" type="line" smooth="yes"/>
      <point x="389" y="141"/>
      <point x="391" y="48"/>
      <point x="402" y="22" type="curve"/>
      <point x="433" y="-72" type="line"/>
      <point x="461" y="-89" type="line"/>
    </contour>
    <contour>
      <point x="185" y="301" type="curve" smooth="yes"/>
      <point x="270" y="301"/>
      <point x="342" y="347"/>
      <point x="386" y="418" type="curve"/>
      <point x="408" y="412" type="line"/>
      <point x="349" y="513" type="line"/>
      <point x="344" y="512" type="line"/>
      <point x="304" y="426"/>
      <point x="238" y="382"/>
      <point x="184" y="376" type="curve"/>
      <point x="182" y="379" type="line"/>
      <point x="198" y="394"/>
      <point x="205" y="412"/>
      <point x="205" y="432" type="curve" smooth="yes"/>
      <point x="205" y="482"/>
      <point x="167" y="506"/>
      <point x="126" y="506" type="curve" smooth="yes"/>
      <point x="81" y="506"/>
      <point x="35" y="474"/>
      <point x="35" y="418" type="curve" smooth="yes"/>
      <point x="35" y="355"/>
      <point x="90" y="301"/>
    </contour>
    <contour>
      <point x="552" y="552" type="line"/>
      <point x="552" y="560" type="line"/>
      <point x="492" y="620" type="line"/>
      <point x="-50" y="620" type="line"/>
      <point x="-50" y="612" type="line"/>
      <point x="10" y="552" type="line"/>
    </contour>
  </outline>
</glyph>
<glyph name="bBhLa" format="2">
  <advance width="602"/>
  <outline>
    <contour>
      <point x="245" y="295" type="curve" smooth="yes"/>
      <point x="330" y="295"/>
      <point x="400" y="339"/>
      <point x="444" y="410" type="curve"/>
      <point x="468" y="403" type="line"/>
      <point x="409" y="508" type="line"/>
      <point x="404" y="507" type="line"/>
      <point x="364" y="421"/>
      <point x="299" y="376"/>
      <point x="246" y="370" type="curve"/>
      <point x="244" y="373" type="line"/>
      <point x="260" y="388"/>
      <point x="267" y="406"/>
      <point x="267" y="426" type="curve" smooth="yes"/>
      <point x="267" y="476"/>
      <point x="227" y="501"/>
      <point x="186" y="501" type="curve" smooth="yes"/>
      <point x="141" y="501"/>
      <point x="95" y="469"/>
      <point x="95" y="413" type="curve" smooth="yes"/>
      <point x="95" y="350"/>
      <point x="150" y="295"/>
    </contour>
    <contour>
      <point x="183" y="-22" type="curve" smooth="yes"/>
      <point x="241" y="-22"/>
      <point x="268" y="13"/>
      <point x="268" y="44" type="curve" smooth="yes"/>
      <point x="268" y="72"/>
      <point x="248" y="98"/>
      <point x="214" y="98" type="curve" smooth="yes"/>
      <point x="188" y="98"/>
      <point x="165" y="82"/>
      <point x="165" y="53" type="curve" smooth="yes"/>
      <point x="165" y="41"/>
      <point x="169" y="30"/>
      <point x="179" y="21" type="curve"/>
      <point x="178" y="19" type="line"/>
      <point x="138" y="19"/>
      <point x="117" y="48"/>
      <point x="117" y="83" type="curve" smooth="yes"/>
      <point x="117" y="126"/>
      <point x="152" y="162"/>
      <point x="201" y="162" type="curve" smooth="yes"/>
      <point x="247" y="162"/>
      <point x="296" y="132"/>
      <point x="320" y="81" type="curve"/>
      <point x="300" y="155" type="line"/>
      <point x="271" y="195"/>
      <point x="225" y="237"/>
      <point x="166" y="237" type="curve" smooth="yes"/>
      <point x="98" y="237"/>
      <point x="45" y="180"/>
      <point x="45" y="113" type="curve" smooth="yes"/>
      <point x="45" y="41"/>
      <point x="104" y="-22"/>
    </contour>
    <contour>
      <point x="474" y="143" type="line"/>
      <point x="458" y="135" type="line"/>
      <point x="430" y="194"/>
      <point x="393" y="232"/>
      <point x="355" y="232" type="curve" smooth="yes"/>
      <point x="323" y="232"/>
      <point x="298" y="205"/>
      <point x="287" y="152" type="curve"/>
      <point x="320" y="81" type="line"/>
      <point x="341" y="71" type="line"/>
      <point x="347" y="73" type="line"/>
      <point x="346" y="80"/>
      <point x="346" y="85"/>
      <point x="346" y="86" type="curve"/>
      <point x="346" y="138"/>
      <point x="363" y="159"/>
      <point x="384" y="159" type="curve" smooth="yes"/>
      <point x="410" y="159"/>
      <point x="452" y="130"/>
      <point x="491" y="-37" type="curve"/>
    </contour>
    <contour>
      <point x="533" y="-55" type="line"/>
      <point x="528" y="42"/>
      <point x="527" y="158"/>
      <point x="527" y="250" type="curve" smooth="yes"/>
      <point x="527" y="377" type="line" smooth="yes"/>
      <point x="527" y="422"/>
      <point x="498" y="475"/>
      <point x="409" y="508" type="curve"/>
      <point x="447" y="411" type="line"/>
      <point x="447" y="324" type="line"/>
      <point x="448" y="209"/>
      <point x="454" y="161"/>
      <point x="462" y="128" type="curve"/>
      <point x="491" y="-37" type="line"/>
      <point x="522" y="-55" type="line"/>
    </contour>
    <contour>
      <point x="612" y="552" type="line"/>
      <point x="612" y="560" type="line"/>
      <point x="552" y="620" type="line"/>
      <point x="-50" y="620" type="line"/>
      <point x="-50" y="612" type="line"/>
      <point x="10" y="552" type="line"/>
    </contour>
  </outline>
</glyph>
<glyph name="bBhRa" format="2">
  <advance width="670"/>
  <outline>
    <contour>
      <point x="541" y="106" type="line"/>
      <point x="525" y="98" type="line"/>
      <point x="471" y="157"/>
      <point x="420" y="168"/>
      <point x="361" y="168" type="curve" smooth="yes"/>
      <point x="321" y="168"/>
      <point x="271" y="163"/>
      <point x="235" y="163" type="curve" smooth="yes"/>
      <point x="127" y="163"/>
      <point x="83" y="208"/>
      <point x="83" y="287" type="curve" smooth="yes"/>
      <point x="83" y="317"/>
      <point x="89" y="352"/>
      <point x="107" y="385" type="curve"/>
      <point x="84" y="400" type="line"/>
      <point x="75" y="400" type="line"/>
      <point x="50" y="361"/>
      <point x="35" y="309"/>
      <point x="35" y="262" type="curve" smooth="yes"/>
      <point x="35" y="146"/>
      <point x="124" y="76"/>
      <point x="250" y="76" type="curve" smooth="yes"/>
      <point x="300" y="76"/>
      <point x="367" y="87"/>
      <point x="422" y="87" type="curve" smooth="yes"/>
      <point x="502" y="87"/>
      <point x="533" y="62"/>
      <point x="560" y="-19" type="curve"/>
    </contour>
    <contour>
      <point x="319" y="295" type="curve" smooth="yes"/>
      <point x="404" y="295"/>
      <point x="468" y="339"/>
      <point x="512" y="410" type="curve"/>
      <point x="540" y="401" type="line"/>
      <point x="477" y="508" type="line"/>
      <point x="472" y="507" type="line"/>
      <point x="432" y="421"/>
      <point x="373" y="376"/>
      <point x="320" y="370" type="curve"/>
      <point x="318" y="373" type="line"/>
      <point x="334" y="388"/>
      <point x="341" y="406"/>
      <point x="341" y="426" type="curve" smooth="yes"/>
      <point x="341" y="476"/>
      <point x="301" y="501"/>
      <point x="260" y="501" type="curve" smooth="yes"/>
      <point x="215" y="501"/>
      <point x="169" y="469"/>
      <point x="169" y="413" type="curve" smooth="yes"/>
      <point x="169" y="350"/>
      <point x="224" y="295"/>
    </contour>
    <contour>
      <point x="599" y="-36" type="line"/>
      <point x="595" y="49"/>
      <point x="595" y="156"/>
      <point x="595" y="170" type="curve"/>
      <point x="595" y="377" type="line" smooth="yes"/>
      <point x="595" y="422"/>
      <point x="566" y="475"/>
      <point x="477" y="508" type="curve"/>
      <point x="515" y="411" type="line"/>
      <point x="515" y="324" type="line"/>
      <point x="515" y="186"/>
      <point x="524" y="112"/>
      <point x="528" y="95" type="curve"/>
      <point x="560" y="-19" type="line"/>
      <point x="588" y="-36" type="line"/>
    </contour>
    <contour>
      <point x="680" y="552" type="line"/>
      <point x="680" y="560" type="line"/>
      <point x="620" y="620" type="line"/>
      <point x="-50" y="620" type="line"/>
      <point x="-50" y="612" type="line"/>
      <point x="10" y="552" type="line"/>
    </contour>
  </outline>
</glyph>
<glyph name="bCBa" format="2">
  <advance width="523"/>
  <outline>
    <contour>
      <point x="298" y="47" type="line"/>
      <point x="373" y="89"/>
      <point x="474" y="196"/>
      <point x="474" y="328" type="curve" smooth="yes"/>
      <point x="474" y="356"/>
      <point x="459" y="370"/>
      <point x="440" y="387" type="curve" smooth="yes"/>
      <point x="417" y="407"/>
      <point x="409" y="416"/>
      <point x="387" y="422" type="curve" smooth="yes"/>
      <point x="310" y="442"/>
      <point x="206" y="444"/>
      <point x="182" y="567" type="curve"/>
      <point x="169" y="470" type="line"/>
      <point x="187" y="476" type="line"/>
      <point x="228" y="370"/>
      <point x="294" y="352"/>
      <point x="374" y="334" type="curve"/>
      <point x="380" y="325"/>
      <point x="381" y="315"/>
      <point x="381" y="305" type="curve" smooth="yes"/>
      <point x="381" y="218"/>
      <point x="263" y="107"/>
      <point x="213" y="107" type="curve" smooth="yes"/>
      <point x="191" y="107"/>
      <point x="184" y="123"/>
      <point x="184" y="160" type="curve" smooth="yes"/>
      <point x="184" y="571" type="line"/>
      <point x="107" y="571" type="line"/>
      <point x="107" y="186" type="line" smooth="yes"/>
      <point x="107" y="140"/>
      <point x="142" y="86"/>
      <point x="182" y="53" type="curve"/>
    </contour>
    <contour>
      <point x="354" y="-221" type="line"/>
      <point x="351" y="-156"/>
      <point x="351" y="-114"/>
      <point x="351" y="-65" type="curve" smooth="yes"/>
      <point x="351" y="107" type="line"/>
      <point x="248" y="107" type="line"/>
      <point x="185" y="79"/>
      <point x="110" y="42"/>
      <point x="33" y="-5" type="curve"/>
      <point x="102" y="-91" type="line"/>
      <point x="216" y="-102"/>
      <point x="291" y="-153"/>
      <point x="319" y="-206" type="curve"/>
      <point x="302" y="-116" type="line"/>
      <point x="289" y="-129" type="line"/>
      <point x="251" y="-81"/>
      <point x="193" y="-44"/>
      <point x="153" y="-30" type="curve"/>
      <point x="152" y="-27" type="line"/>
      <point x="193" y="-1"/>
      <point x="239" y="20"/>
      <point x="282" y="39" type="curve"/>
      <point x="282" y="-49"/>
      <point x="283" y="-112"/>
      <point x="294" y="-134" type="curve"/>
      <point x="319" y="-206" type="line"/>
      <point x="344" y="-221" type="line"/>
    </contour>
    <contour>
      <point x="533" y="552" type="line"/>
      <point x="533" y="560" type="line"/>
      <point x="473" y="620" type="line"/>
      <point x="-50" y="620" type="line"/>
      <point x="-50" y="612" type="line"/>
      <point x="10" y="552" type="line"/>
    </contour>
  </outline>
</glyph>
<glyph name="bCChBa" format="2">
  <advance width="925"/>
  <outline>
    <contour>
      <point x="669" y="133" type="line"/>
      <point x="761" y="151"/>
      <point x="863" y="216"/>
      <point x="863" y="326" type="curve" smooth="yes"/>
      <point x="863" y="443"/>
      <point x="738" y="489"/>
      <point x="687" y="489" type="curve" smooth="yes"/>
      <point x="670" y="489"/>
      <point x="642" y="484"/>
      <point x="621" y="484" type="curve" smooth="yes"/>
      <point x="540" y="484"/>
      <point x="490" y="518"/>
      <point x="482" y="568" type="curve"/>
      <point x="463" y="493" type="line"/>
      <point x="487" y="501" type="line"/>
      <point x="515" y="436"/>
      <point x="569" y="416"/>
      <point x="621" y="414" type="curve"/>
      <point x="678" y="410" type="line"/>
      <point x="698" y="419"/>
      <point x="716" y="422"/>
      <point x="735" y="422" type="curve" smooth="yes"/>
      <point x="770" y="422"/>
      <point x="802" y="399"/>
      <point x="802" y="357" type="curve" smooth="yes"/>
      <point x="802" y="277"/>
      <point x="676" y="193"/>
      <point x="531" y="193" type="curve" smooth="yes"/>
      <point x="499" y="193"/>
      <point x="471" y="197"/>
      <point x="440" y="204" type="curve"/>
      <point x="435" y="199" type="line"/>
    </contour>
    <contour>
      <point x="201" y="100" type="curve" smooth="yes"/>
      <point x="252" y="100"/>
      <point x="399" y="219"/>
      <point x="399" y="355" type="curve" smooth="yes"/>
      <point x="399" y="389"/>
      <point x="391" y="398"/>
      <point x="373" y="417" type="curve" smooth="yes"/>
      <point x="353" y="438"/>
      <point x="347" y="447"/>
      <point x="328" y="452" type="curve" smooth="yes"/>
      <point x="272" y="467"/>
      <point x="179" y="464"/>
      <point x="155" y="562" type="curve"/>
      <point x="143" y="471" type="line"/>
      <point x="161" y="477" type="line"/>
      <point x="191" y="399"/>
      <point x="247" y="382"/>
      <point x="305" y="368" type="curve"/>
      <point x="309" y="361"/>
      <point x="310" y="350"/>
      <point x="310" y="343" type="curve" smooth="yes"/>
      <point x="310" y="267"/>
      <point x="215" y="180"/>
      <point x="177" y="180" type="curve" smooth="yes"/>
      <point x="165" y="180"/>
      <point x="158" y="189"/>
      <point x="158" y="211" type="curve" smooth="yes"/>
      <point x="158" y="570" type="line"/>
      <point x="80" y="570" type="line"/>
      <point x="80" y="240" type="line" smooth="yes"/>
      <point x="80" y="177"/>
      <point x="159" y="100"/>
    </contour>
    <contour>
      <point x="817" y="-187" type="line"/>
      <point x="814" y="-122"/>
      <point x="814" y="-75"/>
      <point x="814" y="0" type="curve" smooth="yes"/>
      <point x="814" y="43" type="line"/>
      <point x="712" y="96" type="line"/>
      <point x="657" y="70"/>
      <point x="591" y="35"/>
      <point x="523" y="-7" type="curve"/>
      <point x="585" y="-84" type="line"/>
      <point x="685" y="-92"/>
      <point x="758" y="-131"/>
      <point x="778" y="-173" type="curve"/>
      <point x="763" y="-85" type="line"/>
      <point x="750" y="-98" type="line"/>
      <point x="721" y="-63"/>
      <point x="670" y="-35"/>
      <point x="635" y="-25" type="curve"/>
      <point x="634" y="-22" type="line"/>
      <point x="667" y="-1"/>
      <point x="709" y="20"/>
      <point x="743" y="35" type="curve"/>
      <point x="743" y="-21"/>
      <point x="744" y="-86"/>
      <point x="755" y="-103" type="curve"/>
      <point x="778" y="-173" type="line"/>
      <point x="807" y="-187" type="line"/>
    </contour>
    <contour>
      <point x="973" y="-100" type="line"/>
      <point x="959" y="-52" type="line"/>
      <point x="911" y="2"/>
      <point x="794" y="91"/>
      <point x="684" y="133" type="curve"/>
      <point x="684" y="152" type="line"/>
      <point x="435" y="199" type="line"/>
      <point x="489" y="100" type="line"/>
      <point x="663" y="93"/>
      <point x="801" y="27"/>
      <point x="966" y="-100" type="curve"/>
    </contour>
    <contour>
      <point x="532" y="250" type="curve" smooth="yes"/>
      <point x="596" y="250"/>
      <point x="689" y="322"/>
      <point x="689" y="425" type="curve"/>
      <point x="592" y="428" type="line"/>
      <point x="602" y="419"/>
      <point x="605" y="409"/>
      <point x="605" y="401" type="curve" smooth="yes"/>
      <point x="605" y="355"/>
      <point x="530" y="309"/>
      <point x="502" y="309" type="curve" smooth="yes"/>
      <point x="489" y="309"/>
      <point x="484" y="316"/>
      <point x="484" y="334" type="curve" smooth="yes"/>
      <point x="484" y="570" type="line"/>
      <point x="406" y="570" type="line"/>
      <point x="406" y="351" type="line" smooth="yes"/>
      <point x="406" y="303"/>
      <point x="473" y="250"/>
    </contour>
    <contour>
      <point x="935" y="552" type="line"/>
      <point x="935" y="560" type="line"/>
      <point x="875" y="620" type="line"/>
      <point x="-50" y="620" type="line"/>
      <point x="-50" y="612" type="line"/>
      <point x="10" y="552" type="line"/>
    </contour>
  </outline>
</glyph>
<glyph name="bCChRa" format="2">
  <advance width="925"/>
  <outline>
    <contour>
      <point x="669" y="133" type="line"/>
      <point x="761" y="150"/>
      <point x="863" y="216"/>
      <point x="863" y="326" type="curve" smooth="yes"/>
      <point x="863" y="443"/>
      <point x="738" y="489"/>
      <point x="687" y="489" type="curve" smooth="yes"/>
      <point x="670" y="489"/>
      <point x="642" y="484"/>
      <point x="621" y="484" type="curve" smooth="yes"/>
      <point x="540" y="484"/>
      <point x="490" y="518"/>
      <point x="482" y="569" type="curve"/>
      <point x="463" y="493" type="line"/>
      <point x="487" y="501" type="line"/>
      <point x="515" y="436"/>
      <point x="569" y="416"/>
      <point x="621" y="414" type="curve"/>
      <point x="678" y="410" type="line"/>
      <point x="698" y="419"/>
      <point x="716" y="422"/>
      <point x="735" y="422" type="curve" smooth="yes"/>
      <point x="770" y="422"/>
      <point x="802" y="399"/>
      <point x="802" y="357" type="curve" smooth="yes"/>
      <point x="802" y="277"/>
      <point x="674" y="193"/>
      <point x="531" y="193" type="curve" smooth="yes"/>
      <point x="499" y="193"/>
      <point x="471" y="197"/>
      <point x="440" y="204" type="curve"/>
      <point x="435" y="199" type="line"/>
    </contour>
    <contour>
      <point x="801" y="-115" type="line"/>
      <point x="783" y="-124" type="line"/>
      <point x="730" y="-70"/>
      <point x="665" y="-51"/>
      <point x="609" y="-51" type="curve" smooth="yes"/>
      <point x="563" y="-51"/>
      <point x="446" y="-65"/>
      <point x="380" y="-65" type="curve" smooth="yes"/>
      <point x="289" y="-65"/>
      <point x="257" y="-40"/>
      <point x="257" y="16" type="curve" smooth="yes"/>
      <point x="257" y="32"/>
      <point x="260" y="54"/>
      <point x="271" y="82" type="curve"/>
      <point x="249" y="96" type="line"/>
      <point x="240" y="96" type="line"/>
      <point x="219" y="56"/>
      <point x="212" y="21"/>
      <point x="212" y="-10" type="curve" smooth="yes"/>
      <point x="212" y="-97"/>
      <point x="279" y="-148"/>
      <point x="397" y="-148" type="curve" smooth="yes"/>
      <point x="466" y="-148"/>
      <point x="605" y="-130"/>
      <point x="678" y="-130" type="curve" smooth="yes"/>
      <point x="743" y="-130"/>
      <point x="787" y="-144"/>
      <point x="808" y="-210" type="curve"/>
    </contour>
    <contour>
      <point x="201" y="100" type="curve" smooth="yes"/>
      <point x="252" y="100"/>
      <point x="399" y="219"/>
      <point x="399" y="355" type="curve" smooth="yes"/>
      <point x="399" y="389"/>
      <point x="391" y="398"/>
      <point x="373" y="417" type="curve" smooth="yes"/>
      <point x="353" y="438"/>
      <point x="347" y="447"/>
      <point x="328" y="452" type="curve" smooth="yes"/>
      <point x="272" y="467"/>
      <point x="179" y="464"/>
      <point x="155" y="562" type="curve"/>
      <point x="143" y="471" type="line"/>
      <point x="161" y="477" type="line"/>
      <point x="191" y="399"/>
      <point x="247" y="382"/>
      <point x="305" y="368" type="curve"/>
      <point x="309" y="361"/>
      <point x="310" y="350"/>
      <point x="310" y="343" type="curve" smooth="yes"/>
      <point x="310" y="267"/>
      <point x="215" y="180"/>
      <point x="177" y="180" type="curve" smooth="yes"/>
      <point x="165" y="180"/>
      <point x="158" y="189"/>
      <point x="158" y="211" type="curve" smooth="yes"/>
      <point x="158" y="569" type="line"/>
      <point x="80" y="569" type="line"/>
      <point x="80" y="240" type="line" smooth="yes"/>
      <point x="80" y="177"/>
      <point x="159" y="100"/>
    </contour>
    <contour>
      <point x="847" y="-227" type="line"/>
      <point x="841" y="-112"/>
      <point x="840" y="-90"/>
      <point x="840" y="-71" type="curve" smooth="yes"/>
      <point x="840" y="14" type="line"/>
      <point x="784" y="38" type="line"/>
      <point x="787" y="-128" type="line"/>
      <point x="808" y="-210" type="line"/>
      <point x="836" y="-227" type="line"/>
    </contour>
    <contour>
      <point x="973" y="-100" type="line"/>
      <point x="959" y="-52" type="line"/>
      <point x="911" y="2"/>
      <point x="794" y="91"/>
      <point x="684" y="133" type="curve"/>
      <point x="684" y="152" type="line"/>
      <point x="435" y="199" type="line"/>
      <point x="489" y="100" type="line"/>
      <point x="663" y="93"/>
      <point x="801" y="27"/>
      <point x="966" y="-100" type="curve"/>
    </contour>
    <contour>
      <point x="532" y="250" type="curve" smooth="yes"/>
      <point x="596" y="250"/>
      <point x="689" y="322"/>
      <point x="689" y="425" type="curve"/>
      <point x="592" y="428" type="line"/>
      <point x="602" y="419"/>
      <point x="605" y="409"/>
      <point x="605" y="401" type="curve" smooth="yes"/>
      <point x="605" y="355"/>
      <point x="530" y="309"/>
      <point x="502" y="309" type="curve" smooth="yes"/>
      <point x="489" y="309"/>
      <point x="484" y="316"/>
      <point x="484" y="334" type="curve" smooth="yes"/>
      <point x="484" y="569" type="line"/>
      <point x="406" y="569" type="line"/>
      <point x="406" y="351" type="line" smooth="yes"/>
      <point x="406" y="303"/>
      <point x="473" y="250"/>
    </contour>
    <contour>
      <point x="935" y="552" type="line"/>
      <point x="935" y="560" type="line"/>
      <point x="875" y="620" type="line"/>
      <point x="-50" y="620" type="line"/>
      <point x="-50" y="612" type="line"/>
      <point x="10" y="552" type="line"/>
    </contour>
  </outline>
</glyph>
<glyph name="bCNa" format="2">
  <advance width="528"/>
  <outline>
    <contour>
      <point x="245" y="32" type="curve" smooth="yes"/>
      <point x="345" y="32"/>
      <point x="479" y="193"/>
      <point x="479" y="328" type="curve" smooth="yes"/>
      <point x="479" y="373"/>
      <point x="416" y="415"/>
      <point x="392" y="422" type="curve" smooth="yes"/>
      <point x="322" y="442"/>
      <point x="210" y="439"/>
      <point x="185" y="572" type="curve"/>
      <point x="174" y="470" type="line"/>
      <point x="192" y="476" type="line"/>
      <point x="233" y="370"/>
      <point x="299" y="352"/>
      <point x="379" y="334" type="curve"/>
      <point x="385" y="325"/>
      <point x="386" y="315"/>
      <point x="386" y="305" type="curve" smooth="yes"/>
      <point x="386" y="218"/>
      <point x="270" y="109"/>
      <point x="218" y="109" type="curve" smooth="yes"/>
      <point x="196" y="109"/>
      <point x="189" y="125"/>
      <point x="189" y="162" type="curve" smooth="yes"/>
      <point x="189" y="572" type="line"/>
      <point x="112" y="572" type="line"/>
      <point x="112" y="188" type="line" smooth="yes"/>
      <point x="112" y="134"/>
      <point x="175" y="32"/>
    </contour>
    <contour>
      <point x="336" y="-67" type="line"/>
      <point x="318" y="-73" type="line"/>
      <point x="264" y="2"/>
      <point x="194" y="23"/>
      <point x="140" y="23" type="curve" smooth="yes"/>
      <point x="66" y="23"/>
      <point x="27" y="-17"/>
      <point x="27" y="-68" type="curve" smooth="yes"/>
      <point x="27" y="-123"/>
      <point x="72" y="-151"/>
      <point x="115" y="-151" type="curve" smooth="yes"/>
      <point x="161" y="-151"/>
      <point x="188" y="-117"/>
      <point x="188" y="-77" type="curve" smooth="yes"/>
      <point x="188" y="-62"/>
      <point x="185" y="-46"/>
      <point x="175" y="-32" type="curve"/>
      <point x="176" y="-29" type="line"/>
      <point x="256" y="-32"/>
      <point x="332" y="-119"/>
      <point x="342" y="-177" type="curve"/>
    </contour>
    <contour>
      <point x="382" y="-195" type="line"/>
      <point x="378" y="-94"/>
      <point x="377" y="-30"/>
      <point x="377" y="46" type="curve" smooth="yes"/>
      <point x="377" y="114" type="line"/>
      <point x="310" y="94" type="line"/>
      <point x="310" y="27"/>
      <point x="316" y="-37"/>
      <point x="322" y="-81" type="curve"/>
      <point x="342" y="-177" type="line"/>
      <point x="371" y="-195" type="line"/>
    </contour>
    <contour>
      <point x="538" y="552" type="line"/>
      <point x="538" y="560" type="line"/>
      <point x="478" y="620" type="line"/>
      <point x="-50" y="620" type="line"/>
      <point x="-50" y="612" type="line"/>
      <point x="10" y="552" type="line"/>
    </contour>
  </outline>
</glyph>
<glyph name="bChRa" format="2">
  <advance width="638"/>
  <outline>
    <contour>
      <point x="686" y="-100" type="line"/>
      <point x="672" y="-52" type="line"/>
      <point x="624" y="2"/>
      <point x="507" y="91"/>
      <point x="397" y="133" type="curve"/>
      <point x="397" y="136" type="line"/>
      <point x="485" y="158"/>
      <point x="576" y="222"/>
      <point x="576" y="326" type="curve" smooth="yes"/>
      <point x="576" y="443"/>
      <point x="451" y="489"/>
      <point x="401" y="489" type="curve" smooth="yes"/>
      <point x="385" y="489"/>
      <point x="354" y="484"/>
      <point x="334" y="484" type="curve" smooth="yes"/>
      <point x="300" y="484"/>
      <point x="213" y="489"/>
      <point x="193" y="569" type="curve"/>
      <point x="182" y="495" type="line"/>
      <point x="200" y="501" type="line"/>
      <point x="228" y="436"/>
      <point x="284" y="417"/>
      <point x="327" y="415" type="curve"/>
      <point x="390" y="408" type="line"/>
      <point x="401" y="417"/>
      <point x="427" y="422"/>
      <point x="446" y="422" type="curve" smooth="yes"/>
      <point x="483" y="422"/>
      <point x="515" y="398"/>
      <point x="515" y="357" type="curve" smooth="yes"/>
      <point x="515" y="277"/>
      <point x="389" y="193"/>
      <point x="240" y="193" type="curve" smooth="yes"/>
      <point x="210" y="193"/>
      <point x="183" y="197"/>
      <point x="153" y="204" type="curve"/>
      <point x="148" y="199" type="line"/>
      <point x="202" y="100" type="line"/>
      <point x="376" y="93"/>
      <point x="514" y="27"/>
      <point x="679" y="-100" type="curve"/>
    </contour>
    <contour>
      <point x="524" y="-55" type="line"/>
      <point x="506" y="-64" type="line"/>
      <point x="453" y="-10"/>
      <point x="386" y="7"/>
      <point x="332" y="7" type="curve" smooth="yes"/>
      <point x="304" y="7"/>
      <point x="223" y="2"/>
      <point x="194" y="2" type="curve" smooth="yes"/>
      <point x="116" y="2"/>
      <point x="82" y="28"/>
      <point x="82" y="85" type="curve" smooth="yes"/>
      <point x="82" y="102"/>
      <point x="85" y="130"/>
      <point x="97" y="151" type="curve"/>
      <point x="75" y="165" type="line"/>
      <point x="66" y="165" type="line"/>
      <point x="47" y="136"/>
      <point x="35" y="96"/>
      <point x="35" y="61" type="curve" smooth="yes"/>
      <point x="35" y="-11"/>
      <point x="82" y="-81"/>
      <point x="209" y="-81" type="curve" smooth="yes"/>
      <point x="251" y="-81"/>
      <point x="345" y="-72"/>
      <point x="398" y="-72" type="curve" smooth="yes"/>
      <point x="465" y="-72"/>
      <point x="511" y="-84"/>
      <point x="531" y="-150" type="curve"/>
    </contour>
    <contour>
      <point x="570" y="-167" type="line"/>
      <point x="564" y="-52"/>
      <point x="563" y="-20"/>
      <point x="563" y="-1" type="curve"/>
      <point x="508" y="38" type="line"/>
      <point x="510" y="-67" type="line"/>
      <point x="531" y="-150" type="line"/>
      <point x="559" y="-167" type="line"/>
    </contour>
    <contour>
      <point x="244" y="250" type="curve" smooth="yes"/>
      <point x="314" y="250"/>
      <point x="412" y="334"/>
      <point x="400" y="432" type="curve"/>
      <point x="312" y="418" type="line"/>
      <point x="317" y="415"/>
      <point x="318" y="407"/>
      <point x="318" y="401" type="curve" smooth="yes"/>
      <point x="318" y="355"/>
      <point x="243" y="309"/>
      <point x="215" y="309" type="curve" smooth="yes"/>
      <point x="202" y="309"/>
      <point x="197" y="316"/>
      <point x="197" y="334" type="curve" smooth="yes"/>
      <point x="197" y="573" type="line"/>
      <point x="119" y="568" type="line"/>
      <point x="119" y="350" type="line" smooth="yes"/>
      <point x="119" y="304"/>
      <point x="185" y="250"/>
    </contour>
    <contour>
      <point x="648" y="552" type="line"/>
      <point x="648" y="560" type="line"/>
      <point x="588" y="620" type="line"/>
      <point x="-50" y="620" type="line"/>
      <point x="-50" y="612" type="line"/>
      <point x="10" y="552" type="line"/>
    </contour>
  </outline>
</glyph>
<glyph name="bDBa" format="2">
  <advance width="589"/>
  <outline>
    <contour>
      <point x="519" y="-78" type="line"/>
      <point x="515" y="2"/>
      <point x="514" y="47"/>
      <point x="514" y="99" type="curve" smooth="yes"/>
      <point x="514" y="369" type="line" smooth="yes"/>
      <point x="514" y="441"/>
      <point x="438" y="488"/>
      <point x="380" y="488" type="curve" smooth="yes"/>
      <point x="312" y="488"/>
      <point x="218" y="421"/>
      <point x="163" y="360" type="curve"/>
      <point x="161" y="361" type="line"/>
      <point x="161" y="568" type="line"/>
      <point x="81" y="568" type="line"/>
      <point x="81" y="317" type="line"/>
      <point x="164" y="236" type="line"/>
      <point x="170" y="236" type="line"/>
      <point x="247" y="340"/>
      <point x="367" y="422"/>
      <point x="418" y="422" type="curve" smooth="yes"/>
      <point x="438" y="422"/>
      <point x="440" y="410"/>
      <point x="440" y="386" type="curve" smooth="yes"/>
      <point x="440" y="262" type="line" smooth="yes"/>
      <point x="440" y="151"/>
      <point x="442" y="58"/>
      <point x="453" y="32" type="curve"/>
      <point x="480" y="-61" type="line"/>
      <point x="508" y="-78" type="line"/>
    </contour>
    <contour>
      <point x="464" y="47" type="line"/>
      <point x="448" y="36" type="line"/>
      <point x="403" y="89"/>
      <point x="332" y="132"/>
      <point x="284" y="148" type="curve"/>
      <point x="283" y="151" type="line"/>
      <point x="337" y="188"/>
      <point x="397" y="219"/>
      <point x="454" y="246" type="curve"/>
      <point x="454" y="332" type="line"/>
      <point x="356" y="288"/>
      <point x="271" y="243"/>
      <point x="157" y="168" type="curve"/>
      <point x="230" y="78" type="line"/>
      <point x="366" y="71"/>
      <point x="442" y="7"/>
      <point x="480" y="-61" type="curve"/>
    </contour>
    <contour>
      <point x="599" y="552" type="line"/>
      <point x="599" y="560" type="line"/>
      <point x="539" y="620" type="line"/>
      <point x="-50" y="620" type="line"/>
      <point x="-50" y="612" type="line"/>
      <point x="10" y="552" type="line"/>
    </contour>
  </outline>
</glyph>
<glyph name="bDBhRa" format="2">
  <advance width="607"/>
  <outline>
    <contour>
      <point x="518" y="-91" type="line"/>
      <point x="502" y="-99" type="line"/>
      <point x="453" y="-44"/>
      <point x="405" y="-33"/>
      <point x="349" y="-33" type="curve" smooth="yes"/>
      <point x="309" y="-33"/>
      <point x="263" y="-39"/>
      <point x="228" y="-39" type="curve" smooth="yes"/>
      <point x="125" y="-39"/>
      <point x="83" y="7"/>
      <point x="83" y="86" type="curve" smooth="yes"/>
      <point x="83" y="116"/>
      <point x="89" y="151"/>
      <point x="107" y="183" type="curve"/>
      <point x="84" y="198" type="line"/>
      <point x="75" y="198" type="line"/>
      <point x="50" y="160"/>
      <point x="35" y="109"/>
      <point x="35" y="60" type="curve" smooth="yes"/>
      <point x="35" y="-54"/>
      <point x="121" y="-125"/>
      <point x="242" y="-125" type="curve" smooth="yes"/>
      <point x="290" y="-125"/>
      <point x="355" y="-114"/>
      <point x="406" y="-114" type="curve" smooth="yes"/>
      <point x="483" y="-114"/>
      <point x="515" y="-139"/>
      <point x="537" y="-208" type="curve"/>
    </contour>
    <contour>
      <point x="336" y="44" type="curve" smooth="yes"/>
      <point x="402" y="44"/>
      <point x="456" y="76"/>
      <point x="491" y="122" type="curve"/>
      <point x="512" y="113" type="line"/>
      <point x="477" y="239" type="line"/>
      <point x="444" y="158"/>
      <point x="383" y="124"/>
      <point x="338" y="118" type="curve"/>
      <point x="337" y="120" type="line"/>
      <point x="344" y="132"/>
      <point x="348" y="145"/>
      <point x="348" y="157" type="curve" smooth="yes"/>
      <point x="348" y="196"/>
      <point x="318" y="215"/>
      <point x="287" y="215" type="curve" smooth="yes"/>
      <point x="252" y="215"/>
      <point x="213" y="190"/>
      <point x="213" y="143" type="curve" smooth="yes"/>
      <point x="213" y="91"/>
      <point x="261" y="44"/>
    </contour>
    <contour>
      <point x="576" y="-225" type="line"/>
      <point x="572" y="-140"/>
      <point x="572" y="-33"/>
      <point x="572" y="-19" type="curve" smooth="yes"/>
      <point x="572" y="113" type="line" smooth="yes"/>
      <point x="572" y="157"/>
      <point x="545" y="206"/>
      <point x="481" y="240" type="curve"/>
      <point x="477" y="239" type="line"/>
      <point x="493" y="137" type="line"/>
      <point x="493" y="89" type="line" smooth="yes"/>
      <point x="493" y="-9"/>
      <point x="501" y="-88"/>
      <point x="505" y="-103" type="curve"/>
      <point x="537" y="-208" type="line"/>
      <point x="565" y="-225" type="line"/>
    </contour>
    <contour>
      <point x="457" y="175" type="line"/>
      <point x="438" y="180" type="line"/>
      <point x="436" y="196"/>
      <point x="435" y="202"/>
      <point x="435" y="215" type="curve" smooth="yes"/>
      <point x="435" y="321"/>
      <point x="483" y="388"/>
      <point x="535" y="441" type="curve"/>
      <point x="535" y="447" type="line"/>
      <point x="429" y="523" type="line"/>
      <point x="345" y="478"/>
      <point x="255" y="405"/>
      <point x="201" y="356" type="curve"/>
      <point x="199" y="357" type="line"/>
      <point x="199" y="568" type="line"/>
      <point x="119" y="568" type="line"/>
      <point x="119" y="304" type="line"/>
      <point x="195" y="229" type="line"/>
      <point x="201" y="229" type="line"/>
      <point x="249" y="286"/>
      <point x="306" y="352"/>
      <point x="402" y="412" type="curve"/>
      <point x="405" y="409" type="line"/>
      <point x="387" y="366"/>
      <point x="379" y="320"/>
      <point x="379" y="276" type="curve" smooth="yes"/>
      <point x="379" y="228"/>
      <point x="388" y="192"/>
      <point x="406" y="129" type="curve"/>
    </contour>
    <contour>
      <point x="617" y="552" type="line"/>
      <point x="617" y="560" type="line"/>
      <point x="557" y="620" type="line"/>
      <point x="-50" y="620" type="line"/>
      <point x="-50" y="612" type="line"/>
      <point x="10" y="552" type="line"/>
    </contour>
  </outline>
</glyph>
<glyph name="bDBha" format="2">
  <advance width="702"/>
  <outline>
    <contour>
      <point x="440" y="-83" type="curve" smooth="yes"/>
      <point x="585" y="-83"/>
      <point x="659" y="7"/>
      <point x="659" y="106" type="curve" smooth="yes"/>
      <point x="659" y="173"/>
      <point x="626" y="244"/>
      <point x="552" y="290" type="curve"/>
      <point x="548" y="289" type="line"/>
      <point x="511" y="210"/>
      <point x="465" y="174"/>
      <point x="407" y="165" type="curve"/>
      <point x="406" y="167" type="line"/>
      <point x="413" y="180"/>
      <point x="417" y="192"/>
      <point x="417" y="205" type="curve" smooth="yes"/>
      <point x="417" y="242"/>
      <point x="387" y="262"/>
      <point x="356" y="262" type="curve" smooth="yes"/>
      <point x="321" y="262"/>
      <point x="282" y="237"/>
      <point x="282" y="190" type="curve" smooth="yes"/>
      <point x="282" y="138"/>
      <point x="329" y="91"/>
      <point x="407" y="91" type="curve" smooth="yes"/>
      <point x="479" y="91"/>
      <point x="540" y="131"/>
      <point x="583" y="201" type="curve"/>
      <point x="601" y="175"/>
      <point x="609" y="152"/>
      <point x="609" y="131" type="curve" smooth="yes"/>
      <point x="609" y="57"/>
      <point x="516" y="12"/>
      <point x="431" y="12" type="curve" smooth="yes"/>
      <point x="188" y="12"/>
      <point x="109" y="316"/>
      <point x="75" y="490" type="curve"/>
      <point x="45" y="499" type="line"/>
      <point x="35" y="499" type="line"/>
      <point x="99" y="42"/>
      <point x="269" y="-83"/>
    </contour>
    <contour>
      <point x="523" y="205" type="line"/>
      <point x="497" y="216" type="line"/>
      <point x="504" y="315"/>
      <point x="537" y="375"/>
      <point x="602" y="442" type="curve"/>
      <point x="602" y="448" type="line"/>
      <point x="498" y="523" type="line"/>
      <point x="414" y="478"/>
      <point x="324" y="405"/>
      <point x="270" y="356" type="curve"/>
      <point x="268" y="357" type="line"/>
      <point x="268" y="568" type="line"/>
      <point x="188" y="568" type="line"/>
      <point x="188" y="304" type="line"/>
      <point x="261" y="232" type="line"/>
      <point x="267" y="232" type="line"/>
      <point x="318" y="286"/>
      <point x="375" y="352"/>
      <point x="471" y="412" type="curve"/>
      <point x="474" y="409" type="line"/>
      <point x="455" y="362"/>
      <point x="446" y="315"/>
      <point x="446" y="269" type="curve" smooth="yes"/>
      <point x="446" y="238"/>
      <point x="450" y="207"/>
      <point x="459" y="176" type="curve"/>
    </contour>
    <contour>
      <point x="712" y="552" type="line"/>
      <point x="712" y="560" type="line"/>
      <point x="652" y="620" type="line"/>
      <point x="-50" y="620" type="line"/>
      <point x="-50" y="612" type="line"/>
      <point x="10" y="552" type="line"/>
    </contour>
  </outline>
</glyph>
<glyph name="bDDha" format="2">
  <advance width="739"/>
  <outline>
    <contour>
      <point x="524" y="-78" type="line"/>
      <point x="520" y="2"/>
      <point x="519" y="47"/>
      <point x="519" y="99" type="curve" smooth="yes"/>
      <point x="519" y="369" type="line" smooth="yes"/>
      <point x="519" y="441"/>
      <point x="443" y="488"/>
      <point x="385" y="488" type="curve" smooth="yes"/>
      <point x="317" y="488"/>
      <point x="223" y="421"/>
      <point x="168" y="360" type="curve"/>
      <point x="166" y="361" type="line"/>
      <point x="166" y="568" type="line"/>
      <point x="86" y="568" type="line"/>
      <point x="86" y="317" type="line"/>
      <point x="169" y="236" type="line"/>
      <point x="175" y="236" type="line"/>
      <point x="252" y="340"/>
      <point x="372" y="422"/>
      <point x="423" y="422" type="curve" smooth="yes"/>
      <point x="443" y="422"/>
      <point x="445" y="410"/>
      <point x="445" y="386" type="curve" smooth="yes"/>
      <point x="445" y="242" type="line" smooth="yes"/>
      <point x="445" y="141"/>
      <point x="448" y="56"/>
      <point x="458" y="32" type="curve"/>
      <point x="485" y="-61" type="line"/>
      <point x="513" y="-78" type="line"/>
    </contour>
    <contour>
      <point x="469" y="47" type="line"/>
      <point x="453" y="36" type="line"/>
      <point x="408" y="89"/>
      <point x="339" y="130"/>
      <point x="291" y="146" type="curve"/>
      <point x="290" y="149" type="line"/>
      <point x="392" y="216"/>
      <point x="497" y="267"/>
      <point x="604" y="317" type="curve"/>
      <point x="603" y="273"/>
      <point x="602" y="230"/>
      <point x="602" y="170" type="curve" smooth="yes"/>
      <point x="602" y="109"/>
      <point x="603" y="58"/>
      <point x="605" y="-3" type="curve"/>
      <point x="673" y="-61" type="line"/>
      <point x="679" y="-58" type="line"/>
      <point x="677" y="13"/>
      <point x="676" y="75"/>
      <point x="676" y="142" type="curve" smooth="yes"/>
      <point x="676" y="208"/>
      <point x="677" y="254"/>
      <point x="679" y="319" type="curve"/>
      <point x="590" y="397" type="line"/>
      <point x="431" y="322"/>
      <point x="334" y="268"/>
      <point x="162" y="168" type="curve"/>
      <point x="235" y="78" type="line"/>
      <point x="371" y="71"/>
      <point x="447" y="7"/>
      <point x="485" y="-61" type="curve"/>
    </contour>
    <contour>
      <point x="749" y="552" type="line"/>
      <point x="749" y="560" type="line"/>
      <point x="689" y="620" type="line"/>
      <point x="-50" y="620" type="line"/>
      <point x="-50" y="612" type="line"/>
      <point x="10" y="552" type="line"/>
    </contour>
  </outline>
</glyph>
<glyph name="bDGa" format="2">
  <advance width="1054"/>
  <outline>
    <contour>
      <point x="421" y="-35" type="line"/>
      <point x="411" y="23"/>
      <point x="405" y="85"/>
      <point x="405" y="138" type="curve" smooth="yes"/>
      <point x="405" y="241"/>
      <point x="427" y="332"/>
      <point x="503" y="402" type="curve"/>
      <point x="503" y="408" type="line"/>
      <point x="385" y="490" type="line"/>
      <point x="301" y="434"/>
      <point x="216" y="355"/>
      <point x="163" y="294" type="curve"/>
      <point x="161" y="295" type="line"/>
      <point x="161" y="568" type="line"/>
      <point x="81" y="568" type="line"/>
      <point x="81" y="235" type="line"/>
      <point x="164" y="154" type="line"/>
      <point x="170" y="154" type="line"/>
      <point x="218" y="221"/>
      <point x="273" y="303"/>
      <point x="368" y="370" type="curve"/>
      <point x="371" y="367" type="line"/>
      <point x="347" y="315"/>
      <point x="342" y="263"/>
      <point x="342" y="211" type="curve" smooth="yes"/>
      <point x="342" y="124"/>
      <point x="357" y="50"/>
      <point x="381" y="-17" type="curve"/>
      <point x="410" y="-35" type="line"/>
    </contour>
    <contour>
      <point x="509" y="552" type="line"/>
      <point x="509" y="560" type="line"/>
      <point x="449" y="620" type="line"/>
      <point x="-50" y="620" type="line"/>
      <point x="-50" y="612" type="line"/>
      <point x="10" y="552" type="line"/>
    </contour>
    <contour>
      <point x="981" y="-43" type="line"/>
      <point x="973" y="552" type="line"/>
      <point x="1064" y="552" type="line"/>
      <point x="1064" y="560" type="line"/>
      <point x="1004" y="620" type="line"/>
      <point x="904" y="620" type="line"/>
      <point x="904" y="608" type="line" smooth="yes"/>
      <point x="904" y="544"/>
      <point x="904" y="495"/>
      <point x="912" y="437" type="curve"/>
      <point x="903" y="305" type="line"/>
      <point x="903" y="272"/>
      <point x="902" y="88"/>
      <point x="902" y="10" type="curve"/>
      <point x="970" y="-43" type="line"/>
    </contour>
    <contour>
      <point x="603" y="430" type="curve" smooth="yes"/>
      <point x="603" y="477"/>
      <point x="653" y="544"/>
      <point x="733" y="544" type="curve" smooth="yes"/>
      <point x="873" y="544"/>
      <point x="903" y="356"/>
      <point x="903" y="305" type="curve"/>
      <point x="930" y="458" type="line"/>
      <point x="906" y="452" type="line"/>
      <point x="872" y="526"/>
      <point x="806" y="620"/>
      <point x="693" y="620" type="curve" smooth="yes"/>
      <point x="581" y="620"/>
      <point x="492" y="527"/>
      <point x="492" y="425" type="curve" smooth="yes"/>
      <point x="492" y="363"/>
      <point x="525" y="336"/>
      <point x="555" y="336" type="curve" smooth="yes"/>
      <point x="563" y="336"/>
      <point x="570" y="338"/>
      <point x="576" y="342" type="curve" smooth="yes"/>
      <point x="592" y="353"/>
      <point x="603" y="392"/>
    </contour>
    <contour>
      <point x="576" y="342" type="line"/>
      <point x="656" y="399"/>
      <point x="710" y="400"/>
      <point x="712" y="400" type="curve"/>
      <point x="734" y="400"/>
      <point x="746" y="388"/>
      <point x="746" y="368" type="curve" smooth="yes"/>
      <point x="746" y="335"/>
      <point x="715" y="280"/>
      <point x="615" y="207" type="curve"/>
      <point x="690" y="113" type="line"/>
      <point x="779" y="192"/>
      <point x="813" y="263"/>
      <point x="813" y="322" type="curve" smooth="yes"/>
      <point x="813" y="393"/>
      <point x="765" y="449"/>
      <point x="688" y="449" type="curve" smooth="yes"/>
      <point x="661" y="449"/>
      <point x="621" y="442"/>
      <point x="587" y="430" type="curve"/>
    </contour>
  </outline>
</glyph>
<glyph name="bDRa_bSignU" format="2">
  <advance width="883"/>
  <outline>
    <contour>
      <point x="536" y="-67" type="line"/>
      <point x="519" y="5"/>
      <point x="510" y="82"/>
      <point x="510" y="148" type="curve" smooth="yes"/>
      <point x="510" y="251"/>
      <point x="528" y="345"/>
      <point x="596" y="419" type="curve"/>
      <point x="596" y="425" type="line"/>
      <point x="487" y="504" type="line"/>
      <point x="409" y="452"/>
      <point x="322" y="374"/>
      <point x="271" y="317" type="curve"/>
      <point x="269" y="318" type="line"/>
      <point x="269" y="568" type="line"/>
      <point x="189" y="568" type="line"/>
      <point x="189" y="263" type="line"/>
      <point x="270" y="186" type="line"/>
      <point x="277" y="186" type="line"/>
      <point x="323" y="248"/>
      <point x="382" y="323"/>
      <point x="470" y="385" type="curve"/>
      <point x="473" y="382" type="line"/>
      <point x="452" y="330"/>
      <point x="447" y="273"/>
      <point x="447" y="221" type="curve" smooth="yes"/>
      <point x="447" y="152"/>
      <point x="458" y="90"/>
      <point x="473" y="31" type="curve"/>
      <point x="498" y="-50" type="line"/>
      <point x="525" y="-67" type="line"/>
    </contour>
    <contour>
      <point x="483" y="53" type="line"/>
      <point x="467" y="45" type="line"/>
      <point x="423" y="95"/>
      <point x="357" y="115"/>
      <point x="305" y="115" type="curve" smooth="yes"/>
      <point x="284" y="115"/>
      <point x="218" y="111"/>
      <point x="188" y="111" type="curve" smooth="yes"/>
      <point x="114" y="111"/>
      <point x="82" y="133"/>
      <point x="82" y="189" type="curve" smooth="yes"/>
      <point x="82" y="211"/>
      <point x="87" y="245"/>
      <point x="102" y="274" type="curve"/>
      <point x="79" y="289" type="line"/>
      <point x="70" y="289" type="line"/>
      <point x="49" y="254"/>
      <point x="35" y="207"/>
      <point x="35" y="166" type="curve" smooth="yes"/>
      <point x="35" y="93"/>
      <point x="82" y="27"/>
      <point x="210" y="27" type="curve" smooth="yes"/>
      <point x="255" y="27"/>
      <point x="330" y="35"/>
      <point x="372" y="35" type="curve" smooth="yes"/>
      <point x="427" y="35"/>
      <point x="479" y="20"/>
      <point x="498" y="-50" type="curve"/>
    </contour>
    <contour>
      <point x="710" y="119" type="curve" smooth="yes"/>
      <point x="776" y="119"/>
      <point x="838" y="165"/>
      <point x="838" y="250" type="curve" smooth="yes"/>
      <point x="838" y="352"/>
      <point x="747" y="394"/>
      <point x="691" y="394" type="curve" smooth="yes"/>
      <point x="646" y="394"/>
      <point x="614" y="362"/>
      <point x="614" y="326" type="curve" smooth="yes"/>
      <point x="614" y="290"/>
      <point x="641" y="261"/>
      <point x="680" y="261" type="curve" smooth="yes"/>
      <point x="716" y="261"/>
      <point x="734" y="285"/>
      <point x="734" y="310" type="curve" smooth="yes"/>
      <point x="734" y="321"/>
      <point x="730" y="331"/>
      <point x="723" y="340" type="curve"/>
      <point x="724" y="342" type="line"/>
      <point x="767" y="340"/>
      <point x="789" y="312"/>
      <point x="789" y="280" type="curve" smooth="yes"/>
      <point x="789" y="240"/>
      <point x="753" y="194"/>
      <point x="688" y="194" type="curve" smooth="yes"/>
      <point x="592" y="194"/>
      <point x="555" y="289"/>
      <point x="555" y="365" type="curve"/>
      <point x="503" y="295" type="line"/>
      <point x="532" y="295" type="line"/>
      <point x="562" y="194"/>
      <point x="628" y="119"/>
    </contour>
    <contour>
      <point x="893" y="552" type="line"/>
      <point x="893" y="560" type="line"/>
      <point x="833" y="620" type="line"/>
      <point x="-50" y="620" type="line"/>
      <point x="-50" y="612" type="line"/>
      <point x="10" y="552" type="line"/>
    </contour>
  </outline>
</glyph>
<glyph name="bDdDda" format="2">
  <advance width="1065"/>
  <outline>
    <contour>
      <point x="801" y="38" type="curve" smooth="yes"/>
      <point x="933" y="38"/>
      <point x="1016" y="127"/>
      <point x="1016" y="255" type="curve" smooth="yes"/>
      <point x="1016" y="338"/>
      <point x="981" y="407"/>
      <point x="908" y="451" type="curve"/>
      <point x="903" y="450" type="line"/>
      <point x="857" y="383"/>
      <point x="792" y="328"/>
      <point x="761" y="328" type="curve" smooth="yes"/>
      <point x="748" y="328"/>
      <point x="744" y="337"/>
      <point x="744" y="355" type="curve" smooth="yes"/>
      <point x="744" y="568" type="line"/>
      <point x="665" y="568" type="line"/>
      <point x="665" y="381" type="line" smooth="yes"/>
      <point x="665" y="315"/>
      <point x="741" y="247"/>
      <point x="788" y="247" type="curve" smooth="yes"/>
      <point x="825" y="247"/>
      <point x="884" y="288"/>
      <point x="935" y="352" type="curve"/>
      <point x="957" y="335"/>
      <point x="967" y="307"/>
      <point x="967" y="280" type="curve" smooth="yes"/>
      <point x="967" y="210"/>
      <point x="899" y="131"/>
      <point x="789" y="131" type="curve" smooth="yes"/>
      <point x="641" y="131"/>
      <point x="580" y="270"/>
      <point x="546" y="366" type="curve"/>
      <point x="531" y="231" type="line"/>
      <point x="549" y="231" type="line"/>
      <point x="612" y="87"/>
      <point x="703" y="38"/>
    </contour>
    <contour>
      <point x="346" y="91" type="curve" smooth="yes"/>
      <point x="452" y="91"/>
      <point x="529" y="151"/>
      <point x="551" y="247" type="curve"/>
      <point x="546" y="366" type="line"/>
      <point x="539" y="384"/>
      <point x="519" y="439"/>
      <point x="448" y="480" type="curve"/>
      <point x="443" y="479" type="line"/>
      <point x="400" y="419"/>
      <point x="337" y="368"/>
      <point x="308" y="368" type="curve" smooth="yes"/>
      <point x="295" y="368"/>
      <point x="291" y="377"/>
      <point x="291" y="395" type="curve" smooth="yes"/>
      <point x="291" y="568" type="line"/>
      <point x="212" y="568" type="line"/>
      <point x="212" y="421" type="line" smooth="yes"/>
      <point x="212" y="355"/>
      <point x="288" y="287"/>
      <point x="335" y="287" type="curve" smooth="yes"/>
      <point x="370" y="287"/>
      <point x="427" y="325"/>
      <point x="475" y="381" type="curve"/>
      <point x="497" y="366"/>
      <point x="508" y="343"/>
      <point x="508" y="317" type="curve" smooth="yes"/>
      <point x="508" y="256"/>
      <point x="440" y="182"/>
      <point x="334" y="182" type="curve" smooth="yes"/>
      <point x="210" y="182"/>
      <point x="124" y="279"/>
      <point x="74" y="510" type="curve"/>
      <point x="44" y="519" type="line"/>
      <point x="34" y="519" type="line"/>
      <point x="84" y="188"/>
      <point x="211" y="91"/>
    </contour>
    <contour>
      <point x="1075" y="552" type="line"/>
      <point x="1075" y="560" type="line"/>
      <point x="1015" y="620" type="line"/>
      <point x="-50" y="620" type="line"/>
      <point x="-50" y="612" type="line"/>
      <point x="10" y="552" type="line"/>
    </contour>
  </outline>
  <guideline angle="0" x="0" y="519"/>
</glyph>
<glyph name="bDdMa" format="2">
  <advance width="758"/>
  <outline>
    <contour>
      <point x="309" y="150" type="curve" smooth="yes"/>
      <point x="435" y="150"/>
      <point x="494" y="242"/>
      <point x="494" y="330" type="curve"/>
      <point x="494" y="403"/>
      <point x="454" y="480"/>
      <point x="393" y="511" type="curve"/>
      <point x="388" y="510" type="line"/>
      <point x="351" y="452"/>
      <point x="295" y="403"/>
      <point x="274" y="403" type="curve"/>
      <point x="266" y="403"/>
      <point x="265" y="410"/>
      <point x="265" y="425" type="curve"/>
      <point x="265" y="568" type="line"/>
      <point x="186" y="568" type="line"/>
      <point x="186" y="440" type="line"/>
      <point x="186" y="383"/>
      <point x="257" y="324"/>
      <point x="298" y="324" type="curve"/>
      <point x="329" y="324"/>
      <point x="377" y="358"/>
      <point x="419" y="413" type="curve"/>
      <point x="438" y="400"/>
      <point x="448" y="379"/>
      <point x="448" y="356" type="curve"/>
      <point x="448" y="303"/>
      <point x="391" y="238"/>
      <point x="297" y="238" type="curve"/>
      <point x="192" y="238"/>
      <point x="117" y="320"/>
      <point x="74" y="510" type="curve"/>
      <point x="44" y="519" type="line"/>
      <point x="34" y="519" type="line"/>
      <point x="78" y="233"/>
      <point x="190" y="150"/>
    </contour>
    <contour>
      <point x="625" y="62" type="line"/>
      <point x="609" y="51" type="line"/>
      <point x="602" y="60"/>
      <point x="547" y="136"/>
      <point x="463" y="136" type="curve"/>
      <point x="407" y="136"/>
      <point x="372" y="103"/>
      <point x="372" y="59" type="curve"/>
      <point x="372" y="15"/>
      <point x="405" y="-18"/>
      <point x="453" y="-18" type="curve"/>
      <point x="498" y="-18"/>
      <point x="543" y="12"/>
      <point x="543" y="73" type="curve"/>
      <point x="543" y="112"/>
      <point x="530" y="194"/>
      <point x="437" y="231" type="curve"/>
      <point x="412" y="198" type="line"/>
      <point x="455" y="185"/>
      <point x="476" y="155"/>
      <point x="480" y="126" type="curve"/>
      <point x="523" y="61" type="line"/>
      <point x="608" y="31"/>
      <point x="637" y="-55"/>
      <point x="650" y="-95" type="curve"/>
    </contour>
    <contour>
      <point x="688" y="-112" type="line"/>
      <point x="684" y="-11"/>
      <point x="683" y="53"/>
      <point x="683" y="129" type="curve"/>
      <point x="683" y="568" type="line"/>
      <point x="604" y="568" type="line"/>
      <point x="604" y="336" type="line"/>
      <point x="604" y="182"/>
      <point x="604" y="92"/>
      <point x="613" y="45" type="curve"/>
      <point x="650" y="-95" type="line"/>
      <point x="677" y="-112" type="line"/>
    </contour>
    <contour>
      <point x="768" y="552" type="line"/>
      <point x="768" y="560" type="line"/>
      <point x="708" y="620" type="line"/>
      <point x="-50" y="620" type="line"/>
      <point x="-50" y="612" type="line"/>
      <point x="10" y="552" type="line"/>
    </contour>
  </outline>
  <guideline angle="0" x="0" y="-162"/>
</glyph>
<glyph name="bDdRa" format="2">
  <advance width="681"/>
  <outline>
    <contour>
      <point x="406" y="69" type="curve" smooth="yes"/>
      <point x="547" y="69"/>
      <point x="630" y="156"/>
      <point x="630" y="280" type="curve" smooth="yes"/>
      <point x="630" y="362"/>
      <point x="595" y="433"/>
      <point x="522" y="478" type="curve"/>
      <point x="517" y="477" type="line"/>
      <point x="469" y="405"/>
      <point x="399" y="343"/>
      <point x="366" y="343" type="curve" smooth="yes"/>
      <point x="353" y="343"/>
      <point x="349" y="351"/>
      <point x="349" y="367" type="curve" smooth="yes"/>
      <point x="349" y="568" type="line"/>
      <point x="270" y="568" type="line"/>
      <point x="270" y="385" type="line" smooth="yes"/>
      <point x="270" y="325"/>
      <point x="346" y="262"/>
      <point x="393" y="262" type="curve" smooth="yes"/>
      <point x="432" y="262"/>
      <point x="496" y="309"/>
      <point x="549" y="379" type="curve"/>
      <point x="571" y="361"/>
      <point x="581" y="332"/>
      <point x="581" y="304" type="curve" smooth="yes"/>
      <point x="581" y="235"/>
      <point x="511" y="161"/>
      <point x="391" y="161" type="curve" smooth="yes"/>
      <point x="253" y="161"/>
      <point x="151" y="262"/>
      <point x="95" y="500" type="curve"/>
      <point x="65" y="509" type="line"/>
      <point x="55" y="509" type="line"/>
      <point x="110" y="170"/>
      <point x="252" y="69"/>
    </contour>
    <contour>
      <point x="526" y="-48" type="line"/>
      <point x="508" y="-57" type="line"/>
      <point x="455" y="-3"/>
      <point x="391" y="12"/>
      <point x="335" y="12" type="curve" smooth="yes"/>
      <point x="311" y="12"/>
      <point x="245" y="9"/>
      <point x="215" y="9" type="curve" smooth="yes"/>
      <point x="135" y="9"/>
      <point x="101" y="35"/>
      <point x="101" y="92" type="curve" smooth="yes"/>
      <point x="101" y="109"/>
      <point x="104" y="137"/>
      <point x="116" y="158" type="curve"/>
      <point x="94" y="172" type="line"/>
      <point x="85" y="172" type="line"/>
      <point x="66" y="143"/>
      <point x="54" y="104"/>
      <point x="54" y="67" type="curve" smooth="yes"/>
      <point x="54" y="-4"/>
      <point x="99" y="-74"/>
      <point x="232" y="-74" type="curve" smooth="yes"/>
      <point x="274" y="-74"/>
      <point x="351" y="-67"/>
      <point x="402" y="-67" type="curve" smooth="yes"/>
      <point x="469" y="-67"/>
      <point x="515" y="-79"/>
      <point x="535" y="-145" type="curve"/>
    </contour>
    <contour>
      <point x="574" y="-162" type="line"/>
      <point x="568" y="-47"/>
      <point x="567" y="19"/>
      <point x="567" y="26" type="curve" smooth="yes"/>
      <point x="567" y="135" type="line"/>
      <point x="512" y="128" type="line"/>
      <point x="512" y="-61" type="line"/>
      <point x="535" y="-145" type="line"/>
      <point x="563" y="-162" type="line"/>
    </contour>
    <contour>
      <point x="691" y="552" type="line"/>
      <point x="691" y="560" type="line"/>
      <point x="631" y="620" type="line"/>
      <point x="-50" y="620" type="line"/>
      <point x="-50" y="612" type="line"/>
      <point x="10" y="552" type="line"/>
    </contour>
  </outline>
  <guideline angle="90" x="55" y="0"/>
</glyph>
<glyph name="bDdhRa" format="2">
  <advance width="584"/>
  <outline>
    <contour>
      <point x="308" y="66" type="curve" smooth="yes"/>
      <point x="375" y="66"/>
      <point x="533" y="205"/>
      <point x="533" y="344" type="curve" smooth="yes"/>
      <point x="533" y="422"/>
      <point x="485" y="472"/>
      <point x="422" y="472" type="curve" smooth="yes"/>
      <point x="367" y="472"/>
      <point x="338" y="433"/>
      <point x="338" y="390" type="curve" smooth="yes"/>
      <point x="338" y="341"/>
      <point x="378" y="315"/>
      <point x="419" y="315" type="curve" smooth="yes"/>
      <point x="427" y="315"/>
      <point x="435" y="316"/>
      <point x="442" y="318" type="curve"/>
      <point x="426" y="227"/>
      <point x="322" y="148"/>
      <point x="279" y="148" type="curve" smooth="yes"/>
      <point x="258" y="148"/>
      <point x="249" y="167"/>
      <point x="249" y="202" type="curve" smooth="yes"/>
      <point x="249" y="568" type="line"/>
      <point x="171" y="568" type="line"/>
      <point x="171" y="225" type="line" smooth="yes"/>
      <point x="171" y="159"/>
      <point x="252" y="66"/>
    </contour>
    <contour>
      <point x="449" y="-48" type="line"/>
      <point x="431" y="-57" type="line"/>
      <point x="380" y="-3"/>
      <point x="318" y="13"/>
      <point x="264" y="13" type="curve" smooth="yes"/>
      <point x="245" y="13"/>
      <point x="194" y="10"/>
      <point x="171" y="10" type="curve" smooth="yes"/>
      <point x="108" y="10"/>
      <point x="82" y="32"/>
      <point x="82" y="89" type="curve" smooth="yes"/>
      <point x="82" y="106"/>
      <point x="85" y="134"/>
      <point x="97" y="155" type="curve"/>
      <point x="75" y="169" type="line"/>
      <point x="66" y="169" type="line"/>
      <point x="47" y="140"/>
      <point x="35" y="101"/>
      <point x="35" y="64" type="curve" smooth="yes"/>
      <point x="35" y="-7"/>
      <point x="73" y="-74"/>
      <point x="186" y="-74" type="curve" smooth="yes"/>
      <point x="222" y="-74"/>
      <point x="288" y="-67"/>
      <point x="331" y="-67" type="curve" smooth="yes"/>
      <point x="395" y="-67"/>
      <point x="439" y="-79"/>
      <point x="458" y="-145" type="curve"/>
    </contour>
    <contour>
      <point x="497" y="-162" type="line"/>
      <point x="491" y="-47"/>
      <point x="490" y="19"/>
      <point x="490" y="26" type="curve" smooth="yes"/>
      <point x="490" y="235" type="line"/>
      <point x="435" y="182" type="line"/>
      <point x="435" y="-61" type="line"/>
      <point x="458" y="-145" type="line"/>
      <point x="486" y="-162" type="line"/>
    </contour>
    <contour>
      <point x="594" y="552" type="line"/>
      <point x="594" y="560" type="line"/>
      <point x="534" y="620" type="line"/>
      <point x="-50" y="620" type="line"/>
      <point x="-50" y="612" type="line"/>
      <point x="10" y="552" type="line"/>
    </contour>
  </outline>
</glyph>
<glyph name="bEight.sups" format="2">
  <advance width="518"/>
  <outline>
    <contour>
      <point x="300" y="535" type="line"/>
      <point x="282" y="569"/>
      <point x="253" y="591"/>
      <point x="220" y="591" type="curve" smooth="yes"/>
      <point x="205" y="591"/>
      <point x="183" y="588"/>
      <point x="158" y="576" type="curve"/>
      <point x="142" y="584" type="line"/>
      <point x="148" y="506" type="line"/>
      <point x="160" y="511"/>
      <point x="201" y="527"/>
      <point x="237" y="527" type="curve" smooth="yes"/>
      <point x="269" y="527"/>
      <point x="292" y="516"/>
      <point x="292" y="486" type="curve" smooth="yes"/>
      <point x="292" y="430"/>
      <point x="219" y="369"/>
      <point x="184" y="369" type="curve" smooth="yes"/>
      <point x="170" y="369"/>
      <point x="156" y="380"/>
      <point x="156" y="401" type="curve" smooth="yes"/>
      <point x="156" y="671" type="line" smooth="yes"/>
      <point x="156" y="744"/>
      <point x="118" y="761"/>
      <point x="87" y="761" type="curve" smooth="yes"/>
      <point x="50" y="761"/>
      <point x="30" y="735"/>
      <point x="30" y="711" type="curve" smooth="yes"/>
      <point x="30" y="685"/>
      <point x="50" y="667"/>
      <point x="78" y="667" type="curve"/>
      <point x="79" y="667"/>
      <point x="82" y="667"/>
      <point x="90" y="669" type="curve"/>
      <point x="92" y="667" type="line"/>
      <point x="89" y="641"/>
      <point x="89" y="619"/>
      <point x="89" y="550" type="curve" smooth="yes"/>
      <point x="89" y="438" type="line" smooth="yes"/>
      <point x="89" y="398"/>
      <point x="127" y="313"/>
      <point x="214" y="313" type="curve" smooth="yes"/>
      <point x="293" y="313"/>
      <point x="365" y="404"/>
      <point x="365" y="468" type="curve" smooth="yes"/>
      <point x="365" y="496"/>
      <point x="345" y="512"/>
      <point x="310" y="524" type="curve"/>
    </contour>
    <contour>
      <point x="316" y="524" type="line"/>
      <point x="319" y="528"/>
      <point x="321" y="531"/>
      <point x="336" y="531" type="curve" smooth="yes"/>
      <point x="351" y="531"/>
      <point x="372" y="528"/>
      <point x="389" y="528" type="curve" smooth="yes"/>
      <point x="434" y="528"/>
      <point x="449" y="547"/>
      <point x="453" y="616" type="curve"/>
      <point x="431" y="630" type="line"/>
      <point x="427" y="630" type="line"/>
      <point x="422" y="608"/>
      <point x="419" y="593"/>
      <point x="389" y="593" type="curve" smooth="yes"/>
      <point x="380" y="593"/>
      <point x="364" y="595"/>
      <point x="354" y="595" type="curve" smooth="yes"/>
      <point x="322" y="595"/>
      <point x="306" y="576"/>
      <point x="298" y="542" type="curve"/>
      <point x="283" y="542" type="line"/>
      <point x="316" y="512" type="line"/>
    </contour>
  </outline>
</glyph>
<glyph name="bFour.sups" format="2">
  <advance width="482"/>
  <outline>
    <contour>
      <point x="239" y="311" type="curve" smooth="yes"/>
      <point x="349" y="311"/>
      <point x="399" y="369"/>
      <point x="399" y="428" type="curve" smooth="yes"/>
      <point x="399" y="489"/>
      <point x="336" y="522"/>
      <point x="273" y="549" type="curve"/>
      <point x="230" y="529" type="line"/>
      <point x="289" y="509"/>
      <point x="314" y="479"/>
      <point x="314" y="448" type="curve" smooth="yes"/>
      <point x="314" y="404"/>
      <point x="259" y="357"/>
      <point x="205" y="357" type="curve" smooth="yes"/>
      <point x="169" y="357"/>
      <point x="137" y="372"/>
      <point x="137" y="413" type="curve" smooth="yes"/>
      <point x="137" y="462"/>
      <point x="211" y="489"/>
      <point x="276" y="521" type="curve" smooth="yes"/>
      <point x="327" y="546"/>
      <point x="383" y="585"/>
      <point x="383" y="640" type="curve" smooth="yes"/>
      <point x="383" y="704"/>
      <point x="309" y="759"/>
      <point x="224" y="759" type="curve" smooth="yes"/>
      <point x="122" y="759"/>
      <point x="81" y="699"/>
      <point x="81" y="648" type="curve" smooth="yes"/>
      <point x="81" y="610"/>
      <point x="109" y="575"/>
      <point x="179" y="540" type="curve"/>
      <point x="214" y="563" type="line"/>
      <point x="177" y="579"/>
      <point x="159" y="605"/>
      <point x="159" y="632" type="curve" smooth="yes"/>
      <point x="159" y="670"/>
      <point x="199" y="713"/>
      <point x="252" y="713" type="curve" smooth="yes"/>
      <point x="287" y="713"/>
      <point x="317" y="696"/>
      <point x="317" y="663" type="curve" smooth="yes"/>
      <point x="317" y="620"/>
      <point x="245" y="592"/>
      <point x="186" y="562" type="curve" smooth="yes"/>
      <point x="127" y="533"/>
      <point x="67" y="501"/>
      <point x="67" y="436" type="curve" smooth="yes"/>
      <point x="67" y="383"/>
      <point x="128" y="311"/>
    </contour>
  </outline>
</glyph>
<glyph name="bGGa" format="2">
  <advance width="598"/>
  <outline>
    <contour>
      <point x="468" y="457" type="line"/>
      <point x="448" y="452" type="line"/>
      <point x="417" y="528"/>
      <point x="354" y="620"/>
      <point x="234" y="620" type="curve" smooth="yes"/>
      <point x="124" y="620"/>
      <point x="40" y="542"/>
      <point x="40" y="452" type="curve" smooth="yes"/>
      <point x="40" y="396"/>
      <point x="74" y="365"/>
      <point x="103" y="365" type="curve" smooth="yes"/>
      <point x="114" y="365"/>
      <point x="121" y="369"/>
      <point x="125" y="372" type="curve" smooth="yes"/>
      <point x="138" y="382"/>
      <point x="211" y="429"/>
      <point x="256" y="429" type="curve" smooth="yes"/>
      <point x="272" y="429"/>
      <point x="279" y="423"/>
      <point x="279" y="413" type="curve" smooth="yes"/>
      <point x="279" y="391"/>
      <point x="244" y="354"/>
      <point x="151" y="302" type="curve"/>
      <point x="223" y="245" type="line"/>
      <point x="328" y="303"/>
      <point x="341" y="348"/>
      <point x="341" y="382" type="curve" smooth="yes"/>
      <point x="341" y="435"/>
      <point x="300" y="477"/>
      <point x="235" y="477" type="curve" smooth="yes"/>
      <point x="212" y="477"/>
      <point x="180" y="472"/>
      <point x="149" y="463" type="curve"/>
      <point x="153" y="502"/>
      <point x="203" y="544"/>
      <point x="275" y="544" type="curve" smooth="yes"/>
      <point x="424" y="544"/>
      <point x="446" y="359"/>
      <point x="450" y="216" type="curve"/>
    </contour>
    <contour>
      <point x="472" y="103" type="line"/>
      <point x="454" y="97" type="line"/>
      <point x="422" y="164"/>
      <point x="362" y="242"/>
      <point x="254" y="242" type="curve" smooth="yes"/>
      <point x="156" y="242"/>
      <point x="92" y="177"/>
      <point x="92" y="101" type="curve" smooth="yes"/>
      <point x="92" y="46"/>
      <point x="125" y="16"/>
      <point x="154" y="16" type="curve" smooth="yes"/>
      <point x="164" y="16"/>
      <point x="170" y="19"/>
      <point x="175" y="23" type="curve" smooth="yes"/>
      <point x="205" y="44"/>
      <point x="254" y="75"/>
      <point x="289" y="75" type="curve" smooth="yes"/>
      <point x="306" y="75"/>
      <point x="311" y="68"/>
      <point x="311" y="57" type="curve" smooth="yes"/>
      <point x="311" y="32"/>
      <point x="283" y="-3"/>
      <point x="188" y="-58" type="curve"/>
      <point x="260" y="-116" type="line"/>
      <point x="340" y="-64"/>
      <point x="370" y="-23"/>
      <point x="370" y="26" type="curve" smooth="yes"/>
      <point x="370" y="80"/>
      <point x="334" y="119"/>
      <point x="274" y="119" type="curve" smooth="yes"/>
      <point x="253" y="119"/>
      <point x="222" y="114"/>
      <point x="192" y="105" type="curve"/>
      <point x="192" y="142"/>
      <point x="236" y="172"/>
      <point x="293" y="172" type="curve" smooth="yes"/>
      <point x="437" y="172"/>
      <point x="476" y="-14"/>
      <point x="489" y="-125" type="curve"/>
    </contour>
    <contour>
      <point x="529" y="-143" type="line"/>
      <point x="524" y="-13"/>
      <point x="523" y="-2"/>
      <point x="522" y="108" type="curve" smooth="yes"/>
      <point x="519" y="552" type="line"/>
      <point x="608" y="552" type="line"/>
      <point x="608" y="560" type="line"/>
      <point x="548" y="620" type="line"/>
      <point x="446" y="620" type="line"/>
      <point x="446" y="608" type="line" smooth="yes"/>
      <point x="446" y="544"/>
      <point x="446" y="495"/>
      <point x="454" y="437" type="curve"/>
      <point x="450" y="216" type="line"/>
      <point x="451" y="186"/>
      <point x="452" y="113"/>
      <point x="459" y="87" type="curve"/>
      <point x="489" y="-125" type="line"/>
      <point x="518" y="-143" type="line"/>
    </contour>
  </outline>
</glyph>
<glyph name="bGMa" format="2">
  <advance width="778"/>
  <outline>
    <contour>
      <point x="243" y="202" type="line"/>
      <point x="316" y="262"/>
      <point x="342" y="302"/>
      <point x="342" y="350" type="curve" smooth="yes"/>
      <point x="342" y="413"/>
      <point x="298" y="468"/>
      <point x="223" y="468" type="curve" smooth="yes"/>
      <point x="200" y="468"/>
      <point x="168" y="463"/>
      <point x="137" y="454" type="curve"/>
      <point x="141" y="496"/>
      <point x="190" y="544"/>
      <point x="264" y="544" type="curve" smooth="yes"/>
      <point x="408" y="544"/>
      <point x="444" y="366"/>
      <point x="456" y="216" type="curve"/>
      <point x="461" y="457" type="line"/>
      <point x="441" y="452" type="line"/>
      <point x="406" y="527"/>
      <point x="341" y="620"/>
      <point x="223" y="620" type="curve" smooth="yes"/>
      <point x="112" y="620"/>
      <point x="28" y="538"/>
      <point x="28" y="445" type="curve" smooth="yes"/>
      <point x="28" y="386"/>
      <point x="61" y="356"/>
      <point x="90" y="356" type="curve" smooth="yes"/>
      <point x="99" y="356"/>
      <point x="108" y="360"/>
      <point x="111" y="362" type="curve" smooth="yes"/>
      <point x="196" y="419"/>
      <point x="233" y="420"/>
      <point x="246" y="420" type="curve" smooth="yes"/>
      <point x="268" y="420"/>
      <point x="277" y="409"/>
      <point x="277" y="393" type="curve" smooth="yes"/>
      <point x="277" y="366"/>
      <point x="250" y="328"/>
      <point x="162" y="268" type="curve"/>
    </contour>
    <contour>
      <point x="645" y="114" type="line"/>
      <point x="629" y="103" type="line"/>
      <point x="523" y="220"/>
      <point x="440" y="228"/>
      <point x="412" y="228" type="curve" smooth="yes"/>
      <point x="345" y="228"/>
      <point x="312" y="185"/>
      <point x="312" y="140" type="curve" smooth="yes"/>
      <point x="312" y="91"/>
      <point x="352" y="52"/>
      <point x="407" y="52" type="curve" smooth="yes"/>
      <point x="450" y="52"/>
      <point x="489" y="74"/>
      <point x="507" y="129" type="curve"/>
      <point x="614" y="105"/>
      <point x="653" y="1"/>
      <point x="670" y="-46" type="curve"/>
    </contour>
    <contour>
      <point x="708" y="-63" type="line"/>
      <point x="704" y="38"/>
      <point x="703" y="102"/>
      <point x="703" y="178" type="curve" smooth="yes"/>
      <point x="703" y="568" type="line"/>
      <point x="624" y="568" type="line"/>
      <point x="624" y="385" type="line" smooth="yes"/>
      <point x="624" y="231"/>
      <point x="623" y="141"/>
      <point x="636" y="88" type="curve" smooth="yes"/>
      <point x="670" y="-46" type="line"/>
      <point x="697" y="-63" type="line"/>
    </contour>
    <contour>
      <point x="517" y="178" type="line"/>
      <point x="513" y="235"/>
      <point x="511" y="301"/>
      <point x="511" y="392" type="curve" smooth="yes"/>
      <point x="511" y="552" type="line"/>
      <point x="788" y="552" type="line"/>
      <point x="788" y="560" type="line"/>
      <point x="728" y="620" type="line"/>
      <point x="439" y="620" type="line"/>
      <point x="439" y="608" type="line" smooth="yes"/>
      <point x="439" y="544"/>
      <point x="439" y="495"/>
      <point x="447" y="437" type="curve"/>
      <point x="456" y="216" type="line"/>
    </contour>
  </outline>
</glyph>
<glyph name="bHBa" format="2">
  <advance width="557"/>
  <outline>
    <contour>
      <point x="598" y="-88" type="line"/>
      <point x="584" y="-39" type="line"/>
      <point x="536" y="10"/>
      <point x="452" y="87"/>
      <point x="287" y="170" type="curve"/>
      <point x="287" y="189" type="line"/>
      <point x="38" y="272" type="line"/>
      <point x="103" y="151" type="line"/>
      <point x="277" y="113"/>
      <point x="416" y="46"/>
      <point x="591" y="-88" type="curve"/>
    </contour>
    <contour>
      <point x="452" y="-180" type="line"/>
      <point x="449" y="-115"/>
      <point x="449" y="-68"/>
      <point x="449" y="7" type="curve" smooth="yes"/>
      <point x="449" y="60" type="line"/>
      <point x="347" y="103" type="line"/>
      <point x="292" y="77"/>
      <point x="226" y="42"/>
      <point x="158" y="0" type="curve"/>
      <point x="220" y="-77" type="line"/>
      <point x="320" y="-85"/>
      <point x="393" y="-124"/>
      <point x="413" y="-166" type="curve"/>
      <point x="401" y="-75" type="line"/>
      <point x="385" y="-91" type="line"/>
      <point x="356" y="-56"/>
      <point x="305" y="-28"/>
      <point x="270" y="-18" type="curve"/>
      <point x="269" y="-15" type="line"/>
      <point x="302" y="6"/>
      <point x="344" y="27"/>
      <point x="378" y="42" type="curve"/>
      <point x="378" y="-14"/>
      <point x="379" y="-79"/>
      <point x="390" y="-96" type="curve"/>
      <point x="413" y="-166" type="line"/>
      <point x="442" y="-180" type="line"/>
    </contour>
    <contour>
      <point x="268" y="168" type="line"/>
      <point x="387" y="196"/>
      <point x="475" y="248"/>
      <point x="475" y="348" type="curve" smooth="yes"/>
      <point x="475" y="470"/>
      <point x="347" y="509"/>
      <point x="259" y="509" type="curve" smooth="yes"/>
      <point x="162" y="509"/>
      <point x="69" y="467"/>
      <point x="69" y="398" type="curve" smooth="yes"/>
      <point x="69" y="353"/>
      <point x="107" y="327"/>
      <point x="157" y="327" type="curve" smooth="yes"/>
      <point x="220" y="327"/>
      <point x="268" y="368"/>
      <point x="278" y="433" type="curve"/>
      <point x="293" y="440"/>
      <point x="311" y="444"/>
      <point x="330" y="444" type="curve" smooth="yes"/>
      <point x="373" y="444"/>
      <point x="413" y="425"/>
      <point x="413" y="381" type="curve" smooth="yes"/>
      <point x="413" y="302"/>
      <point x="284" y="244"/>
      <point x="181" y="244" type="curve" smooth="yes"/>
      <point x="151" y="244"/>
      <point x="117" y="249"/>
      <point x="43" y="277" type="curve"/>
      <point x="38" y="272" type="line"/>
    </contour>
    <contour>
      <point x="280" y="495" type="line"/>
      <point x="276" y="520"/>
      <point x="272" y="545"/>
      <point x="261" y="565" type="curve"/>
      <point x="182" y="565" type="line"/>
      <point x="211" y="547"/>
      <point x="227" y="522"/>
      <point x="227" y="497" type="curve"/>
    </contour>
    <contour>
      <point x="565" y="552" type="line"/>
      <point x="565" y="560" type="line"/>
      <point x="505" y="620" type="line"/>
      <point x="-50" y="620" type="line"/>
      <point x="-50" y="612" type="line"/>
      <point x="10" y="552" type="line"/>
    </contour>
  </outline>
</glyph>
<glyph name="bHMa" format="2">
  <advance width="817"/>
  <outline>
    <contour>
      <point x="525" y="161" type="line"/>
      <point x="498" y="152" type="line"/>
      <point x="448" y="237"/>
      <point x="372" y="299"/>
      <point x="285" y="299" type="curve" smooth="yes"/>
      <point x="228" y="299"/>
      <point x="194" y="258"/>
      <point x="194" y="216" type="curve" smooth="yes"/>
      <point x="194" y="169"/>
      <point x="237" y="135"/>
      <point x="280" y="135" type="curve" smooth="yes"/>
      <point x="342" y="135"/>
      <point x="383" y="201"/>
      <point x="383" y="259" type="curve" smooth="yes"/>
      <point x="383" y="350"/>
      <point x="324" y="424"/>
      <point x="236" y="472" type="curve"/>
      <point x="190" y="487"/>
      <point x="176" y="493"/>
      <point x="141" y="493" type="curve" smooth="yes"/>
      <point x="69" y="493"/>
      <point x="24" y="449"/>
      <point x="24" y="400" type="curve" smooth="yes"/>
      <point x="24" y="355"/>
      <point x="63" y="321"/>
      <point x="109" y="321" type="curve" smooth="yes"/>
      <point x="149" y="321"/>
      <point x="191" y="348"/>
      <point x="191" y="415" type="curve" smooth="yes"/>
      <point x="191" y="422" type="line"/>
      <point x="275" y="421"/>
      <point x="312" y="377"/>
      <point x="312" y="330" type="curve" smooth="yes"/>
      <point x="312" y="311"/>
      <point x="307" y="300"/>
      <point x="296" y="285" type="curve"/>
      <point x="358" y="210" type="line"/>
      <point x="452" y="203"/>
      <point x="511" y="97"/>
      <point x="533" y="-15" type="curve"/>
    </contour>
    <contour>
      <point x="181" y="477" type="line"/>
      <point x="171" y="514"/>
      <point x="156" y="542"/>
      <point x="135" y="565" type="curve"/>
      <point x="33" y="552" type="line"/>
      <point x="78" y="552"/>
      <point x="119" y="541"/>
      <point x="136" y="477" type="curve"/>
    </contour>
    <contour>
      <point x="752" y="-8" type="line"/>
      <point x="750" y="65"/>
      <point x="749" y="139"/>
      <point x="749" y="207" type="curve" smooth="yes"/>
      <point x="749" y="275"/>
      <point x="750" y="342"/>
      <point x="752" y="409" type="curve"/>
      <point x="663" y="487" type="line"/>
      <point x="585" y="462"/>
      <point x="479" y="446"/>
      <point x="398" y="446" type="curve" smooth="yes"/>
      <point x="328" y="446"/>
      <point x="284" y="456"/>
      <point x="236" y="472" type="curve"/>
      <point x="314" y="394" type="line"/>
      <point x="323" y="412" type="line"/>
      <point x="372" y="385"/>
      <point x="428" y="375"/>
      <point x="483" y="375" type="curve" smooth="yes"/>
      <point x="531" y="375"/>
      <point x="606" y="383"/>
      <point x="677" y="409" type="curve"/>
      <point x="676" y="364"/>
      <point x="675" y="297"/>
      <point x="675" y="235" type="curve" smooth="yes"/>
      <point x="675" y="173"/>
      <point x="676" y="110"/>
      <point x="678" y="47" type="curve"/>
      <point x="746" y="-11" type="line"/>
    </contour>
    <contour>
      <point x="574" y="-33" type="line"/>
      <point x="570" y="68"/>
      <point x="570" y="132"/>
      <point x="570" y="208" type="curve" smooth="yes"/>
      <point x="570" y="568" type="line"/>
      <point x="491" y="568" type="line"/>
      <point x="491" y="350" type="line" smooth="yes"/>
      <point x="491" y="234"/>
      <point x="497" y="182"/>
      <point x="502" y="144" type="curve"/>
      <point x="533" y="-15" type="line"/>
      <point x="562" y="-33" type="line"/>
    </contour>
    <contour>
      <point x="827" y="552" type="line"/>
      <point x="827" y="560" type="line"/>
      <point x="767" y="620" type="line"/>
      <point x="-50" y="620" type="line"/>
      <point x="-50" y="612" type="line"/>
      <point x="10" y="552" type="line"/>
    </contour>
  </outline>
</glyph>
<glyph name="bHRa" format="2">
  <advance width="627"/>
  <outline>
    <contour>
      <point x="340" y="168" type="line"/>
      <point x="459" y="196"/>
      <point x="547" y="248"/>
      <point x="547" y="348" type="curve" smooth="yes"/>
      <point x="547" y="466"/>
      <point x="425" y="508"/>
      <point x="338" y="508" type="curve" smooth="yes"/>
      <point x="222" y="508"/>
      <point x="141" y="463"/>
      <point x="141" y="398" type="curve" smooth="yes"/>
      <point x="141" y="353"/>
      <point x="179" y="327"/>
      <point x="229" y="327" type="curve" smooth="yes"/>
      <point x="292" y="327"/>
      <point x="340" y="368"/>
      <point x="350" y="433" type="curve"/>
      <point x="365" y="440"/>
      <point x="383" y="444"/>
      <point x="402" y="444" type="curve" smooth="yes"/>
      <point x="445" y="444"/>
      <point x="485" y="425"/>
      <point x="485" y="381" type="curve" smooth="yes"/>
      <point x="485" y="302"/>
      <point x="356" y="244"/>
      <point x="253" y="244" type="curve" smooth="yes"/>
      <point x="223" y="244"/>
      <point x="189" y="249"/>
      <point x="115" y="277" type="curve"/>
      <point x="110" y="272" type="line"/>
      <point x="175" y="151" type="line"/>
    </contour>
    <contour>
      <point x="514" y="-45" type="line"/>
      <point x="496" y="-54" type="line"/>
      <point x="443" y="0"/>
      <point x="376" y="17"/>
      <point x="322" y="17" type="curve" smooth="yes"/>
      <point x="294" y="17"/>
      <point x="223" y="13"/>
      <point x="194" y="13" type="curve" smooth="yes"/>
      <point x="116" y="13"/>
      <point x="82" y="39"/>
      <point x="82" y="96" type="curve" smooth="yes"/>
      <point x="82" y="113"/>
      <point x="85" y="141"/>
      <point x="97" y="162" type="curve"/>
      <point x="75" y="176" type="line"/>
      <point x="66" y="176" type="line"/>
      <point x="47" y="147"/>
      <point x="35" y="107"/>
      <point x="35" y="72" type="curve" smooth="yes"/>
      <point x="35" y="0"/>
      <point x="82" y="-70"/>
      <point x="209" y="-70" type="curve" smooth="yes"/>
      <point x="251" y="-70"/>
      <point x="335" y="-62"/>
      <point x="388" y="-62" type="curve" smooth="yes"/>
      <point x="455" y="-62"/>
      <point x="501" y="-74"/>
      <point x="521" y="-140" type="curve"/>
    </contour>
    <contour>
      <point x="670" y="-88" type="line"/>
      <point x="656" y="-39" type="line"/>
      <point x="608" y="10"/>
      <point x="524" y="87"/>
      <point x="359" y="170" type="curve"/>
      <point x="359" y="189" type="line"/>
      <point x="175" y="151" type="line"/>
      <point x="349" y="113"/>
      <point x="483" y="49"/>
      <point x="663" y="-88" type="curve"/>
    </contour>
    <contour>
      <point x="560" y="-157" type="line"/>
      <point x="554" y="-42"/>
      <point x="553" y="-20"/>
      <point x="553" y="2" type="curve"/>
      <point x="498" y="48" type="line"/>
      <point x="500" y="-62" type="line"/>
      <point x="521" y="-140" type="line"/>
      <point x="549" y="-157" type="line"/>
    </contour>
    <contour>
      <point x="353" y="496" type="line"/>
      <point x="347" y="520"/>
      <point x="344" y="545"/>
      <point x="333" y="566" type="curve"/>
      <point x="256" y="562" type="line"/>
      <point x="283" y="547"/>
      <point x="301" y="518"/>
      <point x="298" y="496" type="curve"/>
    </contour>
    <contour>
      <point x="637" y="552" type="line"/>
      <point x="637" y="560" type="line"/>
      <point x="577" y="620" type="line"/>
      <point x="-50" y="620" type="line"/>
      <point x="-50" y="612" type="line"/>
      <point x="10" y="552" type="line"/>
    </contour>
  </outline>
</glyph>
<glyph name="bHYa" format="2">
  <advance width="774"/>
  <outline>
    <contour>
      <point x="286" y="123" type="line"/>
      <point x="286" y="142" type="line"/>
      <point x="390" y="172"/>
      <point x="466" y="231"/>
      <point x="466" y="330" type="curve" smooth="yes"/>
      <point x="466" y="453"/>
      <point x="346" y="501"/>
      <point x="264" y="501" type="curve" smooth="yes"/>
      <point x="153" y="501"/>
      <point x="69" y="454"/>
      <point x="69" y="387" type="curve" smooth="yes"/>
      <point x="69" y="342"/>
      <point x="107" y="316"/>
      <point x="156" y="316" type="curve" smooth="yes"/>
      <point x="218" y="316"/>
      <point x="265" y="358"/>
      <point x="275" y="425" type="curve"/>
      <point x="289" y="432"/>
      <point x="307" y="436"/>
      <point x="325" y="436" type="curve" smooth="yes"/>
      <point x="366" y="436"/>
      <point x="405" y="413"/>
      <point x="405" y="366" type="curve" smooth="yes"/>
      <point x="405" y="280"/>
      <point x="281" y="215"/>
      <point x="179" y="215" type="curve" smooth="yes"/>
      <point x="150" y="215"/>
      <point x="115" y="220"/>
      <point x="42" y="248" type="curve"/>
      <point x="37" y="243" type="line"/>
      <point x="103" y="120" type="line"/>
    </contour>
    <contour>
      <point x="596" y="-129" type="line"/>
      <point x="584" y="-85" type="line"/>
      <point x="537" y="-31"/>
      <point x="454" y="49"/>
      <point x="262" y="152" type="curve"/>
      <point x="103" y="120" type="line"/>
      <point x="276" y="80"/>
      <point x="409" y="14"/>
      <point x="589" y="-129" type="curve"/>
    </contour>
    <contour>
      <point x="280" y="488" type="line"/>
      <point x="275" y="514"/>
      <point x="272" y="543"/>
      <point x="260" y="565" type="curve"/>
      <point x="183" y="565" type="line"/>
      <point x="212" y="545"/>
      <point x="228" y="513"/>
      <point x="226" y="488" type="curve"/>
    </contour>
    <contour>
      <point x="523" y="-65" type="line"/>
      <point x="623" y="-45"/>
      <point x="689" y="29"/>
      <point x="689" y="142" type="curve" smooth="yes"/>
      <point x="689" y="227"/>
      <point x="652" y="342"/>
      <point x="652" y="427" type="curve" smooth="yes"/>
      <point x="652" y="500"/>
      <point x="680" y="540"/>
      <point x="746" y="558" type="curve"/>
      <point x="652" y="568" type="line"/>
      <point x="657" y="548" type="line"/>
      <point x="602" y="503"/>
      <point x="573" y="450"/>
      <point x="573" y="373" type="curve" smooth="yes"/>
      <point x="573" y="276"/>
      <point x="610" y="169"/>
      <point x="610" y="101" type="curve" smooth="yes"/>
      <point x="610" y="32"/>
      <point x="579" y="-16"/>
      <point x="506" y="-33" type="curve"/>
    </contour>
    <contour>
      <point x="784" y="552" type="line"/>
      <point x="784" y="560" type="line"/>
      <point x="724" y="620" type="line"/>
      <point x="-50" y="620" type="line"/>
      <point x="-50" y="612" type="line"/>
      <point x="10" y="552" type="line"/>
    </contour>
  </outline>
</glyph>
<glyph name="bHa_bSignU" format="2">
  <advance width="610"/>
  <outline>
    <contour>
      <point x="342" y="106" type="line"/>
      <point x="458" y="131"/>
      <point x="546" y="195"/>
      <point x="546" y="298" type="curve" smooth="yes"/>
      <point x="546" y="359"/>
      <point x="517" y="396"/>
      <point x="487" y="428" type="curve" smooth="yes"/>
      <point x="461" y="455"/>
      <point x="435" y="479"/>
      <point x="427" y="510" type="curve"/>
      <point x="402" y="520" type="line"/>
      <point x="378" y="477"/>
      <point x="336" y="446"/>
      <point x="312" y="399" type="curve"/>
      <point x="326" y="306" type="line"/>
      <point x="350" y="296" type="line"/>
      <point x="369" y="354"/>
      <point x="421" y="393"/>
      <point x="439" y="428" type="curve"/>
      <point x="471" y="396"/>
      <point x="486" y="368"/>
      <point x="486" y="336" type="curve" smooth="yes"/>
      <point x="486" y="249"/>
      <point x="359" y="181"/>
      <point x="249" y="181" type="curve" smooth="yes"/>
      <point x="225" y="181"/>
      <point x="189" y="184"/>
      <point x="117" y="212" type="curve"/>
      <point x="112" y="207" type="line"/>
      <point x="176" y="88" type="line"/>
    </contour>
    <contour>
      <point x="652" y="-136" type="line"/>
      <point x="638" y="-87" type="line"/>
      <point x="593" y="-41"/>
      <point x="514" y="30"/>
      <point x="360" y="107" type="curve"/>
      <point x="360" y="126" type="line"/>
      <point x="176" y="88" type="line"/>
      <point x="343" y="52"/>
      <point x="477" y="-10"/>
      <point x="645" y="-136" type="curve"/>
    </contour>
    <contour>
      <point x="160" y="254" type="curve" smooth="yes"/>
      <point x="207" y="254"/>
      <point x="232" y="284"/>
      <point x="232" y="318" type="curve" smooth="yes"/>
      <point x="232" y="355"/>
      <point x="202" y="374"/>
      <point x="171" y="374" type="curve" smooth="yes"/>
      <point x="160" y="374"/>
      <point x="149" y="372"/>
      <point x="140" y="368" type="curve"/>
      <point x="140" y="408"/>
      <point x="171" y="430"/>
      <point x="211" y="430" type="curve" smooth="yes"/>
      <point x="265" y="430"/>
      <point x="306" y="398"/>
      <point x="326" y="306" type="curve"/>
      <point x="334" y="410" type="line"/>
      <point x="315" y="410" type="line"/>
      <point x="284" y="481"/>
      <point x="239" y="502"/>
      <point x="187" y="502" type="curve" smooth="yes"/>
      <point x="102" y="502"/>
      <point x="46" y="445"/>
      <point x="46" y="371" type="curve" smooth="yes"/>
      <point x="46" y="291"/>
      <point x="108" y="254"/>
    </contour>
    <contour>
      <point x="620" y="552" type="line"/>
      <point x="620" y="560" type="line"/>
      <point x="560" y="620" type="line"/>
      <point x="-50" y="620" type="line"/>
      <point x="-50" y="612" type="line"/>
      <point x="10" y="552" type="line"/>
    </contour>
  </outline>
</glyph>
<glyph name="bJJa" format="2">
  <advance width="1134"/>
  <outline>
    <contour>
      <point x="986" y="-82" type="line"/>
      <point x="973" y="-20"/>
      <point x="964" y="43"/>
      <point x="964" y="98" type="curve" smooth="yes"/>
      <point x="964" y="195"/>
      <point x="994" y="285"/>
      <point x="1088" y="359" type="curve"/>
      <point x="1088" y="365" type="line"/>
      <point x="975" y="454" type="line"/>
      <point x="937" y="433"/>
      <point x="895" y="420"/>
      <point x="851" y="420" type="curve" smooth="yes"/>
      <point x="762" y="420"/>
      <point x="714" y="475"/>
      <point x="680" y="521" type="curve"/>
      <point x="675" y="521" type="line"/>
      <point x="632" y="495"/>
      <point x="572" y="473"/>
      <point x="515" y="473" type="curve" smooth="yes"/>
      <point x="460" y="473"/>
      <point x="406" y="494"/>
      <point x="363" y="549" type="curve"/>
      <point x="332" y="533" type="line"/>
      <point x="385" y="450"/>
      <point x="457" y="410"/>
      <point x="545" y="410" type="curve"/>
      <point x="547" y="410"/>
      <point x="554" y="410"/>
      <point x="562" y="413" type="curve"/>
      <point x="706" y="437" type="line"/>
      <point x="755" y="384"/>
      <point x="828" y="351"/>
      <point x="893" y="351" type="curve" smooth="yes"/>
      <point x="916" y="351"/>
      <point x="937" y="355"/>
      <point x="958" y="362" type="curve"/>
      <point x="961" y="360" type="line"/>
      <point x="918" y="300"/>
      <point x="905" y="226"/>
      <point x="905" y="160" type="curve" smooth="yes"/>
      <point x="905" y="86"/>
      <point x="922" y="7"/>
      <point x="946" y="-64" type="curve"/>
      <point x="975" y="-82" type="line"/>
    </contour>
    <contour>
      <point x="319" y="106" type="curve" smooth="yes"/>
      <point x="402" y="106"/>
      <point x="450" y="146"/>
      <point x="470" y="215" type="curve"/>
      <point x="467" y="301" type="line"/>
      <point x="461" y="320"/>
      <point x="441" y="369"/>
      <point x="385" y="404" type="curve"/>
      <point x="380" y="403" type="line"/>
      <point x="336" y="364"/>
      <point x="296" y="345"/>
      <point x="260" y="345" type="curve" smooth="yes"/>
      <point x="231" y="345"/>
      <point x="215" y="360"/>
      <point x="215" y="383" type="curve" smooth="yes"/>
      <point x="215" y="448"/>
      <point x="313" y="522"/>
      <point x="427" y="567" type="curve"/>
      <point x="212" y="567" type="line"/>
      <point x="218" y="549" type="line"/>
      <point x="171" y="511"/>
      <point x="153" y="468"/>
      <point x="153" y="425" type="curve" smooth="yes"/>
      <point x="153" y="340"/>
      <point x="221" y="277"/>
      <point x="304" y="277" type="curve" smooth="yes"/>
      <point x="344" y="277"/>
      <point x="379" y="291"/>
      <point x="407" y="318" type="curve"/>
      <point x="423" y="306"/>
      <point x="431" y="285"/>
      <point x="431" y="270" type="curve" smooth="yes"/>
      <point x="431" y="226"/>
      <point x="378" y="192"/>
      <point x="307" y="192" type="curve" smooth="yes"/>
      <point x="185" y="192"/>
      <point x="96" y="287"/>
      <point x="65" y="493" type="curve"/>
      <point x="35" y="502" type="line"/>
      <point x="25" y="502" type="line"/>
      <point x="60" y="207"/>
      <point x="185" y="106"/>
    </contour>
    <contour>
      <point x="702" y="23" type="curve" smooth="yes"/>
      <point x="803" y="23"/>
      <point x="857" y="80"/>
      <point x="857" y="165" type="curve" smooth="yes"/>
      <point x="857" y="228"/>
      <point x="827" y="285"/>
      <point x="768" y="321" type="curve"/>
      <point x="763" y="320" type="line"/>
      <point x="719" y="281"/>
      <point x="679" y="262"/>
      <point x="643" y="262" type="curve" smooth="yes"/>
      <point x="616" y="262"/>
      <point x="598" y="276"/>
      <point x="598" y="300" type="curve" smooth="yes"/>
      <point x="598" y="356"/>
      <point x="664" y="407"/>
      <point x="724" y="443" type="curve"/>
      <point x="546" y="437" type="line"/>
      <point x="556" y="408" type="line"/>
      <point x="542" y="388"/>
      <point x="536" y="365"/>
      <point x="536" y="341" type="curve" smooth="yes"/>
      <point x="536" y="258"/>
      <point x="604" y="194"/>
      <point x="687" y="194" type="curve" smooth="yes"/>
      <point x="727" y="194"/>
      <point x="762" y="208"/>
      <point x="790" y="235" type="curve"/>
      <point x="806" y="223"/>
      <point x="813" y="203"/>
      <point x="813" y="188" type="curve" smooth="yes"/>
      <point x="813" y="144"/>
      <point x="762" y="109"/>
      <point x="688" y="109" type="curve" smooth="yes"/>
      <point x="536" y="109"/>
      <point x="481" y="256"/>
      <point x="467" y="301" type="curve"/>
      <point x="451" y="199" type="line"/>
      <point x="468" y="199" type="line"/>
      <point x="525" y="71"/>
      <point x="611" y="23"/>
    </contour>
    <contour>
      <point x="1144" y="552" type="line"/>
      <point x="1144" y="560" type="line"/>
      <point x="1084" y="620" type="line"/>
      <point x="-50" y="620" type="line"/>
      <point x="-50" y="612" type="line"/>
      <point x="10" y="552" type="line"/>
    </contour>
  </outline>
</glyph>
<glyph name="bJRa" format="2">
  <advance width="822"/>
  <outline>
    <contour>
      <point x="696" y="-133" type="line"/>
      <point x="674" y="-39"/>
      <point x="659" y="63"/>
      <point x="659" y="137" type="curve" smooth="yes"/>
      <point x="659" y="240"/>
      <point x="689" y="330"/>
      <point x="780" y="404" type="curve"/>
      <point x="780" y="410" type="line"/>
      <point x="667" y="499" type="line"/>
      <point x="628" y="479"/>
      <point x="587" y="465"/>
      <point x="540" y="465" type="curve" smooth="yes"/>
      <point x="494" y="465"/>
      <point x="439" y="477"/>
      <point x="400" y="548" type="curve"/>
      <point x="367" y="525" type="line"/>
      <point x="411" y="446"/>
      <point x="503" y="396"/>
      <point x="587" y="396" type="curve" smooth="yes"/>
      <point x="607" y="396"/>
      <point x="629" y="399"/>
      <point x="649" y="406" type="curve"/>
      <point x="652" y="404" type="line"/>
      <point x="614" y="348"/>
      <point x="598" y="273"/>
      <point x="598" y="200" type="curve" smooth="yes"/>
      <point x="598" y="94"/>
      <point x="628" y="-21"/>
      <point x="656" y="-115" type="curve"/>
      <point x="685" y="-133" type="line"/>
    </contour>
    <contour>
      <point x="645" y="-19" type="line"/>
      <point x="628" y="-27" type="line"/>
      <point x="566" y="31"/>
      <point x="514" y="42"/>
      <point x="446" y="42" type="curve" smooth="yes"/>
      <point x="382" y="42"/>
      <point x="295" y="32"/>
      <point x="237" y="32" type="curve" smooth="yes"/>
      <point x="126" y="32"/>
      <point x="82" y="70"/>
      <point x="82" y="137" type="curve" smooth="yes"/>
      <point x="82" y="155"/>
      <point x="86" y="179"/>
      <point x="95" y="202" type="curve"/>
      <point x="72" y="217" type="line"/>
      <point x="63" y="217" type="line"/>
      <point x="46" y="187"/>
      <point x="36" y="149"/>
      <point x="36" y="114" type="curve" smooth="yes"/>
      <point x="36" y="12"/>
      <point x="126" y="-51"/>
      <point x="257" y="-51" type="curve" smooth="yes"/>
      <point x="320" y="-51"/>
      <point x="441" y="-36"/>
      <point x="513" y="-36" type="curve" smooth="yes"/>
      <point x="601" y="-36"/>
      <point x="632" y="-58"/>
      <point x="656" y="-115" type="curve"/>
    </contour>
    <contour>
      <point x="365" y="88" type="curve" smooth="yes"/>
      <point x="474" y="88"/>
      <point x="536" y="148"/>
      <point x="536" y="241" type="curve" smooth="yes"/>
      <point x="536" y="312"/>
      <point x="500" y="370"/>
      <point x="427" y="407" type="curve"/>
      <point x="422" y="406" type="line"/>
      <point x="374" y="367"/>
      <point x="328" y="347"/>
      <point x="295" y="347" type="curve" smooth="yes"/>
      <point x="268" y="347"/>
      <point x="251" y="362"/>
      <point x="251" y="386" type="curve" smooth="yes"/>
      <point x="251" y="447"/>
      <point x="352" y="515"/>
      <point x="462" y="561" type="curve"/>
      <point x="251" y="567" type="line"/>
      <point x="257" y="549" type="line"/>
      <point x="207" y="512"/>
      <point x="187" y="472"/>
      <point x="187" y="427" type="curve" smooth="yes"/>
      <point x="187" y="341"/>
      <point x="257" y="274"/>
      <point x="343" y="274" type="curve" smooth="yes"/>
      <point x="387" y="274"/>
      <point x="433" y="292"/>
      <point x="464" y="320" type="curve"/>
      <point x="479" y="305"/>
      <point x="487" y="285"/>
      <point x="487" y="268" type="curve" smooth="yes"/>
      <point x="487" y="225"/>
      <point x="441" y="180"/>
      <point x="353" y="180" type="curve" smooth="yes"/>
      <point x="223" y="180"/>
      <point x="147" y="279"/>
      <point x="102" y="477" type="curve"/>
      <point x="72" y="486" type="line"/>
      <point x="62" y="486" type="line"/>
      <point x="109" y="184"/>
      <point x="228" y="88"/>
    </contour>
    <contour>
      <point x="832" y="552" type="line"/>
      <point x="832" y="560" type="line"/>
      <point x="772" y="620" type="line"/>
      <point x="-50" y="620" type="line"/>
      <point x="-50" y="612" type="line"/>
      <point x="10" y="552" type="line"/>
    </contour>
  </outline>
</glyph>
<glyph name="bKBa" format="2">
  <advance width="728"/>
  <outline>
    <contour>
      <point x="573" y="168" type="curve" smooth="yes"/>
      <point x="622" y="168"/>
      <point x="676" y="204"/>
      <point x="676" y="290" type="curve" smooth="yes"/>
      <point x="676" y="420"/>
      <point x="556" y="514"/>
      <point x="434" y="514" type="curve" smooth="yes"/>
      <point x="318" y="514"/>
      <point x="224" y="466"/>
      <point x="19" y="351" type="curve"/>
      <point x="91" y="260" type="line"/>
      <point x="136" y="259"/>
      <point x="173" y="253"/>
      <point x="209" y="237" type="curve"/>
      <point x="255" y="259" type="line"/>
      <point x="223" y="288"/>
      <point x="187" y="308"/>
      <point x="151" y="324" type="curve"/>
      <point x="151" y="327" type="line"/>
      <point x="261" y="390"/>
      <point x="358" y="431"/>
      <point x="430" y="431" type="curve" smooth="yes"/>
      <point x="555" y="431"/>
      <point x="639" y="357"/>
      <point x="639" y="298" type="curve" smooth="yes"/>
      <point x="639" y="286"/>
      <point x="636" y="276"/>
      <point x="629" y="264" type="curve"/>
      <point x="614" y="293"/>
      <point x="588" y="306"/>
      <point x="563" y="306" type="curve" smooth="yes"/>
      <point x="528" y="306"/>
      <point x="495" y="280"/>
      <point x="495" y="238" type="curve" smooth="yes"/>
      <point x="495" y="194"/>
      <point x="532" y="168"/>
    </contour>
    <contour>
      <point x="395" y="53" type="line"/>
      <point x="379" y="42" type="line"/>
      <point x="325" y="101"/>
      <point x="269" y="134"/>
      <point x="216" y="151" type="curve"/>
      <point x="216" y="154" type="line"/>
      <point x="257" y="181"/>
      <point x="326" y="221"/>
      <point x="388" y="235" type="curve"/>
      <point x="386" y="319" type="line"/>
      <point x="288" y="301"/>
      <point x="197" y="246"/>
      <point x="86" y="174" type="curve"/>
      <point x="153" y="90" type="line"/>
      <point x="284" y="80"/>
      <point x="382" y="12"/>
      <point x="414" y="-82" type="curve"/>
    </contour>
    <contour>
      <point x="452" y="-98" type="line"/>
      <point x="449" y="3"/>
      <point x="449" y="67"/>
      <point x="449" y="143" type="curve" smooth="yes"/>
      <point x="449" y="568" type="line"/>
      <point x="372" y="568" type="line"/>
      <point x="372" y="440" type="line"/>
      <point x="371" y="255" type="line"/>
      <point x="374" y="142"/>
      <point x="375" y="62"/>
      <point x="384" y="38" type="curve"/>
      <point x="414" y="-82" type="line"/>
      <point x="441" y="-98" type="line"/>
    </contour>
    <contour>
      <point x="738" y="552" type="line"/>
      <point x="738" y="560" type="line"/>
      <point x="678" y="620" type="line"/>
      <point x="-50" y="620" type="line"/>
      <point x="-50" y="612" type="line"/>
      <point x="10" y="552" type="line"/>
    </contour>
  </outline>
</glyph>
<glyph name="bKNa" format="2">
  <advance width="734"/>
  <outline>
    <contour>
      <point x="397" y="192" type="line"/>
      <point x="381" y="181" type="line"/>
      <point x="312" y="273"/>
      <point x="232" y="312"/>
      <point x="159" y="334" type="curve"/>
      <point x="159" y="336" type="line"/>
      <point x="281" y="403"/>
      <point x="369" y="434"/>
      <point x="438" y="434" type="curve" smooth="yes"/>
      <point x="560" y="434"/>
      <point x="645" y="360"/>
      <point x="645" y="300" type="curve" smooth="yes"/>
      <point x="645" y="289"/>
      <point x="642" y="276"/>
      <point x="635" y="264" type="curve"/>
      <point x="620" y="293"/>
      <point x="594" y="306"/>
      <point x="569" y="306" type="curve" smooth="yes"/>
      <point x="534" y="306"/>
      <point x="501" y="280"/>
      <point x="501" y="238" type="curve" smooth="yes"/>
      <point x="501" y="194"/>
      <point x="538" y="168"/>
      <point x="579" y="168" type="curve" smooth="yes"/>
      <point x="628" y="168"/>
      <point x="682" y="207"/>
      <point x="682" y="293" type="curve" smooth="yes"/>
      <point x="682" y="427"/>
      <point x="559" y="518"/>
      <point x="431" y="518" type="curve" smooth="yes"/>
      <point x="344" y="518"/>
      <point x="219" y="474"/>
      <point x="23" y="363" type="curve"/>
      <point x="102" y="264" type="line"/>
      <point x="284" y="253"/>
      <point x="386" y="168"/>
      <point x="406" y="26" type="curve"/>
    </contour>
    <contour>
      <point x="415" y="62" type="line"/>
      <point x="397" y="56" type="line"/>
      <point x="349" y="141"/>
      <point x="276" y="162"/>
      <point x="223" y="162" type="curve" smooth="yes"/>
      <point x="142" y="162"/>
      <point x="103" y="113"/>
      <point x="103" y="63" type="curve" smooth="yes"/>
      <point x="103" y="14"/>
      <point x="141" y="-22"/>
      <point x="193" y="-22" type="curve" smooth="yes"/>
      <point x="244" y="-22"/>
      <point x="269" y="14"/>
      <point x="269" y="50" type="curve" smooth="yes"/>
      <point x="269" y="68"/>
      <point x="263" y="86"/>
      <point x="250" y="100" type="curve"/>
      <point x="251" y="102" type="line"/>
      <point x="361" y="95"/>
      <point x="403" y="-6"/>
      <point x="418" y="-65" type="curve"/>
    </contour>
    <contour>
      <point x="458" y="-83" type="line"/>
      <point x="455" y="18"/>
      <point x="455" y="82"/>
      <point x="455" y="158" type="curve" smooth="yes"/>
      <point x="455" y="568" type="line"/>
      <point x="376" y="568" type="line"/>
      <point x="376" y="439" type="line" smooth="yes"/>
      <point x="376" y="273"/>
      <point x="377" y="218"/>
      <point x="386" y="174" type="curve"/>
      <point x="418" y="-65" type="line"/>
      <point x="447" y="-83" type="line"/>
    </contour>
    <contour>
      <point x="744" y="552" type="line"/>
      <point x="744" y="560" type="line"/>
      <point x="684" y="620" type="line"/>
      <point x="-50" y="620" type="line"/>
      <point x="-50" y="612" type="line"/>
      <point x="10" y="552" type="line"/>
    </contour>
  </outline>
</glyph>
<glyph name="bKSsMa" format="2">
  <advance width="916"/>
  <outline>
    <contour>
      <point x="488" y="207" type="line"/>
      <point x="470" y="201" type="line"/>
      <point x="425" y="266"/>
      <point x="318" y="329"/>
      <point x="267" y="329" type="curve" smooth="yes"/>
      <point x="217" y="329"/>
      <point x="178" y="303"/>
      <point x="178" y="256" type="curve" smooth="yes"/>
      <point x="178" y="211"/>
      <point x="216" y="183"/>
      <point x="257" y="183" type="curve" smooth="yes"/>
      <point x="315" y="183"/>
      <point x="351" y="231"/>
      <point x="351" y="288" type="curve" smooth="yes"/>
      <point x="351" y="405"/>
      <point x="247" y="499"/>
      <point x="139" y="499" type="curve" smooth="yes"/>
      <point x="69" y="499"/>
      <point x="25" y="458"/>
      <point x="25" y="414" type="curve" smooth="yes"/>
      <point x="25" y="371"/>
      <point x="64" y="340"/>
      <point x="104" y="340" type="curve" smooth="yes"/>
      <point x="149" y="340"/>
      <point x="180" y="367"/>
      <point x="180" y="443" type="curve" smooth="yes"/>
      <point x="180" y="490"/>
      <point x="168" y="536"/>
      <point x="137" y="568" type="curve"/>
      <point x="39" y="552" type="line"/>
      <point x="95" y="552"/>
      <point x="134" y="542"/>
      <point x="134" y="438" type="curve"/>
      <point x="160" y="428" type="line"/>
      <point x="174" y="433"/>
      <point x="181" y="433"/>
      <point x="191" y="433" type="curve" smooth="yes"/>
      <point x="243" y="433"/>
      <point x="288" y="399"/>
      <point x="288" y="355" type="curve" smooth="yes"/>
      <point x="288" y="341"/>
      <point x="283" y="327"/>
      <point x="270" y="314" type="curve"/>
      <point x="325" y="239" type="line"/>
      <point x="393" y="233"/>
      <point x="455" y="184"/>
      <point x="488" y="115" type="curve"/>
    </contour>
    <contour>
      <point x="783" y="35" type="line"/>
      <point x="767" y="24" type="line"/>
      <point x="687" y="120"/>
      <point x="574" y="152"/>
      <point x="504" y="152" type="curve" smooth="yes"/>
      <point x="423" y="152"/>
      <point x="390" y="108"/>
      <point x="390" y="63" type="curve" smooth="yes"/>
      <point x="390" y="19"/>
      <point x="422" y="-24"/>
      <point x="480" y="-24" type="curve" smooth="yes"/>
      <point x="536" y="-24"/>
      <point x="565" y="9"/>
      <point x="573" y="70" type="curve"/>
      <point x="685" y="60"/>
      <point x="765" y="14"/>
      <point x="808" y="-116" type="curve"/>
    </contour>
    <contour>
      <point x="546" y="122" type="line"/>
      <point x="544" y="168"/>
      <point x="542" y="214"/>
      <point x="542" y="289" type="curve" smooth="yes"/>
      <point x="542" y="568" type="line"/>
      <point x="463" y="568" type="line"/>
      <point x="463" y="388" type="line" smooth="yes"/>
      <point x="463" y="242"/>
      <point x="473" y="177"/>
      <point x="494" y="115" type="curve"/>
    </contour>
    <contour>
      <point x="644" y="251" type="curve" smooth="yes"/>
      <point x="686" y="251"/>
      <point x="730" y="284"/>
      <point x="730" y="348" type="curve" smooth="yes"/>
      <point x="730" y="431"/>
      <point x="657" y="494"/>
      <point x="595" y="494" type="curve" smooth="yes"/>
      <point x="552" y="494"/>
      <point x="441" y="465"/>
      <point x="410" y="465" type="curve" smooth="yes"/>
      <point x="380" y="465"/>
      <point x="363" y="493"/>
      <point x="363" y="520" type="curve" smooth="yes"/>
      <point x="363" y="536"/>
      <point x="370" y="552"/>
      <point x="383" y="568" type="curve"/>
      <point x="290" y="568" type="line"/>
      <point x="316" y="492"/>
      <point x="380" y="394"/>
      <point x="465" y="394" type="curve" smooth="yes"/>
      <point x="508" y="394"/>
      <point x="571" y="419"/>
      <point x="623" y="419" type="curve" smooth="yes"/>
      <point x="673" y="419"/>
      <point x="694" y="397"/>
      <point x="694" y="366" type="curve" smooth="yes"/>
      <point x="694" y="356"/>
      <point x="692" y="343"/>
      <point x="685" y="336" type="curve"/>
      <point x="673" y="352"/>
      <point x="653" y="360"/>
      <point x="635" y="360" type="curve" smooth="yes"/>
      <point x="605" y="360"/>
      <point x="578" y="341"/>
      <point x="578" y="308" type="curve" smooth="yes"/>
      <point x="578" y="271"/>
      <point x="611" y="251"/>
    </contour>
    <contour>
      <point x="846" y="-133" type="line"/>
      <point x="842" y="-32"/>
      <point x="841" y="32"/>
      <point x="841" y="108" type="curve" smooth="yes"/>
      <point x="841" y="568" type="line"/>
      <point x="762" y="568" type="line"/>
      <point x="762" y="307" type="line" smooth="yes"/>
      <point x="762" y="153"/>
      <point x="761" y="59"/>
      <point x="773" y="13" type="curve" smooth="yes"/>
      <point x="808" y="-116" type="line"/>
      <point x="835" y="-133" type="line"/>
    </contour>
    <contour>
      <point x="926" y="552" type="line"/>
      <point x="926" y="560" type="line"/>
      <point x="866" y="620" type="line"/>
      <point x="-50" y="620" type="line"/>
      <point x="-50" y="612" type="line"/>
      <point x="10" y="552" type="line"/>
    </contour>
  </outline>
</glyph>
<glyph name="bKSsRa" format="2">
  <advance width="860"/>
  <outline>
    <contour>
      <point x="546" y="40" type="line"/>
      <point x="509" y="196" type="line"/>
      <point x="487" y="190" type="line"/>
      <point x="448" y="263"/>
      <point x="332" y="328"/>
      <point x="282" y="328" type="curve" smooth="yes"/>
      <point x="230" y="328"/>
      <point x="191" y="303"/>
      <point x="191" y="256" type="curve" smooth="yes"/>
      <point x="191" y="211"/>
      <point x="229" y="183"/>
      <point x="270" y="183" type="curve" smooth="yes"/>
      <point x="315" y="183"/>
      <point x="364" y="216"/>
      <point x="364" y="290" type="curve" smooth="yes"/>
      <point x="364" y="404"/>
      <point x="260" y="499"/>
      <point x="152" y="499" type="curve" smooth="yes"/>
      <point x="82" y="499"/>
      <point x="38" y="458"/>
      <point x="38" y="414" type="curve" smooth="yes"/>
      <point x="38" y="371"/>
      <point x="78" y="340"/>
      <point x="117" y="340" type="curve" smooth="yes"/>
      <point x="160" y="340"/>
      <point x="193" y="369"/>
      <point x="193" y="436" type="curve" smooth="yes"/>
      <point x="193" y="488"/>
      <point x="181" y="537"/>
      <point x="150" y="568" type="curve"/>
      <point x="52" y="552" type="line"/>
      <point x="108" y="552"/>
      <point x="147" y="542"/>
      <point x="147" y="438" type="curve"/>
      <point x="173" y="428" type="line"/>
      <point x="187" y="433"/>
      <point x="194" y="433"/>
      <point x="204" y="433" type="curve" smooth="yes"/>
      <point x="256" y="433"/>
      <point x="302" y="398"/>
      <point x="302" y="355" type="curve" smooth="yes"/>
      <point x="302" y="341"/>
      <point x="299" y="327"/>
      <point x="283" y="314" type="curve"/>
      <point x="338" y="240" type="line"/>
      <point x="440" y="224"/>
      <point x="498" y="156"/>
      <point x="504" y="40" type="curve"/>
    </contour>
    <contour>
      <point x="527" y="57" type="line"/>
      <point x="500" y="43" type="line"/>
      <point x="450" y="97"/>
      <point x="379" y="112"/>
      <point x="334" y="112" type="curve" smooth="yes"/>
      <point x="304" y="112"/>
      <point x="215" y="105"/>
      <point x="179" y="105" type="curve" smooth="yes"/>
      <point x="109" y="105"/>
      <point x="81" y="132"/>
      <point x="81" y="179" type="curve" smooth="yes"/>
      <point x="81" y="201"/>
      <point x="87" y="228"/>
      <point x="100" y="258" type="curve"/>
      <point x="78" y="272" type="line"/>
      <point x="69" y="272" type="line"/>
      <point x="47" y="236"/>
      <point x="35" y="196"/>
      <point x="35" y="158" type="curve" smooth="yes"/>
      <point x="35" y="85"/>
      <point x="81" y="22"/>
      <point x="193" y="22" type="curve" smooth="yes"/>
      <point x="241" y="22"/>
      <point x="347" y="33"/>
      <point x="400" y="33" type="curve" smooth="yes"/>
      <point x="459" y="33"/>
      <point x="509" y="19"/>
      <point x="527" y="-45" type="curve"/>
    </contour>
    <contour>
      <point x="566" y="-62" type="line"/>
      <point x="560" y="53"/>
      <point x="559" y="119"/>
      <point x="559" y="194" type="curve" smooth="yes"/>
      <point x="559" y="568" type="line"/>
      <point x="480" y="568" type="line"/>
      <point x="480" y="388" type="line" smooth="yes"/>
      <point x="480" y="273"/>
      <point x="486" y="220"/>
      <point x="491" y="182" type="curve"/>
      <point x="527" y="-45" type="line"/>
      <point x="555" y="-62" type="line"/>
    </contour>
    <contour>
      <point x="706" y="191" type="curve" smooth="yes"/>
      <point x="756" y="191"/>
      <point x="810" y="228"/>
      <point x="810" y="307" type="curve" smooth="yes"/>
      <point x="810" y="396"/>
      <point x="726" y="472"/>
      <point x="641" y="472" type="curve" smooth="yes"/>
      <point x="596" y="472"/>
      <point x="486" y="452"/>
      <point x="450" y="452" type="curve" smooth="yes"/>
      <point x="407" y="452"/>
      <point x="376" y="484"/>
      <point x="376" y="519" type="curve" smooth="yes"/>
      <point x="376" y="526"/>
      <point x="377" y="545"/>
      <point x="393" y="563" type="curve"/>
      <point x="304" y="563" type="line"/>
      <point x="339" y="458"/>
      <point x="430" y="374"/>
      <point x="505" y="374" type="curve" smooth="yes"/>
      <point x="565" y="374"/>
      <point x="619" y="389"/>
      <point x="677" y="389" type="curve" smooth="yes"/>
      <point x="747" y="389"/>
      <point x="774" y="361"/>
      <point x="774" y="324" type="curve" smooth="yes"/>
      <point x="774" y="308"/>
      <point x="770" y="296"/>
      <point x="759" y="286" type="curve"/>
      <point x="743" y="312"/>
      <point x="717" y="324"/>
      <point x="693" y="324" type="curve" smooth="yes"/>
      <point x="659" y="324"/>
      <point x="627" y="301"/>
      <point x="627" y="260" type="curve" smooth="yes"/>
      <point x="627" y="215"/>
      <point x="665" y="191"/>
    </contour>
    <contour>
      <point x="870" y="552" type="line"/>
      <point x="870" y="560" type="line"/>
      <point x="810" y="620" type="line"/>
      <point x="-50" y="620" type="line"/>
      <point x="-50" y="612" type="line"/>
      <point x="10" y="552" type="line"/>
    </contour>
  </outline>
</glyph>
<glyph name="bKSsa" format="2">
  <advance width="847"/>
  <outline>
    <contour>
      <point x="516" y="158" type="line"/>
      <point x="498" y="152" type="line"/>
      <point x="449" y="237"/>
      <point x="371" y="299"/>
      <point x="285" y="299" type="curve" smooth="yes"/>
      <point x="228" y="299"/>
      <point x="194" y="258"/>
      <point x="194" y="216" type="curve" smooth="yes"/>
      <point x="194" y="169"/>
      <point x="237" y="135"/>
      <point x="280" y="135" type="curve" smooth="yes"/>
      <point x="328" y="135"/>
      <point x="375" y="176"/>
      <point x="383" y="255" type="curve"/>
      <point x="386" y="385"/>
      <point x="257" y="493"/>
      <point x="143" y="493" type="curve" smooth="yes"/>
      <point x="68" y="493"/>
      <point x="24" y="449"/>
      <point x="24" y="400" type="curve" smooth="yes"/>
      <point x="24" y="355"/>
      <point x="64" y="321"/>
      <point x="108" y="321" type="curve" smooth="yes"/>
      <point x="151" y="321"/>
      <point x="191" y="352"/>
      <point x="191" y="411" type="curve" smooth="yes"/>
      <point x="191" y="447"/>
      <point x="180" y="514"/>
      <point x="134" y="568" type="curve"/>
      <point x="33" y="552" type="line"/>
      <point x="88" y="552"/>
      <point x="138" y="535"/>
      <point x="143" y="425" type="curve"/>
      <point x="156" y="410" type="line"/>
      <point x="184" y="419"/>
      <point x="203" y="419"/>
      <point x="205" y="419" type="curve"/>
      <point x="277" y="419"/>
      <point x="312" y="373"/>
      <point x="312" y="330" type="curve" smooth="yes"/>
      <point x="312" y="314"/>
      <point x="308" y="298"/>
      <point x="293" y="285" type="curve"/>
      <point x="358" y="210" type="line"/>
      <point x="452" y="203"/>
      <point x="511" y="97"/>
      <point x="533" y="-15" type="curve"/>
    </contour>
    <contour>
      <point x="574" y="-33" type="line"/>
      <point x="570" y="68"/>
      <point x="570" y="132"/>
      <point x="570" y="208" type="curve" smooth="yes"/>
      <point x="570" y="569" type="line"/>
      <point x="491" y="569" type="line"/>
      <point x="491" y="350" type="line" smooth="yes"/>
      <point x="491" y="234"/>
      <point x="496" y="181"/>
      <point x="503" y="143" type="curve" smooth="yes"/>
      <point x="533" y="-15" type="line"/>
      <point x="562" y="-33" type="line"/>
    </contour>
    <contour>
      <point x="692" y="191" type="curve" smooth="yes"/>
      <point x="743" y="191"/>
      <point x="797" y="229"/>
      <point x="797" y="304" type="curve" smooth="yes"/>
      <point x="797" y="398"/>
      <point x="713" y="472"/>
      <point x="628" y="472" type="curve" smooth="yes"/>
      <point x="583" y="472"/>
      <point x="469" y="452"/>
      <point x="433" y="452" type="curve" smooth="yes"/>
      <point x="390" y="452"/>
      <point x="359" y="484"/>
      <point x="359" y="519" type="curve" smooth="yes"/>
      <point x="359" y="537"/>
      <point x="365" y="554"/>
      <point x="378" y="562" type="curve"/>
      <point x="286" y="566" type="line"/>
      <point x="314" y="480"/>
      <point x="393" y="374"/>
      <point x="497" y="374" type="curve" smooth="yes"/>
      <point x="537" y="374"/>
      <point x="611" y="389"/>
      <point x="664" y="389" type="curve" smooth="yes"/>
      <point x="734" y="389"/>
      <point x="761" y="361"/>
      <point x="761" y="323" type="curve" smooth="yes"/>
      <point x="761" y="308"/>
      <point x="757" y="296"/>
      <point x="746" y="286" type="curve"/>
      <point x="730" y="312"/>
      <point x="704" y="324"/>
      <point x="680" y="324" type="curve" smooth="yes"/>
      <point x="646" y="324"/>
      <point x="614" y="301"/>
      <point x="614" y="260" type="curve" smooth="yes"/>
      <point x="614" y="215"/>
      <point x="653" y="191"/>
    </contour>
    <contour>
      <point x="857" y="552" type="line"/>
      <point x="857" y="560" type="line"/>
      <point x="797" y="620" type="line"/>
      <point x="-50" y="620" type="line"/>
      <point x="-50" y="612" type="line"/>
      <point x="10" y="552" type="line"/>
    </contour>
  </outline>
</glyph>
<glyph name="bKTBa" format="2">
  <advance width="861"/>
  <outline>
    <contour>
      <point x="562" y="99" type="line"/>
      <point x="598" y="123"/>
      <point x="615" y="159"/>
      <point x="615" y="198" type="curve" smooth="yes"/>
      <point x="615" y="242"/>
      <point x="591" y="287"/>
      <point x="555" y="312" type="curve"/>
      <point x="520" y="277" type="line"/>
      <point x="544" y="271"/>
      <point x="560" y="254"/>
      <point x="560" y="233" type="curve" smooth="yes"/>
      <point x="560" y="194"/>
      <point x="517" y="161"/>
      <point x="436" y="161" type="curve" smooth="yes"/>
      <point x="307" y="161"/>
      <point x="149" y="245"/>
      <point x="57" y="500" type="curve"/>
      <point x="27" y="509" type="line"/>
      <point x="17" y="509" type="line"/>
      <point x="84" y="262"/>
      <point x="214" y="132"/>
      <point x="349" y="90" type="curve"/>
      <point x="349" y="85" type="line"/>
    </contour>
    <contour>
      <point x="572" y="-145" type="line"/>
      <point x="569" y="-78"/>
      <point x="569" y="-30"/>
      <point x="569" y="48" type="curve" smooth="yes"/>
      <point x="569" y="121" type="line"/>
      <point x="396" y="111" type="line"/>
      <point x="355" y="91"/>
      <point x="311" y="67"/>
      <point x="266" y="41" type="curve"/>
      <point x="328" y="-36" type="line"/>
      <point x="434" y="-45"/>
      <point x="512" y="-86"/>
      <point x="533" y="-131" type="curve"/>
      <point x="521" y="-41" type="line"/>
      <point x="505" y="-56" type="line"/>
      <point x="473" y="-18"/>
      <point x="417" y="12"/>
      <point x="378" y="23" type="curve"/>
      <point x="377" y="26" type="line"/>
      <point x="413" y="47"/>
      <point x="461" y="69"/>
      <point x="498" y="84" type="curve"/>
      <point x="498" y="28"/>
      <point x="498" y="-42"/>
      <point x="510" y="-61" type="curve"/>
      <point x="533" y="-131" type="line"/>
      <point x="562" y="-145" type="line"/>
    </contour>
    <contour>
      <point x="469" y="250" type="curve" smooth="yes"/>
      <point x="543" y="250"/>
      <point x="593" y="335"/>
      <point x="593" y="403" type="curve" smooth="yes"/>
      <point x="593" y="475"/>
      <point x="530" y="522"/>
      <point x="429" y="522" type="curve" smooth="yes"/>
      <point x="304" y="522"/>
      <point x="203" y="449"/>
      <point x="203" y="365" type="curve" smooth="yes"/>
      <point x="203" y="311"/>
      <point x="245" y="280"/>
      <point x="290" y="280" type="curve" smooth="yes"/>
      <point x="336" y="280"/>
      <point x="358" y="311"/>
      <point x="358" y="342" type="curve" smooth="yes"/>
      <point x="358" y="364"/>
      <point x="345" y="386"/>
      <point x="322" y="398" type="curve"/>
      <point x="367" y="448"/>
      <point x="434" y="470"/>
      <point x="479" y="470" type="curve" smooth="yes"/>
      <point x="510" y="470"/>
      <point x="538" y="459"/>
      <point x="538" y="431" type="curve" smooth="yes"/>
      <point x="538" y="413"/>
      <point x="526" y="385"/>
      <point x="506" y="367" type="curve"/>
      <point x="494" y="373"/>
      <point x="479" y="377"/>
      <point x="466" y="377" type="curve" smooth="yes"/>
      <point x="430" y="377"/>
      <point x="396" y="355"/>
      <point x="396" y="314" type="curve" smooth="yes"/>
      <point x="396" y="274"/>
      <point x="430" y="250"/>
    </contour>
    <contour>
      <point x="871" y="552" type="line"/>
      <point x="871" y="560" type="line"/>
      <point x="811" y="620" type="line"/>
      <point x="-50" y="620" type="line"/>
      <point x="-50" y="612" type="line"/>
      <point x="10" y="552" type="line"/>
    </contour>
    <contour>
      <point x="703" y="232" type="curve" smooth="yes"/>
      <point x="763" y="232"/>
      <point x="820" y="280"/>
      <point x="820" y="353" type="curve" smooth="yes"/>
      <point x="820" y="418"/>
      <point x="774" y="469"/>
      <point x="710" y="469" type="curve" smooth="yes"/>
      <point x="665" y="469"/>
      <point x="627" y="444"/>
      <point x="596" y="390" type="curve"/>
      <point x="587" y="392" type="line"/>
      <point x="550" y="309" type="line"/>
      <point x="564" y="302" type="line"/>
      <point x="593" y="350"/>
      <point x="633" y="403"/>
      <point x="694" y="403" type="curve" smooth="yes"/>
      <point x="739" y="403"/>
      <point x="772" y="373"/>
      <point x="772" y="340" type="curve" smooth="yes"/>
      <point x="772" y="321"/>
      <point x="761" y="296"/>
      <point x="744" y="289" type="curve"/>
      <point x="736" y="324"/>
      <point x="708" y="341"/>
      <point x="682" y="341" type="curve" smooth="yes"/>
      <point x="650" y="341"/>
      <point x="632" y="318"/>
      <point x="632" y="292" type="curve" smooth="yes"/>
      <point x="632" y="263"/>
      <point x="656" y="232"/>
    </contour>
  </outline>
</glyph>
<glyph name="bKhBa" format="2">
  <advance width="620"/>
  <outline>
    <contour>
      <point x="278" y="301" type="line"/>
      <point x="376" y="321"/>
      <point x="417" y="378"/>
      <point x="417" y="444" type="curve" smooth="yes"/>
      <point x="417" y="511"/>
      <point x="373" y="578"/>
      <point x="307" y="621" type="curve"/>
      <point x="301" y="620" type="line"/>
      <point x="260" y="555"/>
      <point x="186" y="525"/>
      <point x="153" y="522" type="curve"/>
      <point x="151" y="568"/>
      <point x="117" y="591"/>
      <point x="84" y="591" type="curve" smooth="yes"/>
      <point x="52" y="591"/>
      <point x="20" y="569"/>
      <point x="20" y="525" type="curve" smooth="yes"/>
      <point x="20" y="463"/>
      <point x="79" y="437"/>
      <point x="139" y="437" type="curve" smooth="yes"/>
      <point x="218" y="437"/>
      <point x="296" y="483"/>
      <point x="334" y="529" type="curve"/>
      <point x="350" y="514"/>
      <point x="357" y="498"/>
      <point x="357" y="480" type="curve" smooth="yes"/>
      <point x="357" y="420"/>
      <point x="278" y="361"/>
      <point x="124" y="361" type="curve" smooth="yes"/>
      <point x="113" y="361"/>
      <point x="103" y="361"/>
      <point x="93" y="362" type="curve"/>
      <point x="91" y="355" type="line"/>
    </contour>
    <contour>
      <point x="497" y="-4" type="line"/>
      <point x="484" y="-17" type="line"/>
      <point x="448" y="29"/>
      <point x="388" y="63"/>
      <point x="350" y="77" type="curve"/>
      <point x="349" y="80" type="line"/>
      <point x="385" y="103"/>
      <point x="426" y="120"/>
      <point x="465" y="137" type="curve"/>
      <point x="420" y="199" type="line"/>
      <point x="354" y="168"/>
      <point x="291" y="135"/>
      <point x="235" y="101" type="curve"/>
      <point x="301" y="18" type="line"/>
      <point x="410" y="8"/>
      <point x="482" y="-39"/>
      <point x="509" y="-90" type="curve"/>
    </contour>
    <contour>
      <point x="495" y="171" type="line"/>
      <point x="479" y="160" type="line"/>
      <point x="431" y="228"/>
      <point x="361" y="276"/>
      <point x="299" y="304" type="curve"/>
      <point x="299" y="322" type="line"/>
      <point x="91" y="355" type="line"/>
      <point x="170" y="260" type="line"/>
      <point x="317" y="248"/>
      <point x="430" y="184"/>
      <point x="488" y="101" type="curve"/>
    </contour>
    <contour>
      <point x="548" y="-106" type="line"/>
      <point x="545" y="-44"/>
      <point x="545" y="-4"/>
      <point x="545" y="68" type="curve" smooth="yes"/>
      <point x="545" y="550" type="line"/>
      <point x="630" y="550" type="line"/>
      <point x="630" y="558" type="line"/>
      <point x="570" y="620" type="line"/>
      <point x="468" y="620" type="line"/>
      <point x="468" y="430" type="line" smooth="yes"/>
      <point x="468" y="275"/>
      <point x="475" y="184"/>
      <point x="484" y="155" type="curve"/>
      <point x="473" y="133" type="line"/>
      <point x="474" y="64"/>
      <point x="479" y="-1"/>
      <point x="489" y="-23" type="curve"/>
      <point x="509" y="-90" type="line"/>
      <point x="539" y="-106" type="line"/>
    </contour>
  </outline>
</glyph>
<glyph name="bLGha" format="2">
  <advance width="884"/>
  <outline>
    <contour>
      <point x="753" y="127" type="line"/>
      <point x="737" y="116" type="line"/>
      <point x="666" y="191"/>
      <point x="589" y="233"/>
      <point x="517" y="252" type="curve"/>
      <point x="516" y="255" type="line"/>
      <point x="566" y="297"/>
      <point x="623" y="335"/>
      <point x="681" y="375" type="curve"/>
      <point x="625" y="449" type="line"/>
      <point x="574" y="411"/>
      <point x="475" y="342"/>
      <point x="394" y="274" type="curve"/>
      <point x="459" y="189" type="line"/>
      <point x="628" y="176"/>
      <point x="742" y="78"/>
      <point x="776" y="-16" type="curve"/>
    </contour>
    <contour>
      <point x="167" y="168" type="curve" smooth="yes"/>
      <point x="222" y="168"/>
      <point x="244" y="198"/>
      <point x="244" y="227" type="curve" smooth="yes"/>
      <point x="244" y="255"/>
      <point x="225" y="280"/>
      <point x="193" y="280" type="curve" smooth="yes"/>
      <point x="165" y="280"/>
      <point x="145" y="260"/>
      <point x="145" y="236" type="curve" smooth="yes"/>
      <point x="145" y="226"/>
      <point x="148" y="215"/>
      <point x="156" y="205" type="curve"/>
      <point x="155" y="203" type="line"/>
      <point x="117" y="203"/>
      <point x="98" y="235"/>
      <point x="98" y="266" type="curve" smooth="yes"/>
      <point x="98" y="308"/>
      <point x="135" y="342"/>
      <point x="181" y="342" type="curve" smooth="yes"/>
      <point x="226" y="342"/>
      <point x="274" y="312"/>
      <point x="297" y="257" type="curve"/>
      <point x="277" y="330" type="line"/>
      <point x="247" y="379"/>
      <point x="204" y="418"/>
      <point x="147" y="418" type="curve" smooth="yes"/>
      <point x="83" y="418"/>
      <point x="31" y="365"/>
      <point x="31" y="299" type="curve" smooth="yes"/>
      <point x="31" y="229"/>
      <point x="87" y="168"/>
    </contour>
    <contour>
      <point x="324" y="249" type="line"/>
      <point x="323" y="256"/>
      <point x="323" y="261"/>
      <point x="323" y="262" type="curve"/>
      <point x="323" y="316"/>
      <point x="339" y="335"/>
      <point x="363" y="335" type="curve" smooth="yes"/>
      <point x="391" y="335"/>
      <point x="414" y="309"/>
      <point x="428" y="280" type="curve"/>
      <point x="455" y="295" type="line"/>
      <point x="419" y="368"/>
      <point x="373" y="404"/>
      <point x="334" y="404" type="curve" smooth="yes"/>
      <point x="302" y="404"/>
      <point x="275" y="381"/>
      <point x="265" y="332" type="curve"/>
      <point x="297" y="257" type="line"/>
      <point x="318" y="247" type="line"/>
    </contour>
    <contour>
      <point x="625" y="449" type="line"/>
      <point x="588" y="425"/>
      <point x="560" y="416"/>
      <point x="531" y="416" type="curve" smooth="yes"/>
      <point x="487" y="416"/>
      <point x="468" y="445"/>
      <point x="468" y="479" type="curve" smooth="yes"/>
      <point x="468" y="510"/>
      <point x="481" y="547"/>
      <point x="513" y="560" type="curve"/>
      <point x="392" y="569" type="line"/>
      <point x="370" y="538"/>
      <point x="361" y="512"/>
      <point x="361" y="486" type="curve" smooth="yes"/>
      <point x="361" y="413"/>
      <point x="429" y="380"/>
      <point x="493" y="380" type="curve" smooth="yes"/>
      <point x="505" y="380"/>
      <point x="518" y="381"/>
      <point x="529" y="383" type="curve"/>
      <point x="535" y="365" type="line"/>
    </contour>
    <contour>
      <point x="894" y="552" type="line"/>
      <point x="894" y="560" type="line"/>
      <point x="834" y="620" type="line"/>
      <point x="-50" y="620" type="line"/>
      <point x="-50" y="612" type="line"/>
      <point x="10" y="552" type="line"/>
    </contour>
    <contour>
      <point x="815" y="-33" type="line"/>
      <point x="810" y="68"/>
      <point x="809" y="132"/>
      <point x="809" y="208" type="curve" smooth="yes"/>
      <point x="809" y="568" type="line"/>
      <point x="730" y="568" type="line"/>
      <point x="730" y="418" type="line" smooth="yes"/>
      <point x="730" y="264"/>
      <point x="731" y="156"/>
      <point x="742" y="111" type="curve"/>
      <point x="776" y="-16" type="line"/>
      <point x="804" y="-33" type="line"/>
    </contour>
  </outline>
</glyph>
<glyph name="bLSa" format="2">
  <advance width="874"/>
  <outline>
    <contour>
      <point x="438" y="138" type="curve" smooth="yes"/>
      <point x="488" y="138"/>
      <point x="499" y="175"/>
      <point x="554" y="264" type="curve" smooth="yes"/>
      <point x="594" y="328"/>
      <point x="616" y="357"/>
      <point x="648" y="357" type="curve" smooth="yes"/>
      <point x="679" y="357"/>
      <point x="723" y="323"/>
      <point x="723" y="234" type="curve"/>
      <point x="747" y="361" type="line"/>
      <point x="725" y="346" type="line"/>
      <point x="688" y="401"/>
      <point x="648" y="441"/>
      <point x="603" y="441" type="curve" smooth="yes"/>
      <point x="561" y="441"/>
      <point x="521" y="395"/>
      <point x="504" y="331" type="curve"/>
      <point x="444" y="275" type="line"/>
      <point x="444" y="247"/>
      <point x="411" y="216"/>
      <point x="390" y="216" type="curve" smooth="yes"/>
      <point x="377" y="216"/>
      <point x="359" y="223"/>
      <point x="341" y="251" type="curve"/>
      <point x="333" y="251" type="line"/>
      <point x="307" y="225" type="line"/>
      <point x="341" y="176"/>
      <point x="391" y="138"/>
    </contour>
    <contour>
      <point x="167" y="218" type="curve" smooth="yes"/>
      <point x="222" y="218"/>
      <point x="244" y="248"/>
      <point x="244" y="277" type="curve" smooth="yes"/>
      <point x="244" y="305"/>
      <point x="225" y="330"/>
      <point x="193" y="330" type="curve" smooth="yes"/>
      <point x="165" y="330"/>
      <point x="145" y="310"/>
      <point x="145" y="286" type="curve" smooth="yes"/>
      <point x="145" y="276"/>
      <point x="148" y="265"/>
      <point x="156" y="255" type="curve"/>
      <point x="155" y="253" type="line"/>
      <point x="117" y="253"/>
      <point x="98" y="285"/>
      <point x="98" y="315" type="curve" smooth="yes"/>
      <point x="98" y="359"/>
      <point x="135" y="392"/>
      <point x="181" y="392" type="curve" smooth="yes"/>
      <point x="226" y="392"/>
      <point x="274" y="362"/>
      <point x="297" y="307" type="curve"/>
      <point x="277" y="380" type="line"/>
      <point x="247" y="429"/>
      <point x="204" y="468"/>
      <point x="147" y="468" type="curve" smooth="yes"/>
      <point x="83" y="468"/>
      <point x="31" y="415"/>
      <point x="31" y="349" type="curve" smooth="yes"/>
      <point x="31" y="279"/>
      <point x="87" y="218"/>
    </contour>
    <contour>
      <point x="486" y="275" type="line"/>
      <point x="486" y="304" type="line"/>
      <point x="472" y="309" type="line"/>
      <point x="428" y="423"/>
      <point x="375" y="455"/>
      <point x="336" y="455" type="curve" smooth="yes"/>
      <point x="299" y="455"/>
      <point x="274" y="430"/>
      <point x="264" y="377" type="curve"/>
      <point x="297" y="307" type="line"/>
      <point x="318" y="297" type="line"/>
      <point x="324" y="299" type="line"/>
      <point x="323" y="306"/>
      <point x="323" y="311"/>
      <point x="323" y="312" type="curve"/>
      <point x="323" y="366"/>
      <point x="340" y="383"/>
      <point x="363" y="383" type="curve" smooth="yes"/>
      <point x="412" y="383"/>
      <point x="444" y="302"/>
      <point x="444" y="275" type="curve"/>
    </contour>
    <contour>
      <point x="540" y="299" type="line"/>
      <point x="541" y="380" type="line"/>
      <point x="525" y="388" type="line"/>
      <point x="529" y="403"/>
      <point x="532" y="418"/>
      <point x="532" y="434" type="curve" smooth="yes"/>
      <point x="532" y="477"/>
      <point x="515" y="524"/>
      <point x="471" y="549" type="curve"/>
      <point x="471" y="568" type="line"/>
      <point x="264" y="568" type="line"/>
      <point x="306" y="526" type="line"/>
      <point x="411" y="515"/>
      <point x="494" y="474"/>
      <point x="494" y="388" type="curve" smooth="yes"/>
      <point x="494" y="365"/>
      <point x="493" y="330"/>
      <point x="465" y="296" type="curve"/>
    </contour>
    <contour>
      <point x="884" y="552" type="line"/>
      <point x="884" y="560" type="line"/>
      <point x="824" y="620" type="line"/>
      <point x="-50" y="620" type="line"/>
      <point x="-50" y="612" type="line"/>
      <point x="10" y="552" type="line"/>
    </contour>
    <contour>
      <point x="801" y="-43" type="line"/>
      <point x="794" y="568" type="line"/>
      <point x="724" y="568" type="line"/>
      <point x="724" y="508" type="line" smooth="yes"/>
      <point x="724" y="418"/>
      <point x="723" y="375"/>
      <point x="731" y="325" type="curve"/>
      <point x="723" y="308" type="line"/>
      <point x="722" y="10" type="line"/>
      <point x="790" y="-43" type="line"/>
    </contour>
  </outline>
</glyph>
<glyph name="bMBa" format="2">
  <advance width="598"/>
  <outline>
    <contour>
      <point x="487" y="-43" type="line"/>
      <point x="483" y="39"/>
      <point x="483" y="86"/>
      <point x="483" y="140" type="curve" smooth="yes"/>
      <point x="483" y="338" type="line"/>
      <point x="343" y="347" type="line"/>
      <point x="274" y="312"/>
      <point x="189" y="267"/>
      <point x="110" y="216" type="curve"/>
      <point x="185" y="122" type="line"/>
      <point x="321" y="109"/>
      <point x="410" y="45"/>
      <point x="448" y="-26" type="curve"/>
      <point x="430" y="82" type="line"/>
      <point x="414" y="71" type="line"/>
      <point x="369" y="127"/>
      <point x="296" y="173"/>
      <point x="241" y="192" type="curve"/>
      <point x="240" y="195" type="line"/>
      <point x="289" y="228"/>
      <point x="355" y="260"/>
      <point x="406" y="283" type="curve"/>
      <point x="406" y="179"/>
      <point x="408" y="93"/>
      <point x="419" y="67" type="curve"/>
      <point x="448" y="-26" type="line"/>
      <point x="476" y="-43" type="line"/>
    </contour>
    <contour>
      <point x="408" y="304" type="curve" smooth="yes"/>
      <point x="484" y="304"/>
      <point x="538" y="355"/>
      <point x="538" y="433" type="curve" smooth="yes"/>
      <point x="538" y="482"/>
      <point x="514" y="536"/>
      <point x="483" y="563" type="curve"/>
      <point x="382" y="552" type="line"/>
      <point x="442" y="552"/>
      <point x="472" y="511"/>
      <point x="472" y="474" type="curve" smooth="yes"/>
      <point x="472" y="433"/>
      <point x="433" y="398"/>
      <point x="379" y="398" type="curve" smooth="yes"/>
      <point x="282" y="398"/>
      <point x="253" y="502"/>
      <point x="137" y="502" type="curve" smooth="yes"/>
      <point x="66" y="502"/>
      <point x="33" y="458"/>
      <point x="33" y="415" type="curve" smooth="yes"/>
      <point x="33" y="371"/>
      <point x="67" y="327"/>
      <point x="125" y="327" type="curve" smooth="yes"/>
      <point x="172" y="327"/>
      <point x="216" y="355"/>
      <point x="216" y="429" type="curve" smooth="yes"/>
      <point x="216" y="473"/>
      <point x="201" y="528"/>
      <point x="170" y="565" type="curve"/>
      <point x="76" y="552" type="line"/>
      <point x="111" y="552"/>
      <point x="150" y="547"/>
      <point x="159" y="498" type="curve"/>
      <point x="206" y="439" type="line"/>
      <point x="217" y="444" type="line"/>
      <point x="237" y="430"/>
      <point x="253" y="406"/>
      <point x="273" y="380" type="curve" smooth="yes"/>
      <point x="304" y="338"/>
      <point x="355" y="304"/>
    </contour>
    <contour>
      <point x="608" y="552" type="line"/>
      <point x="608" y="560" type="line"/>
      <point x="548" y="620" type="line"/>
      <point x="-50" y="620" type="line"/>
      <point x="-50" y="612" type="line"/>
      <point x="10" y="552" type="line"/>
    </contour>
  </outline>
</glyph>
